<?xml version="1.0" encoding="utf-8"?>
<!-- Generator: Adobe Illustrator 19.2.1, SVG Export Plug-In . SVG Version: 6.00 Build 0)  -->
<svg version="1.1" xmlns="http://www.w3.org/2000/svg" xmlns:xlink="http://www.w3.org/1999/xlink" x="0px" y="0px"
	 viewBox="0 0 800 800" style="enable-background:new 0 0 800 800;" xml:space="preserve">
<style type="text/css">
	.st0{fill:#A32E00;}
	.st1{fill:#FBB03B;}
	.st2{fill:#EFC94C;}
	.st3{fill:#EF5518;}
	.st4{fill:#00A32C;}
	.st5{fill:#FCF6EA;}
	.st6{fill:#333333;}
	.st7{fill:#005C99;}
	.st8{fill:#B0AD12;}
	.st9{fill:#F9DDB7;}
	.st10{fill:#6B0C22;}
	.st11{fill:#8DDFE3;}
</style>
<g id="OBJECTS">
	<g>
		
			<rect x="-23.2" y="613.7" transform="matrix(0.7674 -0.6412 0.6412 0.7674 -374.6697 247.9091)" class="st0" width="355" height="53.3"/>
		
			<rect x="32.6" y="709.5" transform="matrix(0.7674 -0.6412 0.6412 0.7674 -462.8011 196.6516)" class="st1" width="14" height="53.3"/>
		
			<rect x="50.6" y="694.6" transform="matrix(0.7674 -0.6412 0.6412 0.7674 -449.0306 204.6606)" class="st1" width="14" height="53.3"/>
		
			<rect x="242.5" y="528.3" transform="matrix(0.7674 -0.6412 0.6412 0.7674 -296.1778 293.5604)" class="st1" width="28" height="53.3"/>
	</g>
	<g>
		
			<rect x="185.2" y="22.9" transform="matrix(0.504 -0.8637 0.8637 0.504 -51.1405 261.4986)" class="st2" width="33.8" height="304.8"/>
		
			<rect x="74.4" y="104.6" transform="matrix(0.504 -0.8637 0.8637 0.504 -50.2578 133.6677)" class="st1" width="33.8" height="12"/>
		
			<rect x="91.7" y="114.7" transform="matrix(0.504 -0.8637 0.8637 0.504 -50.3957 153.6413)" class="st1" width="33.8" height="12"/>
		
			<rect x="284" y="220.9" transform="matrix(0.504 -0.8637 0.8637 0.504 -51.9266 375.348)" class="st1" width="33.8" height="24.1"/>
	</g>
	<g>
		
			<rect x="-25" y="388.5" transform="matrix(0.2985 -0.9544 0.9544 0.2985 -320.06 393.9566)" class="st3" width="266" height="52.5"/>
		
			<rect x="136.2" y="281.6" transform="matrix(0.2985 -0.9544 0.9544 0.2985 -194.5963 350.8877)" class="st1" width="10.5" height="52.5"/>
		
			<rect x="130.9" y="298.3" transform="matrix(0.2985 -0.9544 0.9544 0.2985 -214.2 357.6172)" class="st1" width="10.5" height="52.5"/>
	</g>
	<g>
		
			<rect x="335.7" y="129" transform="matrix(0.4228 -0.9062 0.9062 0.4228 141.1867 543.499)" class="st4" width="323.1" height="63.8"/>
		
			<rect x="431.8" y="254.5" transform="matrix(0.4228 -0.9062 0.9062 0.4228 -6.3284 562.8821)" class="st1" width="13.8" height="63.8"/>
		<ellipse transform="matrix(0.4228 -0.9062 0.9062 0.4228 270.1233 526.1041)" class="st1" cx="548" cy="51" rx="12.3" ry="16.9"/>
	</g>
	<g>
		<g>
			<path class="st5" d="M759.3,727.2L465,598c-22-9.7-35.2-33.2-27-52l2.2-5.1c8.3-18.8,33.5-22.7,55.5-13L790,657.1
				c0,0-14.5,6-24.6,28.9C753.9,712.4,759.3,727.2,759.3,727.2z"/>
		</g>
		<g>
			<path class="st6" d="M467,604.8c-23.7-10.4-35.6-35.8-26.5-56.7l2.2-5.1c8.9-20.3,36.1-28,60.4-17.3c2.1,0.9,3.3,3.2,2.5,5
				c-0.8,1.8-2.8,2.7-4.9,1.8c-20.1-8.8-41.9-2.3-49.2,14.3l-2.2,5.1c-7.5,17.2,1.8,37.9,21.1,46.4c2.1,0.9,3,3.1,2.2,4.9
				C471.8,605.1,469.2,605.7,467,604.8z"/>
		</g>
		<g>
			<path class="st7" d="M765.1,736.7L461.4,603.4c-24.1-10.6-35.6-37.5-26.3-58.7l2.2-5.1c9-20.4,34.6-29.1,60-18L801,655l-3.8,8.8
				L493.5,530.4c-20.4-9-40.3-3.1-47.4,13.1l-2.2,5.1c-7.5,17.1,0.8,40.5,20.2,49l303.7,133.3L765.1,736.7z"/>
		</g>
	</g>
	<g>
		
			<rect x="391.2" y="371.6" transform="matrix(0.9525 -0.3044 0.3044 0.9525 -93.921 186.3933)" class="st8" width="319" height="45.6"/>
		
			<rect x="674.1" y="330" transform="matrix(0.9525 -0.3044 0.3044 0.9525 -75.0675 224.064)" class="st9" width="13.7" height="45.6"/>
		
			<ellipse transform="matrix(0.9525 -0.3044 0.3044 0.9525 -110.4898 153.4933)" class="st9" cx="437" cy="431.1" rx="12.1" ry="12.1"/>
	</g>
	<g>
		
			<rect x="422.1" y="585" transform="matrix(0.4191 -0.9079 0.9079 0.4191 -395.7014 822.4573)" class="st10" width="45.6" height="271"/>
		
			<rect x="527.6" y="763.4" transform="matrix(0.4191 -0.9079 0.9079 0.4191 -378.6504 946.4619)" class="st1" width="45.6" height="11.6"/>
		
			<rect x="349.6" y="681" transform="matrix(0.4191 -0.9079 0.9079 0.4191 -407.2723 737.0201)" class="st1" width="45.6" height="11.6"/>
		
			<rect x="370.6" y="694.3" transform="matrix(0.4191 -0.9079 0.9079 0.4191 -404.0368 761.7673)" class="st1" width="45.6" height="4.7"/>
		
			<rect x="378.4" y="697.8" transform="matrix(0.4191 -0.9079 0.9079 0.4191 -402.6461 770.8923)" class="st1" width="45.6" height="4.7"/>
	</g>
	<g>
		<path class="st5" d="M370.6,506.7l-68.2-141.9c-4.1-8.6-17.5-13.4-26-9.3l-2.3,1.1c-8.6,4.1-10.2,16.2-6.1,24.8l68.2,141.9
			c0,0,4.1-6.8,14.6-11.8C362.7,505.7,370.6,506.7,370.6,506.7z"/>
	</g>
	<g>
		<path class="st6" d="M301.4,364.8c0.2,0.4,0.2,0.9-0.1,1.3c-0.4,0.6,0,1.5-0.6,1.1c-0.4-0.2-10.4-6.3-21.6-0.9
			c-9.7,4.7-10.9,15.2-10.9,15.3c-0.1,0.7-0.7,1.3-1.5,1.2c-0.7-0.1-0.8-2.3-0.7-3c0.1-0.5,0.9-10.5,11.9-15.9
			c12.6-6,22.5,0.1,22.9,0.4C301.1,364.4,301.2,364.6,301.4,364.8z"/>
	</g>
	<g>
		<g>
			<path class="st11" d="M298.8,364.8l-40.2-83.6c-4.1-8.6-15.7-15.9-24.3-11.7l-2.3,1.1c-8.6,4.1-9.1,17.2-5,25.8l40.2,83.6
				c0,0,0.4-10.9,10.8-15.9C290.1,358.3,298.8,364.8,298.8,364.8z"/>
		</g>
		<g>
			<path class="st11" d="M261.5,280l111,230.9l-5.7,2.8l-111-230.9c-3.5-7.2-10.8-11.3-18.7-7.5l-2.3,1.1
				c-7.3,3.5-8.6,11.1-4.8,18.8l111,230.9l-5.7,2.8l-111-230.9c-4.8-10-1.7-22.7,7.8-27.3l2.3-1.1
				C244.3,264.7,257.1,270.6,261.5,280z"/>
		</g>
	</g>
</g>
<g id="DESIGNED_BY_FREEPIK">
</g>
</svg>
