<?xml version="1.0" encoding="utf-8"?>
<!-- Generator: Adobe Illustrator 19.2.1, SVG Export Plug-In . SVG Version: 6.00 Build 0)  -->
<svg version="1.1" xmlns="http://www.w3.org/2000/svg" xmlns:xlink="http://www.w3.org/1999/xlink" x="0px" y="0px"
	 viewBox="0 0 483.2 800" style="enable-background:new 0 0 483.2 800;" xml:space="preserve">
<style type="text/css">
	.st0{fill:#424142;}
	.st1{fill:#E6E7E7;}
	.st2{fill:#FFFFFF;}
	.st3{fill:#4E4E4F;}
	.st4{fill:#646566;}
	.st5{fill:#1B75BB;}
	.st6{fill:#26A9E0;}
	.st7{fill:#FFC610;}
	.st8{fill:#FDE3CB;}
	.st9{fill:#2E0927;}
	.st10{fill:#F8BBA6;}
	.st11{fill:#145588;}
	.st12{fill:#FDDAC0;}
	.st13{fill:#8A674B;}
	.st14{fill:#231F20;}
	.st15{fill:#2E2D62;}
	.st16{fill:#3A478F;}
	.st17{fill:none;stroke:#911B1D;stroke-width:4.252;stroke-miterlimit:10;}
	.st18{fill:#911B1D;}
	.st19{fill:none;stroke:#911B1D;stroke-width:4.252;stroke-linecap:round;stroke-miterlimit:10;}
	.st20{fill:none;}
	.st21{fill:#761027;}
	.st22{fill:#F3889A;}
</style>
<g id="OBJECTS">
	<g>
		<g>
			<g>
				<path class="st0" d="M195.6,764c-4.4,1.8-10.2,2.9-16.5,2.9c-6.9,0-13.1-1.3-17.7-3.3c-23,2.6-32.3,25.4-27.7,30.4
					c6.2,6.7,29.8,9.1,46.7,1c6.4-3.1,17.9-0.6,17.9-7.2v-19.8C198.3,766.2,197.2,764.7,195.6,764z"/>
				<path class="st1" d="M144.2,770.4c4.5,1.7,7.6,4.4,10.6,7.4c1.5-1.5,3.2-2.9,5-4.3c-3.9-2.3-8-4.2-12.2-5.3
					C146.4,768.9,145.3,769.6,144.2,770.4z"/>
				<path class="st2" d="M147.5,768.2c4.2,1.1,8.3,3.1,12.2,5.3c1.5-1.2,3.1-2.3,4.7-3.3c-3.3-2.3-6.7-4.1-10.6-5
					C151.6,766,149.5,767,147.5,768.2z"/>
				<path class="st3" d="M132.9,787.6c-0.5,2.8-0.2,5.1,0.9,6.3c6.2,6.7,29.8,9.1,46.7,1c6.4-3.1,17.9-0.6,17.9-7.2v-4
					c-5.3,0.4-14,1.9-24.6,6.6C161.1,795.9,145.6,792.9,132.9,787.6z"/>
				<path class="st4" d="M132.9,787.6c7.4,3.1,15.8,5.4,24.1,5.7c-1.9-9.8-8.4-17.4-16.6-19.3C136.2,778.5,133.6,783.5,132.9,787.6z
					"/>
				<path class="st2" d="M151.5,781.2c1.1-1.1,2.1-2.3,3.3-3.4c-3-3-6.1-5.7-10.6-7.4c-1.4,1.1-2.7,2.3-3.9,3.5
					C144.7,774.9,148.6,777.5,151.5,781.2z"/>
				<circle class="st2" cx="186" cy="775.5" r="4.9"/>
				<g>
					<path class="st2" d="M132.9,787.4c0.1-0.3,0.2-0.7,0.3-1.1C133.1,786.7,133,787.1,132.9,787.4z"/>
				</g>
				<path class="st1" d="M161.5,763.5c-2.7,0.3-5.3,0.9-7.6,1.7c3.9,0.9,7.3,2.6,10.6,5c2.1-1.4,4.4-2.7,6.8-3.9
					C167.5,765.7,164.2,764.7,161.5,763.5z"/>
			</g>
			<g>
				<path class="st5" d="M176.8,768.5c-10.8,0-25.4,0-25.4-7.2l5.8-148.2c0-7.2,8.8-13.1,19.6-13.1l0,0c10.8,0,19.6,5.8,19.6,13.1
					l5.8,148.2C202.2,768.5,187.6,768.5,176.8,768.5z"/>
			</g>
			<path class="st6" d="M176.8,758.9c-8.9,0-20,0-25.2-3l-0.2,5.3c0,7.2,14.6,7.2,25.4,7.2c10.8,0,25.4,0,25.4-7.2L202,756
				C196.8,758.9,185.7,758.9,176.8,758.9z"/>
			<g>
				<path class="st0" d="M237.1,764c4.4,1.8,10.2,2.9,16.5,2.9c6.9,0,13.1-1.3,17.7-3.3c23,2.6,32.3,25.4,27.7,30.4
					c-6.2,6.7-29.8,9.1-46.7,1c-6.4-3.1-17.9-0.6-17.9-7.2v-19.8C234.4,766.2,235.5,764.7,237.1,764z"/>
				<path class="st1" d="M288.5,770.4c-4.5,1.7-7.6,4.4-10.6,7.4c-1.5-1.5-3.2-2.9-5-4.3c3.9-2.3,8-4.2,12.2-5.3
					C286.3,768.9,287.5,769.6,288.5,770.4z"/>
				<path class="st2" d="M285.2,768.2c-4.2,1.1-8.3,3.1-12.2,5.3c-1.5-1.2-3.1-2.3-4.7-3.3c3.3-2.3,6.7-4.1,10.6-5
					C281.1,766,283.3,767,285.2,768.2z"/>
				<path class="st3" d="M299.8,787.6c0.5,2.8,0.2,5.1-0.9,6.3c-6.2,6.7-29.8,9.1-46.7,1c-6.4-3.1-17.9-0.6-17.9-7.2v-4
					c5.3,0.4,14.1,1.9,24.6,6.6C271.6,795.9,287.1,792.9,299.8,787.6z"/>
				<path class="st4" d="M299.8,787.6c-7.4,3.1-15.8,5.4-24.1,5.7c1.9-9.8,8.4-17.4,16.6-19.3C296.6,778.5,299.1,783.5,299.8,787.6z
					"/>
				<path class="st2" d="M281.2,781.2c-1.1-1.1-2.1-2.3-3.3-3.4c3-3,6.1-5.7,10.6-7.4c1.4,1.1,2.7,2.3,3.9,3.5
					C288,774.9,284.2,777.5,281.2,781.2z"/>
				<circle class="st2" cx="246.7" cy="775.5" r="4.9"/>
				<g>
					<path class="st2" d="M299.8,787.4c-0.1-0.3-0.2-0.7-0.3-1.1C299.6,786.7,299.7,787.1,299.8,787.4z"/>
				</g>
				<path class="st1" d="M271.3,763.5c2.7,0.3,5.3,0.9,7.6,1.7c-3.9,0.9-7.3,2.6-10.6,5c-2.1-1.4-4.4-2.7-6.8-3.9
					C265.2,765.7,268.5,764.7,271.3,763.5z"/>
			</g>
			<path class="st5" d="M255.9,768.5c10.8,0,25.4,0,25.4-7.2l-5.8-148.2c0-7.2-8.8-13.1-19.6-13.1l0,0c-10.8,0-19.6,5.8-19.6,13.1
				l-5.8,148.2C230.5,768.5,245.1,768.5,255.9,768.5z"/>
			<path class="st6" d="M255.9,758.9c8.9,0,20,0,25.2-3l0.2,5.3c0,7.2-14.6,7.2-25.4,7.2c-10.8,0-25.4,0-25.4-7.2l0.2-5.3
				C235.9,758.9,247,758.9,255.9,758.9z"/>
			<path class="st7" d="M280.6,556.6c-1.6-24.1-5.5-60.3-11.2-74.8c-11.5-28.9-30.3-22.9-53.1-22.9c-22.8,0-41.6-6.1-53.1,22.9
				c-5.7,14.5-9.6,50.7-11.2,74.8c-5.6,83.8,19.6,78.4,64.3,78.4C261,634.9,286.2,640.3,280.6,556.6z"/>
			<g>
				<path class="st8" d="M96.1,513.8c-3.7-1.7-7.2-3.9-10.4-6.5C49.5,478,59.9,406.8,61.2,398.8c1.4-8.8,9-14.7,16.9-13.1
					c7.9,1.6,13.1,10.1,11.6,18.9l0,0c-2.4,15.1-5.3,61.6,12.9,76.2c13.2,10.6,39.6,4.7,74.3-16.8c7-4.3,15.8-1.5,19.7,6.4
					c3.9,7.9,1.3,17.8-5.7,22.1C151,517.3,119.1,524.4,96.1,513.8z"/>
				<path class="st8" d="M90.2,386.8c-8.4-9.6-11.5-7-20.8-2.6c-9.3,4.4-16.9,7.9-13,18.4c3.9,10.5,16.3,20,25.7,15.6
					C91.4,413.9,94.1,397.3,90.2,386.8z"/>
				<path class="st8" d="M54.3,377.5c-0.6-1.6-2.2-2.3-3.6-1.7l0,0c-1.4,0.7-2.1,2.5-1.5,4.1l8.3,22.2c0.6,1.6,2.2,2.3,3.6,1.7l0,0
					c1.4-0.7,2.1-2.5,1.5-4.1L54.3,377.5z"/>
				<path class="st8" d="M59.4,365.9c-0.6-1.6-2.2-2.3-3.6-1.7l0,0c-1.4,0.7-2.1,2.5-1.5,4.1l8.3,22.2c0.6,1.6,2.2,2.3,3.6,1.7l0,0
					c1.4-0.7,2.1-2.5,1.5-4.1L59.4,365.9z"/>
				<path class="st8" d="M66.4,359.4c-0.6-1.6-2.2-2.3-3.6-1.7l0,0c-1.4,0.7-2.1,2.5-1.5,4.1l8.3,22.2c0.6,1.6,2.2,2.3,3.6,1.7l0,0
					c1.4-0.7,2.1-2.5,1.5-4.1L66.4,359.4z"/>
				<path class="st8" d="M98.3,382.4c0.7-0.9,0.2-2.8-1.2-4.2l0,0c-1.4-1.4-3.1-1.9-3.8-1L83,389.5c-0.7,0.9-0.2,2.8,1.2,4.2l0,0
					c1.4,1.4,3.1,1.9,3.8,1L98.3,382.4z"/>
				<g>
					<path class="st8" d="M76.2,360.3c-0.6-1.6-2.2-2.3-3.6-1.7l0,0c-1.4,0.7-2.1,2.5-1.5,4.1l8.3,22.2c0.6,1.6,2.2,2.3,3.6,1.7l0,0
						c1.4-0.7,2.1-2.5,1.5-4.1L76.2,360.3z"/>
				</g>
				<path class="st7" d="M209.3,466.5c-3.5-6.1-27.6-9.2-34.2-6.3c-19.7,8.6-36.3,16.2-49.1,19.1c-8.7,1.9-15.7,1.7-20.7-1.9
					c-3-2.2-5.5-5.4-7.4-9.3c-5.9-11.6-7.3-29.1-6.4-43.2l-36.8-2.9c-1.1,18-0.8,60,23.6,84.2c2.2,2.2,4.5,4.2,7.1,6.1
					c2.9,2,5.8,3.8,9,5.2c6.5,3,13.7,4.7,21.4,5.1c21.3,1.2,47.1-7.6,77.2-26.2C192.9,496.4,212,471.2,209.3,466.5z"/>
				<path class="st9" d="M54.5,421.9l36.8,2.9c-0.1,2-0.2,4.1-0.2,6.3c-12.5-0.3-24.7-1.6-36.9-2.8
					C54.3,425.9,54.4,423.8,54.5,421.9z"/>
			</g>
			<g>
				<path class="st8" d="M337.5,511.3c-22.9,10.8-54.8,4.5-95.2-18.6c-7.1-4.1-9.8-13.6-6.1-21.3c3.7-7.7,12.5-10.6,19.6-6.6
					c35.1,20.1,61.5,25.3,74.6,14.8c17.9-14.5,14.3-59.4,11.6-74c-1.6-8.5,3.5-16.8,11.4-18.5c7.8-1.7,15.5,3.8,17.1,12.3
					c1.4,7.7,13.1,76.4-22.6,105.4C344.6,507.4,341.2,509.6,337.5,511.3z"/>
				<g>
					<path class="st8" d="M341.3,388.4c8.2-9.4,11.4-7,20.8-2.9c9.4,4,17,7.3,13.3,17.5c-3.7,10.2-16,19.7-25.4,15.6
						C340.6,414.6,337.6,398.6,341.3,388.4z"/>
					<path class="st8" d="M377.1,378.7c0.6-1.5,2.2-2.3,3.6-1.7l0,0c1.4,0.6,2.1,2.4,1.6,3.9l-7.9,21.7c-0.6,1.5-2.2,2.3-3.6,1.7
						l0,0c-1.4-0.6-2.1-2.4-1.6-3.9L377.1,378.7z"/>
					<path class="st8" d="M371.8,367.5c0.6-1.5,2.2-2.3,3.6-1.7l0,0c1.4,0.6,2.1,2.4,1.6,3.9l-7.9,21.7c-0.6,1.5-2.2,2.3-3.6,1.7
						l0,0c-1.4-0.6-2.1-2.4-1.6-3.9L371.8,367.5z"/>
					<path class="st8" d="M364.6,361.4c0.6-1.5,2.2-2.3,3.6-1.7l0,0c1.4,0.6,2.1,2.4,1.6,3.9l-7.9,21.7c-0.6,1.5-2.2,2.3-3.6,1.7
						l0,0c-1.4-0.6-2.1-2.4-1.6-3.9L364.6,361.4z"/>
					<path class="st8" d="M354.9,362.5c0.6-1.5,2.2-2.3,3.6-1.7l0,0c1.4,0.6,2.1,2.4,1.6,3.9l-7.9,21.7c-0.6,1.5-2.2,2.3-3.6,1.7
						l0,0c-1.4-0.6-2.1-2.4-1.6-3.9L354.9,362.5z"/>
					<path class="st8" d="M333.1,384.3c-0.8-0.8-0.3-2.7,1.1-4.1l0,0c1.3-1.4,3.1-1.9,3.8-1l10.5,11.8c0.7,0.8,0.3,2.7-1.1,4.1l0,0
						c-1.4,1.4-3.1,1.9-3.8,1.1L333.1,384.3z"/>
				</g>
				<path class="st7" d="M340.8,425.2c1.1,13.6,0,30.6-5.7,41.9c-1.9,3.8-4.3,6.9-7.3,9.1c-5,3.6-12,4-20.7,2.3
					c-12.9-2.5-29.6-9.6-49.4-17.5c-6.7-2.7-30.7,0.8-34.1,6.8c-2.6,4.6,16.9,28.7,16.9,28.7c30.3,17.4,56.3,25.3,77.6,23.8
					c7.7-0.6,14.8-2.3,21.3-5.4c3.1-1.5,6.1-3.2,8.9-5.3c2.6-1.8,4.9-3.9,7-6c24-23.9,23.7-64.5,22.2-81.9L340.8,425.2z"/>
				<path class="st9" d="M377.5,421.7l-36.8,3.6c0.2,1.9,0.3,4,0.3,6c12.5-0.6,24.7-2,36.8-3.5C377.8,425.5,377.7,423.5,377.5,421.7
					z"/>
			</g>
			<path class="st9" d="M245.6,465.8c0-2.4-0.6-4.7-1.6-6.8c-8.2-1.2-17.5,0-27.6,0c-10.1,0-19.4-1.2-27.6,0c-1,2.1-1.6,4.4-1.6,6.8
				c0,11.6,13.1,21,29.3,21C232.5,486.7,245.6,477.3,245.6,465.8z"/>
			<path class="st8" d="M237.5,463.5c0,8.3-9.5,15-21.1,15l0,0c-11.7,0-21.1-6.7-21.1-15v-22.6c0-8.3,9.5-15,21.1-15l0,0
				c11.7,0,21.1,6.7,21.1,15V463.5z"/>
			<path class="st10" d="M237.5,440.9c0-8.3-9.5-15-21.1-15c-11.7,0-21.1,6.7-21.1,15V453c14.2-0.1,28.2-0.4,42.2-0.6V440.9z"/>
			<path class="st8" d="M195.2,453v10.5c0,8.3,9.5,15,21.1,15c11.7,0,21.1-6.7,21.1-15v-11.2C223.5,452.7,209.4,452.9,195.2,453z"/>
			<path class="st5" d="M211.9,590.5c-21.8,0-42.4-2.9-60.6-8.1c1.1,58,25.3,53.8,65,53.8c40.3,0,64.7,4.4,65.1-56.5
				C261.2,586.5,237.4,590.5,211.9,590.5z"/>
			<path class="st11" d="M273.9,612.7c1.2,0,2.3-0.1,3.4-0.2c2.6-8,4-18.6,4.1-32.8c-10.6,3.6-22.2,6.4-34.4,8.2
				C248.1,601.7,259.7,612.7,273.9,612.7z"/>
			<path class="st11" d="M185.6,589c-12.1-1.4-23.6-3.6-34.3-6.6c0.2,12.8,1.6,22.6,4,30.1c1.1,0.1,2.3,0.2,3.5,0.2
				C172.6,612.7,183.9,602.3,185.6,589z"/>
			<path class="st11" d="M211.7,597.7c25.3,0,49-3.6,69.5-9.8c0.1-2.6,0.2-5.4,0.2-8.3c-20.2,6.9-44,10.9-69.5,10.9
				c-21.8,0-42.4-2.9-60.6-8.1c0,2.9,0.2,5.6,0.3,8.2C169.8,595.1,190.2,597.7,211.7,597.7z"/>
			<path class="st8" d="M390.5,294.1c0,80.6-65.4,146-146,146h-56.2c-80.7,0-146-65.4-146-146V183.7c0-80.6,65.4-146,146-146h56.2
				c80.6,0,146,65.4,146,146V294.1z"/>
			<path class="st12" d="M244.5,415.6h-56.2c-80.7,0-146-65.4-146-146v24.5c0,80.6,65.4,146,146,146h56.2c80.6,0,146-65.4,146-146
				v-24.5C390.5,350.2,325.1,415.6,244.5,415.6z"/>
			<g>
				<g>
					<path class="st12" d="M49.8,305.6c0,13.7-11.1,24.9-24.9,24.9l0,0C11.1,330.5,0,319.4,0,305.6v-30.3
						c0-13.7,11.1-24.9,24.9-24.9l0,0c13.7,0,24.9,11.1,24.9,24.9V305.6z"/>
					<path class="st12" d="M432.7,305.6c0,13.7-11.1,24.9-24.9,24.9l0,0c-13.7,0-24.9-11.1-24.9-24.9v-30.3
						c0-13.7,11.1-24.9,24.9-24.9l0,0c13.7,0,24.9,11.1,24.9,24.9V305.6z"/>
					<path class="st8" d="M9.3,315.7v-30.3c0-13.7,10.7-24.9,23.8-24.9c5.6,0,10.7,2,14.8,5.4c-3.7-9.1-12.6-15.5-23-15.5
						C11.1,250.4,0,261.6,0,275.3v30.3c0,9,4.7,16.8,11.8,21.2C10.3,323.4,9.3,319.7,9.3,315.7z"/>
					<path class="st8" d="M407.8,250.4c-10.4,0-19.3,6.4-23,15.5c4.1-3.4,9.2-5.4,14.8-5.4c13.1,0,23.8,11.1,23.8,24.9v30.3
						c0,4-0.9,7.7-2.5,11.1c7.1-4.4,11.8-12.2,11.8-21.2v-30.3C432.7,261.6,421.5,250.4,407.8,250.4z"/>
					<path class="st10" d="M235.5,331.9c2,4.4-0.3,8.6-5,9.4l-7.8,1.3c-4.8,0.8-8.3-2.5-7.9-7.3l2.7-32.5c0.4-4.8,2.4-5.1,4.4-0.8
						L235.5,331.9z"/>
				</g>
				<g>
					<ellipse class="st2" cx="129.8" cy="313.8" rx="17.7" ry="27.3"/>
					<ellipse class="st13" cx="132.9" cy="313.8" rx="14.6" ry="22.6"/>
					<ellipse class="st14" cx="132.9" cy="313.8" rx="10.1" ry="15.7"/>
					<ellipse class="st2" cx="139.2" cy="305.3" rx="2.9" ry="4.4"/>
					<g>
						<path class="st15" d="M143.8,251.6c0,0-0.3-0.3-0.9-0.9c-0.3-0.3-0.6-0.6-1-1c-0.4-0.4-0.8-0.7-1.3-1.1
							c-0.5-0.4-1-0.8-1.6-1.2c-0.6-0.4-1.2-0.7-1.9-1c-0.7-0.3-1.4-0.6-2.1-0.7c-0.7-0.2-1.5-0.3-2.1-0.3c-0.4,0-0.9,0-1.2,0.1
							c-0.3,0-0.7,0.1-1.1,0.2c-0.7,0.2-1.4,0.4-2.1,0.7c-0.7,0.3-1.3,0.7-1.9,1c-0.6,0.4-1.1,0.8-1.6,1.2c-0.5,0.4-0.9,0.8-1.3,1.1
							c-0.4,0.4-0.7,0.7-1,1c-0.5,0.6-0.9,0.9-0.9,0.9s0-0.1,0.1-0.3c0.1-0.2,0.1-0.5,0.3-0.9c0.1-0.4,0.3-0.8,0.6-1.3
							c0.3-0.5,0.6-1,1-1.6c0.4-0.6,0.9-1.2,1.4-1.7c0.6-0.6,1.2-1.1,2-1.6c0.8-0.5,1.6-0.9,2.6-1.2c0.5-0.1,0.9-0.3,1.5-0.3
							c0.6-0.1,1-0.1,1.4-0.1c1.1,0,2,0.2,3,0.4c0.9,0.3,1.8,0.7,2.6,1.2c0.8,0.5,1.4,1.1,2,1.6c0.6,0.6,1.1,1.2,1.4,1.7
							c0.4,0.6,0.7,1.1,1,1.6c0.3,0.5,0.4,0.9,0.6,1.3c0.2,0.4,0.2,0.7,0.3,0.9C143.8,251.5,143.8,251.6,143.8,251.6z"/>
					</g>
				</g>
				<g>
					<ellipse class="st2" cx="302.9" cy="313.8" rx="17.7" ry="27.3"/>
					<path class="st13" d="M314.4,313.8c0,12.5-6.5,22.6-14.6,22.6c-8.1,0-14.6-10.1-14.6-22.6c0-12.5,6.5-22.6,14.6-22.6
						C307.9,291.2,314.4,301.3,314.4,313.8z"/>
					<ellipse class="st14" cx="299.8" cy="313.8" rx="10.1" ry="15.7"/>
					<ellipse class="st2" cx="306.1" cy="305.3" rx="2.9" ry="4.4"/>
					<g>
						<g>
							<path class="st15" d="M310.7,251.6c0,0-0.3-0.3-0.9-0.9c-0.3-0.3-0.6-0.6-1-1c-0.4-0.4-0.8-0.7-1.3-1.1
								c-0.5-0.4-1-0.8-1.6-1.2c-0.6-0.4-1.2-0.7-1.9-1c-0.7-0.3-1.4-0.6-2.1-0.7c-0.7-0.2-1.5-0.3-2.1-0.3c-0.4,0-0.9,0-1.2,0.1
								c-0.3,0-0.7,0.1-1.1,0.2c-0.7,0.2-1.4,0.4-2.1,0.7c-0.7,0.3-1.3,0.7-1.9,1c-0.6,0.4-1.1,0.8-1.6,1.2
								c-0.5,0.4-0.9,0.8-1.3,1.1c-0.4,0.4-0.7,0.7-1,1c-0.5,0.6-0.9,0.9-0.9,0.9s0-0.1,0.1-0.3c0.1-0.2,0.1-0.5,0.3-0.9
								c0.1-0.4,0.3-0.8,0.6-1.3c0.3-0.5,0.6-1,1-1.6c0.4-0.6,0.9-1.2,1.4-1.7c0.6-0.6,1.2-1.1,2-1.6c0.8-0.5,1.6-0.9,2.6-1.2
								c0.5-0.1,0.9-0.3,1.5-0.3c0.6-0.1,1-0.1,1.4-0.1c1.1,0,2,0.2,3,0.4c0.9,0.3,1.8,0.7,2.6,1.2c0.8,0.5,1.4,1.1,2,1.6
								c0.6,0.6,1.1,1.2,1.4,1.7c0.4,0.6,0.7,1.1,1,1.6c0.3,0.5,0.4,0.9,0.6,1.3c0.2,0.4,0.2,0.7,0.3,0.9
								C310.7,251.5,310.7,251.6,310.7,251.6z"/>
						</g>
					</g>
				</g>
			</g>
			<path class="st15" d="M45.1,305.6c0,0,59.6-63.6,62.1-124.6c36.9,36.9,287,98.4,376,4.2c-29.7,2.5-59.3-9.8-62.7-69.5
				C414.5,12.2,141-66.6,76.6,82.6C11.3,25-4.1,273.4,45.1,305.6z"/>
			<ellipse class="st16" cx="224.2" cy="34" rx="73.8" ry="21"/>
			<path class="st15" d="M389.9,305.6c0,0-51.9-92.4-54.4-153.4c-1.4-28,10.4-61.9,22.9-69.5C423.7,25,439.1,273.4,389.9,305.6z"/>
			<g>
				<path class="st16" d="M107.2,153c0,0,1.2,0.7,3.4,1.9c2.3,1.2,5.6,2.9,9.9,4.9c4.3,2,9.6,4.4,15.7,7c6.1,2.6,13,5.3,20.7,8.1
					c1.9,0.7,3.9,1.4,5.9,2.1c2,0.7,4,1.4,6.1,2.1c4.1,1.4,8.5,2.8,12.9,4.2c8.9,2.7,18.4,5.4,28.2,7.8c4.9,1.3,10,2.3,15.1,3.5
					c2.5,0.6,5.1,1,7.7,1.6c2.6,0.5,5.2,1.1,7.8,1.5c10.5,1.8,21.2,3.6,31.9,4.7c2.7,0.3,5.4,0.6,8.1,0.9c2.7,0.2,5.4,0.5,8.1,0.7
					c2.7,0.2,5.4,0.5,8,0.6c2.7,0.1,5.3,0.3,8,0.4c5.3,0.4,10.6,0.4,15.8,0.6c5.2,0.2,10.4,0.1,15.5,0.1c5.1,0.1,10.1-0.2,15-0.4
					c2.4-0.1,4.9-0.1,7.2-0.3c2.4-0.2,4.7-0.3,7.1-0.5c4.6-0.3,9.2-0.6,13.5-1.1c4.4-0.4,8.6-0.8,12.6-1.2c4-0.5,7.9-1,11.6-1.5
					c1.8-0.2,3.6-0.5,5.4-0.7c1.7-0.3,3.4-0.6,5.1-0.8c3.3-0.5,6.3-1,9.2-1.5c1.4-0.2,2.8-0.4,4.1-0.6c1.3-0.3,2.5-0.5,3.7-0.7
					c4.7-0.9,8.4-1.6,10.9-2.1c2.5-0.5,3.8-0.7,3.8-0.7s-1.3,0.4-3.8,1c-2.5,0.7-6.1,1.7-10.7,2.9c-1.2,0.3-2.4,0.6-3.6,1
					c-1.3,0.3-2.6,0.6-4,0.9c-2.8,0.6-5.8,1.3-9.1,2.1c-1.6,0.4-3.3,0.8-5,1.1c-1.7,0.3-3.5,0.7-5.4,1c-3.7,0.7-7.5,1.4-11.6,2.1
					c-8.1,1.1-16.9,2.6-26.3,3.3c-2.3,0.2-4.7,0.5-7.1,0.7c-2.4,0.2-4.8,0.3-7.3,0.5c-4.9,0.3-10,0.7-15.1,0.7
					c-5.1,0.1-10.4,0.3-15.6,0.2c-5.3-0.1-10.6,0-16-0.4c-2.7-0.1-5.4-0.3-8.1-0.4c-2.7-0.1-5.4-0.4-8.1-0.6
					c-2.7-0.2-5.4-0.4-8.2-0.7c-2.7-0.3-5.4-0.6-8.2-0.9c-10.9-1.2-21.7-3-32.3-5c-10.6-2.1-20.9-4.5-30.8-7.1
					c-9.9-2.6-19.4-5.7-28.3-8.6c-8.9-3.1-17.2-6.2-24.8-9.4c-1.9-0.8-3.7-1.6-5.5-2.4c-1.8-0.8-3.6-1.5-5.3-2.3
					c-3.4-1.6-6.6-3.1-9.6-4.6c-6-2.9-11.1-5.7-15.3-8c-4.2-2.3-7.3-4.3-9.5-5.7C108.3,153.8,107.2,153,107.2,153z"/>
			</g>
			<g>
				<path class="st17" d="M184.8,306.1c0,27.1-24.6,57.6-55,57.6s-55-30.5-55-57.6c0-27.1,24.6-45.2,55-45.2S184.8,279,184.8,306.1z
					"/>
				<path class="st17" d="M357.9,306.1c0,27.1-24.6,57.6-55,57.6c-30.4,0-55-30.5-55-57.6c0-27.1,24.6-45.2,55-45.2
					C333.2,260.9,357.9,279,357.9,306.1z"/>
				<g>
					<path class="st18" d="M182.6,318.5c0,0,0-0.4-0.1-1.2c0-0.4,0-0.9-0.1-1.4c0-0.3,0-0.6,0-0.9c0-0.3,0-0.7,0.1-1
						c0.1-0.7,0.1-1.6,0.2-2.5c0.1-0.9,0.3-1.8,0.5-2.9c0.2-1,0.6-2.1,0.9-3.2c0.1-0.6,0.4-1.1,0.6-1.7c0.2-0.6,0.5-1.2,0.7-1.8
						c0.6-1.2,1.2-2.4,1.9-3.6c0.4-0.6,0.8-1.2,1.2-1.8c0.2-0.3,0.4-0.6,0.6-0.9c0.2-0.3,0.5-0.6,0.7-0.9c0.5-0.6,1-1.2,1.5-1.8
						c0.5-0.5,1.1-1.1,1.7-1.7c0.5-0.6,1.2-1.1,1.8-1.6c0.6-0.5,1.3-1,1.9-1.5c2.7-1.9,5.8-3.5,9.1-4.6c3.3-1.1,6.9-1.6,10.4-1.6
						l2.6,0.1c0.8,0,1.7,0.2,2.6,0.3c1.8,0.2,3.5,0.7,5.2,1.2c0.8,0.3,1.6,0.6,2.4,0.9c0.4,0.2,0.8,0.3,1.2,0.5l1.1,0.6
						c0.7,0.4,1.5,0.7,2.2,1.2c0.7,0.5,1.4,0.9,2.1,1.4c2.7,1.9,5.1,4.1,6.9,6.5c0.2,0.3,0.5,0.6,0.7,0.9c0.2,0.3,0.4,0.6,0.6,0.9
						c0.4,0.6,0.8,1.2,1.2,1.8c0.7,1.2,1.3,2.4,1.9,3.6c0.2,0.6,0.5,1.2,0.7,1.8c0.2,0.6,0.5,1.1,0.6,1.7c0.3,1.1,0.7,2.2,0.9,3.2
						c0.2,1,0.4,2,0.5,2.9c0.1,0.9,0.1,1.7,0.2,2.5c0,0.4,0,0.7,0.1,1c0,0.3,0,0.6,0,0.9c0,0.6,0,1.1-0.1,1.5c0,0.8-0.1,1.2-0.1,1.2
						s-0.1-0.4-0.2-1.2c-0.1-0.4-0.1-0.9-0.2-1.4c0-0.3-0.1-0.6-0.1-0.9c-0.1-0.3-0.2-0.7-0.2-1c-0.2-0.7-0.3-1.5-0.5-2.3
						c-0.3-0.8-0.6-1.7-0.9-2.7c-0.3-0.9-0.8-1.9-1.2-2.9c-0.4-1-1.1-2-1.6-3.1c-0.6-1-1.3-2.1-2.1-3.1c-0.4-0.5-0.8-1-1.2-1.5
						c-0.2-0.3-0.4-0.5-0.6-0.8c-0.2-0.2-0.5-0.5-0.7-0.7c-0.5-0.5-1-1-1.4-1.5c-0.5-0.5-1.1-0.9-1.6-1.4c-0.5-0.5-1.1-0.9-1.7-1.3
						c-0.6-0.4-1.2-0.9-1.8-1.3c-2.5-1.6-5.3-2.8-8.2-3.7c-0.7-0.2-1.5-0.4-2.3-0.6c-0.8-0.2-1.5-0.3-2.2-0.4
						c-0.7-0.1-1.5-0.3-2.3-0.3l-2.4-0.1c-3.1,0.1-6.2,0.5-9.2,1.3c-2.9,0.9-5.8,2.1-8.2,3.7c-0.6,0.4-1.2,0.8-1.8,1.3
						c-0.6,0.4-1.2,0.8-1.7,1.3c-0.5,0.5-1.1,0.9-1.6,1.4c-0.5,0.5-1,1-1.4,1.5c-1,0.9-1.7,2.1-2.6,3.1c-0.7,1.1-1.5,2.1-2.1,3.1
						c-0.6,1.1-1.2,2.1-1.6,3.1c-0.4,1-0.9,2-1.2,2.9c-0.3,0.9-0.6,1.8-0.9,2.7c-0.2,0.8-0.4,1.6-0.5,2.3c-0.1,0.4-0.2,0.7-0.2,1
						c0,0.3-0.1,0.6-0.1,0.9c-0.1,0.6-0.1,1-0.2,1.4C182.7,318.1,182.6,318.5,182.6,318.5z"/>
				</g>
				<line class="st19" x1="75.8" y1="297.5" x2="15.8" y2="247.1"/>
				<line class="st19" x1="356.9" y1="297.5" x2="416.9" y2="247.1"/>
				<path class="st2" d="M129.8,278.9c-12.3,0-30.8,2-39.4,12.8c9.5-7.7,25.1-9.2,35.8-9.2c16.5,0,44.2,3.5,44.2,27.2
					c0,10.8-5.1,22.7-13.4,31.9c10.4-9.4,17-23.2,17-35.5C174,282.4,146.3,278.9,129.8,278.9z"/>
				<path class="st2" d="M302.9,278.9c-12.3,0-30.8,2-39.4,12.8c9.5-7.7,25.1-9.2,35.8-9.2c16.5,0,44.2,3.5,44.2,27.2
					c0,10.8-5.1,22.7-13.4,31.9c10.4-9.4,17-23.2,17-35.5C347.1,282.4,319.4,278.9,302.9,278.9z"/>
			</g>
			<path class="st9" d="M218.3,533v-18.1c0.4,0,0.8-0.1,1.3-0.1c4.9,0,8.1,0.9,10.7,2.1l1.5-5.1c-2.1-1-6.4-2.2-12-2.2
				c-16.2,0-26.1,10.5-26.2,24.9c0,7.5,2.6,14,6.7,18c4.7,4.5,10.7,6.4,18.1,6.4c6.5,0,12-1.6,14.8-2.7V533H218.3z M200.1,534.2
				c0-9.3,4.5-15.7,11.9-18.2v36.7C204.7,550.3,200.1,543.8,200.1,534.2z M227.1,552.4c-1.4,0.7-4.2,1.3-8.3,1.3c-0.2,0-0.3,0-0.5,0
				V538h8.8V552.4z"/>
			<path class="st20" d="M231.5,363.6c1.2,0.1,2.4,0.1,3.5,0.1c-3.2-4.4-7.5-7.1-12.3-7.1c-1.4,0-2.7,0.2-4,0.7
				c3.2,2.6,6.8,5.1,11.2,6.1C230.5,363.4,231,363.5,231.5,363.6z"/>
			<path class="st21" d="M206.6,400C206.6,400,206.6,400,206.6,400C206.6,400,206.6,400,206.6,400z"/>
			<path class="st21" d="M231.5,369c-7.8-0.3-15-0.1-20.6-5.8c-3.4,4.4-5.5,10.7-5.5,17.7c0,5,1.1,9.7,3,13.5
				c6.1-4.4,14.2-6.6,23.2-7.3c2.8-0.2,5.5-0.3,8.2-0.4c0.3-1.9,0.5-3.8,0.5-5.8c0-2.9-0.6-10.2-1.3-12.8
				C236.4,368.5,234.1,369.2,231.5,369z"/>
			<path class="st21" d="M230,363.3c0.5,0.1,1,0.2,1.5,0.3C231,363.5,230.5,363.4,230,363.3z"/>
			<path class="st21" d="M231.5,363.6c1.3,0.1,2.4,0.2,3.6,0.2c0,0,0,0,0,0C233.9,363.7,232.7,363.7,231.5,363.6z"/>
			<path class="st2" d="M230,363.3c-4.4-1-8.1-3.4-11.2-6.1c0,0,0,0,0,0C221.9,359.9,225.6,362.3,230,363.3z"/>
			<path class="st2" d="M203.2,348.5c0,0,0.1-0.1,0.1-0.1C203.3,348.5,203.3,348.5,203.2,348.5z"/>
			<path class="st2" d="M257,360.1c-2.7-0.4-5.5,0.5-8.9,1.5C251.5,360.6,254.3,359.8,257,360.1z"/>
			<path class="st2" d="M203.9,348.1c0.1,0,0.2-0.1,0.2-0.1C204,348,203.9,348.1,203.9,348.1z"/>
			<path class="st2" d="M205.3,347.6c0.1,0,0.1,0,0.2,0C205.4,347.6,205.4,347.6,205.3,347.6z"/>
			<path class="st2" d="M232.4,358c-0.5,0-4.4-2.6-4.9-2.6c-4.6-0.1-9.5,0.1-11.7,2.4c-2.8,1.6-5,4.1-6.6,7.4
				c6.7,4.6,14.4,6.8,22.2,5.6c2.6-0.4,5.1-1,7.4-1.9c-1.5-3.1-3.5-5.8-5.7-7.9C233.7,360.6,233.6,357.8,232.4,358z"/>
			<path class="st22" d="M208.2,394.5c3.1,6.5,8.5,10.8,14.5,10.8c8.2,0,15-7.9,16.9-18.5c-2.6,0.1-5.3,0.2-8.2,0.4
				C222.5,387.9,214.3,390,208.2,394.5z"/>
			<path class="st10" d="M216,354.8c-0.1-0.1-0.1-0.1-0.2-0.2l0,0C215.9,354.7,215.9,354.7,216,354.8z"/>
			<path class="st10" d="M216.2,355C216.2,355,216.3,355,216.2,355C216.3,355,216.2,355,216.2,355z"/>
			<path class="st10" d="M218.8,357.3c-0.9-0.7-1.7-1.5-2.5-2.2C217.1,355.8,217.9,356.5,218.8,357.3
				C218.8,357.3,218.8,357.3,218.8,357.3z"/>
			<path class="st10" d="M216,354.8c0.1,0.1,0.1,0.1,0.2,0.2C216.1,354.9,216.1,354.9,216,354.8z"/>
			<path class="st10" d="M242.6,371.9c-0.8-3.1-2-5.9-3.5-8.4c0,0,0-0.1,0-0.1c-3.9-6.4-9.8-10.5-16.4-10.5c-2.4,0-4.8,0.6-6.9,1.6
				c0.1,0.1,0.1,0.1,0.2,0.2c-0.1-0.1-0.1-0.1-0.2-0.2c-2.8,1.3-5.3,3.3-7.4,5.9c-4.1,5.1-6.7,12.4-6.7,20.4
				c0,5.9,1.4,11.4,3.8,15.9c0.9,1.8,2,3.4,3.2,4.8c0,0,0.1,0.1,0.1,0.1c3.7,4.4,8.6,7.1,14,7.1c4.3,0,8.3-1.7,11.7-4.7
				c0.2-0.1,0.3-0.3,0.5-0.4c4.2-4,7.3-10,8.4-17c0.3-1.9,0.5-3.8,0.5-5.8C243.8,377.8,243.3,374.7,242.6,371.9z M239.6,386.8
				c-1.9,10.6-8.7,18.5-16.9,18.5c-6,0-11.3-4.3-14.5-10.8c-1.9-3.9-3-8.5-3-13.5c0-7,2.1-13.3,5.5-17.7c2.2-2.9,4.9-4.9,7.9-5.9
				c-0.9-0.7-1.7-1.5-2.5-2.2c0.8,0.7,1.6,1.5,2.5,2.2c1.3-0.4,2.6-0.7,4-0.7c4.8,0,9.1,2.7,12.3,7.1c0,0,0,0,0,0
				c1.8,2.5,3.2,5.5,4,8.9c0.7,2.6,1.1,5.4,1.1,8.3C240.2,382.9,240,384.9,239.6,386.8z"/>
		</g>
	</g>
</g>
<g id="DESIGNED_BY_FREEPIK">
</g>
</svg>
