<?xml version="1.0" encoding="utf-8"?>
<!-- Generator: Adobe Illustrator 19.2.1, SVG Export Plug-In . SVG Version: 6.00 Build 0)  -->
<svg version="1.1" xmlns="http://www.w3.org/2000/svg" xmlns:xlink="http://www.w3.org/1999/xlink" x="0px" y="0px"
	 viewBox="0 0 800 800" style="enable-background:new 0 0 800 800;" xml:space="preserve">
<style type="text/css">
	.st0{fill:#2E3C51;}
	.st1{fill:#C6D8DD;}
	.st2{fill:#FFFFFF;}
	.st3{fill:#FFC610;}
	.st4{fill:#F05727;}
</style>
<g id="OBJECTS">
	<g>
		<path class="st0" d="M0,398.9c0,220.3,178.6,398.9,398.9,398.9c220.3,0,398.9-178.6,398.9-398.9C797.7,178.6,619.2,0,398.9,0
			C178.6,0,0,178.6,0,398.9z"/>
		<path class="st1" d="M122.9,185.9c-1.7,15.2-2.6,30.7-2.6,46.4c0,228.7,185.4,414,414,414c45.8,0,89.8-7.5,131-21.2
			c-64,75.6-159.6,123.5-266.4,123.5c-192.8,0-349.1-156.3-349.1-349.1C49.8,319.1,77.1,245,122.9,185.9z"/>
		<path class="st2" d="M120.3,232.3c0-15.7,0.9-31.2,2.6-46.4c63.9-82.3,163.7-135.4,276-135.4c192.8,0,349.1,156.3,349.1,349.1
			c0,86-31.1,164.7-82.7,225.5c-41.2,13.7-85.2,21.2-131,21.2C305.6,646.4,120.3,461,120.3,232.3z"/>
		<g>
			<g>
				<path class="st0" d="M370.9,91.3c0,15.5,12.5,28,28,28c15.4,0,28-12.5,28-28c0-15.4-12.5-28-28-28
					C383.4,63.4,370.9,75.9,370.9,91.3z"/>
				<ellipse class="st0" cx="398.9" cy="707.9" rx="28" ry="28"/>
			</g>
		</g>
		<g>
			<g>
				<ellipse class="st0" cx="90.6" cy="399.6" rx="28" ry="28"/>
				<path class="st0" d="M707.2,427.6c15.4,0,28-12.5,28-28c0-15.4-12.5-28-28-28c-15.5,0-28,12.5-28,28
					C679.2,415.1,691.7,427.6,707.2,427.6z"/>
			</g>
		</g>
		<path class="st3" d="M527.7,140.8c0,9.6,7.8,17.4,17.4,17.4c9.6,0,17.4-7.8,17.4-17.4c0-9.6-7.8-17.4-17.4-17.4
			C535.5,123.5,527.7,131.2,527.7,140.8z"/>
		<path class="st3" d="M639.6,264.3c0,9.6,7.8,17.4,17.4,17.4c9.6,0,17.3-7.8,17.3-17.4c0-9.6-7.8-17.4-17.3-17.4
			C647.4,246.9,639.6,254.7,639.6,264.3z"/>
		<path class="st3" d="M126.5,524.7c0,9.6,7.8,17.4,17.4,17.4c9.6,0,17.4-7.8,17.4-17.4c0-9.6-7.8-17.4-17.4-17.4
			C134.3,507.3,126.5,515.1,126.5,524.7z"/>
		<path class="st3" d="M238.4,648.1c0,9.6,7.8,17.4,17.4,17.4c9.6,0,17.4-7.8,17.4-17.4c0-9.6-7.8-17.4-17.4-17.4
			C246.2,630.7,238.4,638.5,238.4,648.1z"/>
		<ellipse class="st3" cx="649.2" cy="526.6" rx="17.4" ry="17.4"/>
		<path class="st3" d="M525.8,621.1c-9.6,0-17.4,7.8-17.4,17.4c0,9.6,7.8,17.4,17.4,17.4c9.6,0,17.4-7.8,17.4-17.4
			C543.2,628.9,535.4,621.1,525.8,621.1z"/>
		<path class="st3" d="M265.4,108c-9.6,0-17.3,7.8-17.3,17.4c0,9.6,7.8,17.4,17.3,17.4c9.6,0,17.4-7.8,17.4-17.4
			C282.8,115.8,275,108,265.4,108z"/>
		<path class="st3" d="M142,219.9c-9.6,0-17.4,7.8-17.4,17.4c0,9.6,7.8,17.4,17.4,17.4c9.6,0,17.4-7.8,17.4-17.4
			C159.3,227.7,151.6,219.9,142,219.9z"/>
		<path class="st0" d="M260.9,606.2l117.5-194.8c-1.2-2.9-1.9-6.1-1.9-9.4v-1.7c0-13.6,11-24.7,24.7-24.7c13.6,0,24.7,11,24.7,24.7
			v1.7c0,13.6-11,24.7-24.7,24.7c-1.6,0-3.1-0.2-4.6-0.5L280.8,618.1c-3.3,5.5-10.4,7.3-15.9,4C259.4,618.8,257.6,611.7,260.9,606.2
			z"/>
		<path class="st4" d="M361,400.2c0,20.8,16.8,37.6,37.6,37.6c20.8,0,37.6-16.8,37.6-37.6c0-16-10-29.7-24.2-35.1
			c0-0.2,0.1-0.4,0.1-0.6V216.7c0-7.5-6-13.5-13.5-13.5c-7.5,0-13.5,6-13.5,13.5v147.8c0,0.2,0.1,0.4,0.1,0.6
			C371,370.5,361,384.2,361,400.2z M379.3,400.2c0-10.6,8.6-19.3,19.3-19.3c10.7,0,19.3,8.6,19.3,19.3c0,10.6-8.6,19.3-19.3,19.3
			C387.9,419.5,379.3,410.8,379.3,400.2z"/>
	</g>
</g>
<g id="DESIGNED_BY_FREEPIK">
</g>
</svg>
