<?xml version="1.0" encoding="utf-8"?>
<!-- Generator: Adobe Illustrator 19.2.1, SVG Export Plug-In . SVG Version: 6.00 Build 0)  -->
<svg version="1.1" xmlns="http://www.w3.org/2000/svg" xmlns:xlink="http://www.w3.org/1999/xlink" x="0px" y="0px"
	 viewBox="0 0 744.5 800" style="enable-background:new 0 0 744.5 800;" xml:space="preserve">
<style type="text/css">
	.st0{fill:#424142;}
	.st1{fill:#E6E7E7;}
	.st2{fill:#FFFFFF;}
	.st3{fill:#4E4E4F;}
	.st4{fill:#646566;}
	.st5{fill:#1B75BB;}
	.st6{fill:#26A9E0;}
	.st7{fill:#FDE3CB;}
	.st8{fill-rule:evenodd;clip-rule:evenodd;fill:#A30005;}
	.st9{fill-rule:evenodd;clip-rule:evenodd;fill:#C61421;}
	.st10{fill:#FFC610;}
	.st11{fill:#2E0927;}
	.st12{fill:#F8BBA6;}
	.st13{fill:#145588;}
	.st14{fill:#FDDAC0;}
	.st15{fill:#8A674B;}
	.st16{fill:#231F20;}
	.st17{fill:#2E2D62;}
	.st18{fill:#761027;}
	.st19{fill:#F3889A;}
	.st20{fill:none;stroke:#F8BBA6;stroke-width:1.4173;stroke-miterlimit:10;}
	.st21{fill:#3A478F;}
	.st22{fill:none;stroke:#911B1D;stroke-width:4.252;stroke-miterlimit:10;}
	.st23{fill:#911B1D;}
	.st24{fill:none;stroke:#911B1D;stroke-width:4.252;stroke-linecap:round;stroke-miterlimit:10;}
	.st25{fill:#A32E00;}
	.st26{fill:#FBB03B;}
	.st27{fill:#6B0C22;}
	.st28{fill:#FCF6EA;}
	.st29{fill:#333333;}
	.st30{fill:#8DDFE3;}
	.st31{font-family:'OpenSans-Extrabold';}
	.st32{font-size:30.4502px;}
	.st33{font-size:9.3843px;}
</style>
<g id="OBJECTS">
	<g>
		<g>
			<path class="st0" d="M349.2,762.4c-4.4,1.8-10.2,2.9-16.5,2.9c-6.9,0-13.1-1.3-17.6-3.3c-22.9,2.6-32.2,25.4-27.6,30.3
				c6.2,6.7,29.8,9.1,46.6,1c6.4-3.1,17.8-0.6,17.8-7.2v-19.7C351.9,764.6,350.8,763.2,349.2,762.4z"/>
			<path class="st1" d="M297.9,768.9c4.5,1.7,7.6,4.3,10.6,7.4c1.5-1.5,3.2-2.9,4.9-4.3c-3.9-2.3-8-4.2-12.2-5.3
				C300.1,767.3,299,768.1,297.9,768.9z"/>
			<path class="st2" d="M301.2,766.6c4.2,1.1,8.3,3.1,12.2,5.3c1.5-1.2,3-2.3,4.7-3.3c-3.3-2.3-6.7-4.1-10.6-5
				C305.3,764.5,303.1,765.5,301.2,766.6z"/>
			<path class="st3" d="M286.6,786c-0.5,2.8-0.2,5.1,0.9,6.3c6.2,6.7,29.8,9.1,46.6,1c6.4-3.1,17.8-0.6,17.8-7.2v-4
				c-5.2,0.4-14,1.9-24.5,6.6C314.8,794.3,299.3,791.3,286.6,786z"/>
			<path class="st4" d="M286.6,786c7.4,3.1,15.8,5.4,24,5.7c-1.9-9.8-8.4-17.4-16.6-19.2C289.9,776.9,287.4,782,286.6,786z"/>
			<path class="st2" d="M305.2,779.6c1-1.1,2.1-2.3,3.3-3.4c-3-3-6.1-5.6-10.6-7.4c-1.4,1.1-2.7,2.3-3.8,3.5
				C298.4,773.4,302.2,776,305.2,779.6z"/>
			<circle class="st2" cx="339.6" cy="774" r="4.9"/>
			<g>
				<path class="st2" d="M286.7,785.8c0.1-0.3,0.2-0.7,0.3-1.1C286.8,785.1,286.7,785.5,286.7,785.8z"/>
			</g>
			<path class="st1" d="M315.1,762c-2.7,0.3-5.3,0.9-7.6,1.7c3.9,0.9,7.3,2.6,10.6,5c2.1-1.4,4.4-2.7,6.8-3.9
				C321.2,764.2,317.8,763.2,315.1,762z"/>
		</g>
		<g>
			<path class="st5" d="M330.4,767c-10.8,0-25.4,0-25.4-7.2l5.8-147.8c0-7.2,8.7-13,19.5-13l0,0c10.8,0,19.5,5.8,19.5,13l5.8,147.8
				C355.8,767,341.2,767,330.4,767z"/>
		</g>
		<path class="st6" d="M330.4,757.4c-8.9,0-20,0-25.2-2.9l-0.2,5.3c0,7.2,14.6,7.2,25.4,7.2c10.8,0,25.4,0,25.4-7.2l-0.2-5.3
			C350.4,757.4,339.3,757.4,330.4,757.4z"/>
		<g>
			<path class="st0" d="M390.6,762.4c4.4,1.8,10.2,2.9,16.5,2.9c6.9,0,13.1-1.3,17.6-3.3c22.9,2.6,32.2,25.4,27.6,30.3
				c-6.2,6.7-29.8,9.1-46.6,1c-6.4-3.1-17.8-0.6-17.8-7.2v-19.7C387.9,764.6,389,763.2,390.6,762.4z"/>
			<path class="st1" d="M441.8,768.9c-4.5,1.7-7.6,4.3-10.6,7.4c-1.5-1.5-3.2-2.9-4.9-4.3c3.9-2.3,8-4.2,12.2-5.3
				C439.7,767.3,440.8,768.1,441.8,768.9z"/>
			<path class="st2" d="M438.5,766.6c-4.2,1.1-8.3,3.1-12.2,5.3c-1.5-1.2-3.1-2.3-4.7-3.3c3.3-2.3,6.7-4.1,10.6-5
				C434.5,764.5,436.6,765.5,438.5,766.6z"/>
			<path class="st3" d="M453.1,786c0.5,2.8,0.2,5.1-0.9,6.3c-6.2,6.7-29.8,9.1-46.6,1c-6.4-3.1-17.8-0.6-17.8-7.2v-4
				c5.3,0.4,14,1.9,24.5,6.6C425,794.3,440.5,791.3,453.1,786z"/>
			<path class="st4" d="M453.1,786c-7.4,3.1-15.8,5.4-24,5.7c1.9-9.8,8.4-17.4,16.6-19.2C449.9,776.9,452.4,782,453.1,786z"/>
			<path class="st2" d="M434.6,779.6c-1-1.1-2.1-2.3-3.3-3.4c3-3,6.1-5.6,10.6-7.4c1.4,1.1,2.7,2.3,3.8,3.5
				C441.4,773.4,437.5,776,434.6,779.6z"/>
			<circle class="st2" cx="400.2" cy="774" r="4.9"/>
			<g>
				<path class="st2" d="M453.1,785.8c-0.1-0.3-0.2-0.7-0.3-1.1C453,785.1,453,785.5,453.1,785.8z"/>
			</g>
			<path class="st1" d="M424.7,762c2.7,0.3,5.2,0.9,7.6,1.7c-3.9,0.9-7.3,2.6-10.6,5c-2.1-1.4-4.4-2.7-6.8-3.9
				C418.6,764.2,421.9,763.2,424.7,762z"/>
		</g>
		<path class="st5" d="M409.3,767c10.8,0,25.4,0,25.4-7.2L428.9,612c0-7.2-8.7-13-19.5-13l0,0c-10.8,0-19.5,5.8-19.5,13L384,759.8
			C384,767,398.6,767,409.3,767z"/>
		<path class="st6" d="M409.3,757.4c8.9,0,20,0,25.2-2.9l0.2,5.3c0,7.2-14.6,7.2-25.4,7.2c-10.8,0-25.4,0-25.4-7.2l0.2-5.3
			C389.4,757.4,400.5,757.4,409.3,757.4z"/>
		<path class="st7" d="M485.3,543c-24.9,0-51.8-17.9-80.3-53.5c-5-6.2-4-15.3,2.2-20.3c6.2-5,15.3-4,20.3,2.2
			c24.8,30.8,47.1,45.8,62.9,42.1c21.7-5.1,34.8-44.4,37.7-57.8c1.7-7.8,9.4-12.8,17.2-11.1c7.8,1.7,12.8,9.3,11.1,17.1
			c-1.5,7.1-16,69.6-59.2,79.9C493.2,542.6,489.3,543,485.3,543z"/>
		<path class="st7" d="M533.7,440.9c11-4.7,12.9-1.4,20.1,5.8c7.1,7.1,12.9,12.9,5.8,20.1c-7.1,7.1-21.8,10.3-29,3.1
			C523.4,462.7,526.6,448,533.7,440.9z"/>
		<path class="st7" d="M570,446.9c1.1-1.1,2.8-1.1,3.9,0l0,0c1.1,1.1,1.1,2.8,0,3.9L558.8,466c-1.1,1.1-2.8,1.1-3.9,0l0,0
			c-1.1-1.1-1.1-2.8,0-3.9L570,446.9z"/>
		<path class="st7" d="M569.2,435.4c1.1-1.1,2.8-1.1,3.9,0l0,0c1.1,1.1,1.1,2.8,0,3.9L558,454.5c-1.1,1.1-2.8,1.1-3.9,0l0,0
			c-1.1-1.1-1.1-2.8,0-3.9L569.2,435.4z"/>
		<path class="st7" d="M564.9,427.4c1.1-1.1,2.8-1.1,3.9,0l0,0c1.1,1.1,1.1,2.8,0,3.9l-15.1,15.1c-1.1,1.1-2.8,1.1-3.9,0l0,0
			c-1.1-1.1-1.1-2.8,0-3.9L564.9,427.4z"/>
		<path class="st7" d="M555.6,424.4c1.1-1.1,2.8-1.1,3.9,0l0,0c1.1,1.1,1.1,2.8,0,3.9l-15.1,15.1c-1.1,1.1-2.8,1.1-3.9,0l0,0
			c-1.1-1.1-1.1-2.8,0-3.9L555.6,424.4z"/>
		<g>
			<g>
				<path class="st8" d="M592.3,254.7L592.3,254.7l-84.4,171.3l12.4,5.6l133.9,66l0,0c33.1-67.2,57.1-115.9,90.2-183.1l0,0
					l-131-64.5C606.6,246.6,597.1,248.7,592.3,254.7L592.3,254.7z"/>
				<polygon class="st9" points="610.5,248.5 616.3,251.3 616.3,251.3 526.1,434.5 526.1,434.5 520.3,431.7 520.3,431.7 
					610.5,248.5 				"/>
			</g>
		</g>
		<path class="st10" d="M434,555.5c-1.6-24-5.5-60.2-11.2-74.6c-11.4-28.9-30.2-22.8-53-22.8c-22.7,0-41.5-6.1-53,22.8
			c-5.7,14.4-9.6,50.6-11.2,74.6c-5.6,83.6,19.6,78.2,64.1,78.2C414.5,633.7,439.6,639.1,434,555.5z"/>
		<g>
			<path class="st7" d="M253.1,497.9c-2.3,3.2-4.3,6.7-5.8,10.4c-17.1,41.1,25.1,89.4,29.9,94.8c5.4,5.9,14.5,6.4,20.4,1
				c5.9-5.4,6.4-14.5,1-20.4l0,0c-9.1-10.2-33.3-43.8-24.7-64.4c6.2-15,31.4-24.3,70.9-26.2c8-0.4,14.1-7.2,13.7-15.2
				c-0.4-8-7.2-14.1-15.2-13.7C298,466.4,267.7,477.7,253.1,497.9z"/>
			<path class="st7" d="M307.4,597c-2.7,11.6-6.5,11.3-16.5,12.9c-10,1.6-18,2.9-19.6-7.1c-1.6-10,4.5-23.7,14.5-25.3
				C295.8,575.9,305.8,587,307.4,597z"/>
			<path class="st10" d="M371.2,474.3c-0.1,6.4-19.1,21.4-26.1,22.7c-20.7,3.9-38.4,6.8-50.6,11.3c-8.3,3.1-14.1,6.9-16.7,12.3
				c-1.6,3.2-2.1,6.9-2,10.9c0.4,11.8,7.5,25.8,14.8,36l-29.9,21.5c-9.4-13-28.7-45-19.3-76.1c0.8-2.8,1.9-5.6,3.2-8.3
				c1.5-3,3.2-5.9,5.2-8.7c4.1-5.7,9.4-10.7,15.8-15.1c17.6-12.1,43.5-19,77.7-20.7C343.3,460.2,371.3,469.3,371.2,474.3z"/>
			<path class="st11" d="M260.7,589.1l29.9-21.5c-1.1-1.5-2.1-3-3.1-4.6c-10.4,6.8-20.2,14.1-30,21.5
				C258.7,586.2,259.8,587.7,260.7,589.1z"/>
		</g>
		<path class="st10" d="M519.8,471.8c-3.9,11.9-11.2,25.8-20.5,33.1c-3.1,2.4-6.5,4.1-10,4.8c-5.9,1.1-12.4-1.4-19.8-6.3
			c-10.9-7.2-23.6-19.8-38.9-34.3c-5.2-4.9-28.4-11.5-33.7-7.8c-4.1,2.8,5,30.9,5,30.9c21.4,26.7,42.3,43.7,62.3,50.8
			c7.3,2.6,14.4,3.9,21.5,3.9c3.4,0,6.7-0.3,10.1-0.9c3-0.5,5.9-1.3,8.6-2.3c30.7-10.7,45.3-45,50.3-60.3L519.8,471.8z"/>
		<path class="st11" d="M554.7,483.3l-34.9-11.6c-0.6,1.7-1.2,3.5-1.9,5.2c11.7,4.5,23.3,8.1,35,11.7
			C553.6,486.7,554.2,484.9,554.7,483.3z"/>
		<path class="st11" d="M399.1,465c0-2.4-0.6-4.7-1.6-6.8c-8.2-1.2-17.5,0-27.6,0c-10.1,0-19.3-1.2-27.6,0c-1,2.1-1.6,4.4-1.6,6.8
			c0,11.6,13.1,20.9,29.2,20.9C386,485.9,399.1,476.5,399.1,465z"/>
		<path class="st7" d="M390.9,462.8c0,8.2-9.4,14.9-21.1,14.9l0,0c-11.6,0-21.1-6.7-21.1-14.9v-22.6c0-8.2,9.4-14.9,21.1-14.9l0,0
			c11.6,0,21.1,6.7,21.1,14.9V462.8z"/>
		<path class="st12" d="M390.9,440.2c0-8.2-9.4-14.9-21.1-14.9c-11.6,0-21.1,6.7-21.1,14.9v12.1c14.1-0.1,28.2-0.4,42.1-0.6V440.2z"
			/>
		<path class="st7" d="M348.8,452.2v10.5c0,8.2,9.4,14.9,21.1,14.9c11.6,0,21.1-6.7,21.1-14.9v-11.1
			C377,451.9,362.9,452.1,348.8,452.2z"/>
		<path class="st5" d="M365.4,589.4c-21.8,0-42.3-2.9-60.5-8.1c1.1,57.9,25.3,53.6,64.9,53.6c40.2,0,64.6,4.4,64.9-56.4
			C414.6,585.4,390.9,589.4,365.4,589.4z"/>
		<path class="st13" d="M427.3,611.5c1.2,0,2.3-0.1,3.4-0.2c2.6-8,4-18.6,4.1-32.8c-10.5,3.6-22.1,6.4-34.3,8.2
			C401.5,600.6,413.1,611.5,427.3,611.5z"/>
		<path class="st13" d="M339.2,587.9c-12.1-1.4-23.6-3.6-34.2-6.6c0.2,12.8,1.6,22.6,4,30c1.1,0.1,2.3,0.2,3.4,0.2
			C326.2,611.5,337.5,601.2,339.2,587.9z"/>
		<path class="st13" d="M365.2,596.5c25.3,0,48.9-3.6,69.3-9.7c0.1-2.6,0.2-5.4,0.2-8.3c-20.1,6.9-43.9,10.8-69.3,10.8
			c-21.8,0-42.3-2.9-60.5-8.1c0,2.9,0.2,5.6,0.3,8.1C323.5,594,343.8,596.5,365.2,596.5z"/>
		<path class="st7" d="M543.6,293.7c0,80.5-65.2,145.7-145.7,145.7h-56.1c-80.5,0-145.7-65.2-145.7-145.7V183.6
			c0-80.5,65.2-145.7,145.7-145.7h56.1c80.5,0,145.7,65.2,145.7,145.7V293.7z"/>
		<path class="st14" d="M397.9,414.9h-56.1c-80.5,0-145.7-65.2-145.7-145.7v24.5c0,80.5,65.2,145.7,145.7,145.7h56.1
			c80.5,0,145.7-65.2,145.7-145.7v-24.5C543.6,349.7,478.4,414.9,397.9,414.9z"/>
		<g>
			<g>
				<path class="st14" d="M203.7,305.2c0,13.7-11.1,24.8-24.8,24.8l0,0c-13.7,0-24.8-11.1-24.8-24.8V275c0-13.7,11.1-24.8,24.8-24.8
					l0,0c13.7,0,24.8,11.1,24.8,24.8V305.2z"/>
				<path class="st14" d="M585.7,305.2c0,13.7-11.1,24.8-24.8,24.8l0,0c-13.7,0-24.8-11.1-24.8-24.8V275c0-13.7,11.1-24.8,24.8-24.8
					l0,0c13.7,0,24.8,11.1,24.8,24.8V305.2z"/>
				<path class="st7" d="M163.4,315.3v-30.2c0-13.7,10.6-24.8,23.7-24.8c5.6,0,10.7,2,14.7,5.4c-3.7-9.1-12.6-15.5-23-15.5
					c-13.7,0-24.8,11.1-24.8,24.8v30.2c0,8.9,4.7,16.7,11.8,21.1C164.3,323,163.4,319.2,163.4,315.3z"/>
				<path class="st7" d="M560.9,250.2c-10.4,0-19.3,6.4-23,15.5c4.1-3.4,9.2-5.4,14.7-5.4c13.1,0,23.7,11.1,23.7,24.8v30.2
					c0,4-0.9,7.7-2.5,11c7.1-4.4,11.8-12.2,11.8-21.1V275C585.7,261.3,574.6,250.2,560.9,250.2z"/>
				<path class="st12" d="M388.9,331.4c2,4.4-0.3,8.6-5,9.4l-7.7,1.3c-4.7,0.8-8.3-2.5-7.9-7.3l2.7-32.4c0.4-4.8,2.4-5.1,4.4-0.8
					L388.9,331.4z"/>
			</g>
			<g>
				<ellipse class="st2" cx="283.6" cy="313.3" rx="17.6" ry="27.2"/>
				<ellipse class="st15" cx="286.6" cy="313.3" rx="14.6" ry="22.5"/>
				<ellipse class="st16" cx="286.6" cy="313.3" rx="10.1" ry="15.6"/>
				<ellipse class="st2" cx="292.9" cy="304.9" rx="2.9" ry="4.4"/>
				<g>
					<path class="st17" d="M297.5,251.3c0,0-0.3-0.3-0.9-0.9c-0.3-0.3-0.6-0.6-1-0.9c-0.4-0.4-0.8-0.7-1.3-1.1
						c-0.5-0.4-1-0.8-1.6-1.2c-0.6-0.4-1.2-0.7-1.9-1c-0.7-0.3-1.4-0.6-2.1-0.7c-0.7-0.2-1.5-0.3-2.1-0.3c-0.4,0-0.9,0-1.2,0.1
						c-0.3,0-0.7,0.1-1.1,0.2c-0.7,0.2-1.4,0.4-2.1,0.7c-0.7,0.3-1.3,0.7-1.9,1c-0.6,0.4-1.1,0.8-1.6,1.2c-0.5,0.4-0.9,0.8-1.3,1.1
						c-0.4,0.4-0.7,0.7-1,1c-0.5,0.5-0.9,0.9-0.9,0.9s0-0.1,0.1-0.3c0.1-0.2,0.1-0.5,0.3-0.9c0.1-0.4,0.3-0.8,0.6-1.3
						c0.3-0.5,0.6-1,1-1.6c0.4-0.6,0.9-1.2,1.4-1.7c0.6-0.6,1.2-1.1,2-1.6c0.8-0.5,1.6-0.9,2.6-1.2c0.5-0.1,0.9-0.3,1.5-0.3
						c0.6-0.1,1-0.1,1.4-0.1c1.1,0,2,0.2,3,0.4c0.9,0.3,1.8,0.7,2.6,1.2c0.8,0.5,1.4,1.1,2,1.6c0.6,0.6,1.1,1.2,1.4,1.7
						c0.4,0.6,0.7,1.1,1,1.6c0.3,0.5,0.4,0.9,0.6,1.3c0.2,0.4,0.2,0.7,0.3,0.9C297.5,251.2,297.5,251.3,297.5,251.3z"/>
				</g>
			</g>
			<g>
				<ellipse class="st2" cx="456.2" cy="313.3" rx="17.6" ry="27.2"/>
				<path class="st15" d="M467.7,313.3c0,12.4-6.5,22.5-14.6,22.5c-8,0-14.6-10.1-14.6-22.5c0-12.4,6.5-22.5,14.6-22.5
					C461.2,290.8,467.7,300.9,467.7,313.3z"/>
				<ellipse class="st16" cx="453.1" cy="313.3" rx="10.1" ry="15.6"/>
				<ellipse class="st2" cx="459.4" cy="304.9" rx="2.9" ry="4.4"/>
				<g>
					<g>
						<path class="st17" d="M464,251.3c0,0-0.3-0.3-0.9-0.9c-0.3-0.3-0.6-0.6-1-0.9c-0.4-0.4-0.8-0.7-1.3-1.1
							c-0.5-0.4-1-0.8-1.6-1.2c-0.6-0.4-1.2-0.7-1.9-1c-0.7-0.3-1.4-0.6-2.1-0.7c-0.7-0.2-1.5-0.3-2.1-0.3c-0.4,0-0.9,0-1.2,0.1
							c-0.3,0-0.7,0.1-1.1,0.2c-0.7,0.2-1.4,0.4-2.1,0.7c-0.7,0.3-1.3,0.7-1.9,1c-0.6,0.4-1.1,0.8-1.6,1.2c-0.5,0.4-0.9,0.8-1.3,1.1
							c-0.4,0.4-0.7,0.7-1,1c-0.5,0.6-0.9,0.9-0.9,0.9s0-0.1,0.1-0.3c0.1-0.2,0.1-0.5,0.3-0.9c0.1-0.4,0.3-0.8,0.6-1.3
							c0.3-0.5,0.6-1,1-1.6c0.4-0.6,0.9-1.2,1.4-1.7c0.6-0.6,1.2-1.1,2-1.6c0.8-0.5,1.6-0.9,2.6-1.2c0.5-0.1,0.9-0.3,1.5-0.3
							c0.6-0.1,1-0.1,1.4-0.1c1.1,0,2,0.2,3,0.4c0.9,0.3,1.8,0.7,2.6,1.2c0.8,0.5,1.4,1.1,2,1.6c0.6,0.6,1.1,1.1,1.4,1.7
							c0.4,0.6,0.7,1.1,1,1.6c0.3,0.5,0.4,0.9,0.6,1.3c0.2,0.4,0.2,0.7,0.3,0.9C464,251.2,464,251.3,464,251.3z"/>
					</g>
				</g>
			</g>
		</g>
		<g>
			<g>
				<path class="st18" d="M395.7,365c8.6,1.8,2.3,23.2-25.9,33.9c-28.2,7.5-34.5-30.6-25.9-42.2c7.2-13.2,11.8,6.4,25.9,8.5
					C383.9,366.3,388.6,358.4,395.7,365z"/>
				<g>
					<path class="st2" d="M393.9,363.8c-6.1-4.4-11.2,2.7-24,1.5c-12.8-1.9-18-18.4-24-11.2c4.6,10.6,13.5,18.4,24,18.9
						C380.3,373.6,389.3,368.1,393.9,363.8z"/>
				</g>
			</g>
			<path class="st19" d="M369.9,398.9c9.5-2.5,17.1-8.6,22-14.1c-5.1-1-13-1.1-22-0.5c-9,0.7-16.9,3.1-22,8.6
				C352.7,398.6,360.3,401.3,369.9,398.9z"/>
		</g>
		<path class="st20" d="M395.7,365c7.8,4,2.3,23.2-25.9,33.9c-28.2,7.5-34.5-30.6-25.9-42.2c7.2-13.2,11.8,6.4,25.9,8.5
			C383.9,366.3,387.1,360.6,395.7,365z"/>
		<path class="st17" d="M199,305.2c0,0,59.4-63.4,62-124.3c36.8,36.8,286.3,98.1,375.1,4.2c-29.6,2.5-59.2-9.7-62.6-69.4
			c-5.9-103.2-278.8-181.9-343.1-33C165.3,25.2,150,273,199,305.2z"/>
		<ellipse class="st21" cx="377.7" cy="34.2" rx="73.6" ry="20.9"/>
		<path class="st17" d="M543,305.2c0,0-51.7-92.2-54.3-153.1c-1.4-27.9,10.4-61.7,22.8-69.4C576.7,25.2,592.1,273,543,305.2z"/>
		<g>
			<path class="st21" d="M261,152.9c0,0,1.2,0.7,3.4,1.9c2.3,1.2,5.6,2.9,9.9,4.9c4.3,2,9.5,4.4,15.6,7c6.1,2.6,13,5.3,20.6,8.1
				c1.9,0.7,3.9,1.4,5.8,2.1c2,0.7,4,1.4,6.1,2.1c4.1,1.4,8.5,2.8,12.9,4.2c8.9,2.7,18.3,5.4,28.2,7.8c4.9,1.3,9.9,2.3,15,3.5
				c2.5,0.6,5.1,1,7.7,1.5c2.6,0.5,5.2,1.1,7.8,1.5c10.5,1.8,21.1,3.6,31.9,4.7c2.7,0.3,5.4,0.6,8,0.9c2.7,0.2,5.4,0.5,8,0.7
				c2.7,0.2,5.3,0.5,8,0.6c2.7,0.1,5.3,0.3,8,0.4c5.3,0.4,10.6,0.4,15.8,0.6c5.2,0.2,10.4,0.1,15.4,0.1c5.1,0.1,10-0.2,14.9-0.4
				c2.4-0.1,4.9-0.1,7.2-0.3c2.4-0.2,4.7-0.3,7-0.5c4.6-0.3,9.2-0.6,13.5-1.1c4.4-0.4,8.6-0.8,12.6-1.2c4-0.5,7.9-1,11.6-1.5
				c1.8-0.2,3.6-0.5,5.4-0.7c1.7-0.3,3.4-0.6,5-0.8c3.3-0.5,6.3-1,9.1-1.5c1.4-0.2,2.8-0.4,4.1-0.6c1.3-0.3,2.5-0.5,3.7-0.7
				c4.7-0.9,8.3-1.6,10.8-2.1c2.5-0.5,3.8-0.7,3.8-0.7s-1.3,0.4-3.8,1c-2.5,0.7-6.1,1.7-10.7,2.9c-1.2,0.3-2.4,0.6-3.6,1
				c-1.3,0.3-2.6,0.6-4,0.9c-2.8,0.6-5.8,1.3-9.1,2c-1.6,0.4-3.3,0.8-5,1.1c-1.7,0.3-3.5,0.7-5.3,1c-3.7,0.7-7.5,1.4-11.5,2.1
				c-8.1,1.1-16.9,2.6-26.2,3.3c-2.3,0.2-4.7,0.5-7.1,0.7c-2.4,0.2-4.8,0.3-7.3,0.5c-4.9,0.3-9.9,0.7-15.1,0.7
				c-5.1,0.1-10.3,0.3-15.6,0.2c-5.3-0.1-10.6,0-16-0.4c-2.7-0.1-5.4-0.3-8.1-0.4c-2.7-0.1-5.4-0.4-8.1-0.6
				c-2.7-0.2-5.4-0.4-8.2-0.7c-2.7-0.3-5.4-0.6-8.1-0.9c-10.9-1.2-21.7-3-32.2-5c-10.6-2.1-20.9-4.4-30.8-7.1
				c-9.9-2.6-19.3-5.6-28.2-8.6c-8.9-3.1-17.2-6.2-24.7-9.4c-1.9-0.8-3.7-1.6-5.5-2.4c-1.8-0.8-3.6-1.5-5.2-2.3
				c-3.4-1.6-6.6-3.1-9.6-4.5c-6-2.9-11.1-5.7-15.2-8c-4.2-2.3-7.3-4.3-9.5-5.7C262.1,153.7,261,152.9,261,152.9z"/>
		</g>
		<g>
			<path class="st22" d="M338.4,305.7c0,27-24.6,57.4-54.9,57.4s-54.9-30.4-54.9-57.4c0-27,24.6-45.1,54.9-45.1
				S338.4,278.7,338.4,305.7z"/>
			<path class="st22" d="M511.1,305.7c0,27-24.6,57.4-54.9,57.4c-30.3,0-54.9-30.4-54.9-57.4c0-27,24.6-45.1,54.9-45.1
				C486.5,260.6,511.1,278.7,511.1,305.7z"/>
			<g>
				<path class="st23" d="M336.3,318.1c0,0,0-0.4-0.1-1.2c0-0.4,0-0.9-0.1-1.4c0-0.3,0-0.6,0-0.9c0-0.3,0-0.7,0.1-1
					c0.1-0.7,0.1-1.6,0.2-2.5c0.1-0.9,0.3-1.8,0.5-2.9c0.2-1,0.6-2.1,0.9-3.2c0.1-0.6,0.4-1.1,0.6-1.7c0.2-0.6,0.5-1.2,0.7-1.8
					c0.6-1.2,1.2-2.4,1.9-3.6c0.4-0.6,0.8-1.2,1.2-1.8c0.2-0.3,0.4-0.6,0.6-0.9c0.2-0.3,0.5-0.6,0.7-0.9c0.5-0.6,1-1.2,1.5-1.7
					c0.5-0.5,1.1-1.1,1.7-1.7c0.5-0.6,1.2-1.1,1.8-1.6c0.6-0.5,1.2-1,1.9-1.5c2.7-1.9,5.8-3.4,9.1-4.6c3.3-1.1,6.9-1.6,10.4-1.6
					l2.6,0.1c0.8,0,1.7,0.2,2.6,0.3c1.8,0.2,3.5,0.7,5.2,1.2c0.8,0.3,1.6,0.6,2.4,0.9c0.4,0.2,0.8,0.3,1.2,0.5l1.1,0.6
					c0.7,0.4,1.5,0.7,2.2,1.2c0.7,0.5,1.4,0.9,2.1,1.4c2.7,1.9,5,4.1,6.9,6.5c0.2,0.3,0.5,0.6,0.7,0.9c0.2,0.3,0.4,0.6,0.6,0.9
					c0.4,0.6,0.8,1.2,1.2,1.8c0.7,1.2,1.3,2.4,1.9,3.6c0.2,0.6,0.5,1.2,0.7,1.8c0.2,0.6,0.5,1.1,0.6,1.7c0.3,1.1,0.7,2.2,0.9,3.2
					c0.2,1,0.4,2,0.5,2.9c0.1,0.9,0.1,1.7,0.2,2.5c0,0.4,0,0.7,0.1,1c0,0.3,0,0.6,0,0.9c0,0.6,0,1.1-0.1,1.5c0,0.8-0.1,1.2-0.1,1.2
					s-0.1-0.4-0.2-1.2c-0.1-0.4-0.1-0.9-0.2-1.4c0-0.3-0.1-0.6-0.1-0.9c-0.1-0.3-0.2-0.6-0.2-1c-0.2-0.7-0.3-1.5-0.5-2.3
					c-0.3-0.8-0.6-1.7-0.9-2.7c-0.3-0.9-0.8-1.9-1.2-2.9c-0.4-1-1.1-2-1.6-3.1c-0.6-1-1.3-2.1-2.1-3.1c-0.4-0.5-0.8-1-1.2-1.5
					c-0.2-0.3-0.4-0.5-0.6-0.8c-0.2-0.2-0.5-0.5-0.7-0.7c-0.5-0.5-1-1-1.4-1.5c-0.5-0.5-1.1-0.9-1.6-1.4c-0.5-0.5-1.1-0.9-1.7-1.3
					c-0.6-0.4-1.2-0.9-1.8-1.3c-2.5-1.6-5.3-2.8-8.2-3.7c-0.7-0.2-1.5-0.4-2.2-0.6c-0.8-0.2-1.5-0.3-2.2-0.4
					c-0.7-0.1-1.5-0.3-2.3-0.3l-2.4-0.1c-3.1,0.1-6.2,0.5-9.2,1.3c-2.9,0.9-5.7,2.1-8.2,3.7c-0.6,0.4-1.2,0.8-1.8,1.3
					c-0.6,0.4-1.2,0.8-1.7,1.3c-0.5,0.5-1.1,0.9-1.6,1.4c-0.5,0.5-1,1-1.4,1.5c-1,0.9-1.7,2.1-2.6,3c-0.7,1-1.5,2.1-2.1,3.1
					c-0.6,1.1-1.2,2.1-1.6,3.1c-0.4,1-0.9,2-1.2,2.9c-0.3,0.9-0.6,1.8-0.9,2.7c-0.2,0.8-0.4,1.6-0.5,2.3c-0.1,0.4-0.2,0.7-0.2,1
					c0,0.3-0.1,0.6-0.1,0.9c-0.1,0.6-0.1,1-0.2,1.4C336.3,317.7,336.3,318.1,336.3,318.1z"/>
			</g>
			<line class="st24" x1="229.7" y1="297.2" x2="169.8" y2="246.8"/>
			<line class="st24" x1="510.1" y1="297.2" x2="569.9" y2="246.8"/>
			<path class="st2" d="M283.6,278.6c-12.3,0-30.7,2-39.3,12.7c9.5-7.6,25-9.1,35.8-9.1c16.5,0,44.1,3.5,44.1,27.1
				c0,10.8-5.1,22.7-13.4,31.8c10.3-9.4,17-23.1,17-35.4C327.7,282.1,300,278.6,283.6,278.6z"/>
			<path class="st2" d="M456.2,278.6c-12.3,0-30.7,2-39.3,12.7c9.5-7.6,25-9.1,35.8-9.1c16.5,0,44.1,3.5,44.1,27.1
				c0,10.8-5.1,22.7-13.4,31.8c10.3-9.4,17-23.1,17-35.4C500.3,282.1,472.7,278.6,456.2,278.6z"/>
		</g>
		<path class="st11" d="M371.8,532v-18.1c0.4,0,0.8-0.1,1.3-0.1c4.9,0,8.1,0.9,10.6,2.1l1.5-5.1c-2.1-1-6.4-2.2-12-2.2
			c-16.2,0-26,10.5-26.1,24.9c0,7.5,2.6,13.9,6.7,17.9c4.7,4.5,10.7,6.4,18,6.4c6.5,0,12-1.6,14.8-2.6V532H371.8z M353.7,533.2
			c0-9.3,4.5-15.7,11.9-18.2v36.6C358.2,549.3,353.7,542.8,353.7,533.2z M380.6,551.4c-1.4,0.7-4.2,1.3-8.3,1.3c-0.2,0-0.3,0-0.5,0
			V537h8.8V551.4z"/>
		<g>
			
				<rect x="16.5" y="763.3" transform="matrix(1 -1.504136e-003 1.504136e-003 1 -1.1727 0.1903)" class="st25" width="219" height="32.9"/>
			
				<rect x="29.4" y="763.4" transform="matrix(1 -1.504136e-003 1.504136e-003 1 -1.173 5.164937e-002)" class="st26" width="8.6" height="32.9"/>
			
				<rect x="43.8" y="763.4" transform="matrix(1 -1.504136e-003 1.504136e-003 1 -1.1729 7.331742e-002)" class="st26" width="8.6" height="32.9"/>
			
				<rect x="199.4" y="763.2" transform="matrix(1 -1.504136e-003 1.504136e-003 1 -1.1724 0.3138)" class="st26" width="17.3" height="32.9"/>
		</g>
		<g>
			<rect x="3.4" y="734.5" class="st27" width="167.1" height="28.1"/>
			<rect x="155" y="735.1" class="st26" width="7.2" height="28"/>
			<rect x="34" y="735.1" class="st26" width="7.2" height="28"/>
		</g>
		<g>
			<g>
				<path class="st28" d="M720.4,766.1l-125.4-0.2c-7.6,0-15.7,7.9-15.7,15.5l0,2.1c0,7.6,8.1,12.9,15.6,12.9l125.4,0.2
					c0,0-3.4-5.3-3.4-14.5C717,771.4,720.4,766.1,720.4,766.1z"/>
			</g>
			<g>
				<path class="st29" d="M594.8,766.6c0.4,0,0.7,0.2,0.9,0.5c0.3,0.5,1.1,0.5,0.6,0.8c-0.3,0.2-8.1,5.3-8.1,15.1
					c0,8.6,7.1,13.1,7.2,13.1c0.5,0.3,0.7,1,0.3,1.5c-0.3,0.5-1.9-0.2-2.4-0.5c-0.3-0.2-7.2-4.3-7.2-14c0-11.1,7.9-16.1,8.2-16.3
					C594.4,766.7,594.6,766.6,594.8,766.6z"/>
			</g>
			<g>
				<g>
					<path class="st30" d="M593.9,768.5l-73.8-0.1c-7.6,0-16.8,5.8-16.8,13.3l0,2.1c0,7.6,9.2,12.5,16.8,12.5l73.8,0.1
						c0,0-7.7-4-7.7-13.3C586.2,772.5,593.9,768.5,593.9,768.5z"/>
				</g>
				<g>
					<path class="st30" d="M520.2,765.8l203.9,0.3l0,5.1l-203.9-0.3c-6.4,0-11.8,3.8-11.8,10.8l0,2.1c0,6.4,5,10,11.8,10L724,794
						l0,5.1l-203.9-0.3c-8.8,0-16.9-6.7-16.9-15l0-2.1C503.3,772.9,511.9,765.8,520.2,765.8z"/>
				</g>
			</g>
		</g>
		<path class="st7" d="M527.7,434.2c-0.4-1,0.7-2.4,2.5-3l0,0c1.8-0.7,3.5-0.4,3.9,0.6l5.3,14.1c0.4,1-0.7,2.4-2.5,3l0,0
			c-1.8,0.7-3.5,0.4-3.9-0.6L527.7,434.2z"/>
		<text transform="matrix(0.8968 0.4425 -0.4425 0.8968 591.8268 335.7508)" class="st10 st31 st32">SCRUM</text>
		<g>
			<text transform="matrix(0.8977 0.4406 -0.4406 0.8977 611.2444 366.6349)"><tspan x="0" y="0" class="st10 st31 st33">Успевай в</tspan><tspan x="-10.7" y="11.3" class="st10 st31 st33">2 раза больше</tspan></text>
		</g>
	</g>
</g>
<g id="DESIGNED_BY_FREEPIK">
</g>
</svg>
