<?xml version="1.0" encoding="utf-8"?>
<!-- Generator: Adobe Illustrator 19.2.1, SVG Export Plug-In . SVG Version: 6.00 Build 0)  -->
<svg version="1.1" xmlns="http://www.w3.org/2000/svg" xmlns:xlink="http://www.w3.org/1999/xlink" x="0px" y="0px"
	 viewBox="0 0 555.4 800" style="enable-background:new 0 0 555.4 800;" xml:space="preserve">
<style type="text/css">
	.st0{fill:#FDE3CB;}
	.st1{fill:#FFC610;}
	.st2{fill:#2E0927;}
	.st3{fill:#F8BBA6;}
	.st4{fill:#1B75BB;}
	.st5{fill:#145588;}
	.st6{fill:#FDDAC0;}
	.st7{fill:#2E2D62;}
	.st8{fill:#3A478F;}
	.st9{fill:none;stroke:#911B1D;stroke-width:4.252;stroke-miterlimit:10;}
	.st10{fill:#911B1D;}
	.st11{fill:none;stroke:#911B1D;stroke-width:4.252;stroke-linecap:round;stroke-miterlimit:10;}
	.st12{fill:#FFFFFF;}
	.st13{fill:#424142;}
	.st14{fill:#2187CC;}
	.st15{fill:none;stroke:#F9AF9B;stroke-width:2;stroke-miterlimit:10;}
	.st16{fill:#4E4E4F;}
	.st17{fill:#646566;}
	.st18{fill:#E6E7E7;}
</style>
<g id="OBJECTS">
	<path class="st0" d="M114.8,621.4c-4.6,0-9-0.5-13.5-1.6c-49.5-11.8-66-83.2-67.7-91.3c-1.9-8.9,3.8-17.7,12.7-19.6
		c8.9-1.9,17.7,3.8,19.6,12.7l0,0c3.3,15.3,18.3,60.2,43.1,66.1c18.1,4.3,43.6-12.8,71.9-48.1c5.7-7.1,16.1-8.3,23.2-2.6
		c7.1,5.7,8.3,16.1,2.6,23.2C174.1,600.9,143.2,621.4,114.8,621.4z"/>
	<path class="st0" d="M59.5,504.6c-12.6-5.3-14.8-1.6-23,6.6c-8.2,8.2-14.8,14.8-6.6,23c8.2,8.2,25,11.7,33.1,3.6
		C71.2,529.5,67.6,512.7,59.5,504.6z"/>
	<path class="st0" d="M18,511.4c-1.2-1.2-3.2-1.2-4.5,0l0,0c-1.2,1.2-1.2,3.2,0,4.5l17.3,17.3c1.2,1.2,3.2,1.2,4.5,0l0,0
		c1.2-1.2,1.2-3.2,0-4.5L18,511.4z"/>
	<path class="st0" d="M18.9,498.3c-1.2-1.2-3.2-1.2-4.5,0l0,0c-1.2,1.2-1.2,3.2,0,4.5l17.3,17.3c1.2,1.2,3.2,1.2,4.5,0l0,0
		c1.2-1.2,1.2-3.2,0-4.5L18.9,498.3z"/>
	<path class="st0" d="M23.8,489.2c-1.2-1.2-3.2-1.2-4.5,0l0,0c-1.2,1.2-1.2,3.2,0,4.5L36.6,511c1.2,1.2,3.2,1.2,4.5,0l0,0
		c1.2-1.2,1.2-3.2,0-4.5L23.8,489.2z"/>
	<path class="st0" d="M65.4,498c-0.2-4.6-1.2-6.3-4.1-5.6c-2.9,0.8-0.5,6.9-2.1,10.8s-6.3,7-6.3,7c-0.4,1.2,0.9,2.7,2.9,3.5l0,0
		c2,0.8,4,0.4,4.4-0.7C60.2,513,66.1,504.6,65.4,498z"/>
	<path class="st0" d="M378.9,621.4c-28.4,0-59.3-20.5-91.9-61.2c-5.7-7.1-4.6-17.5,2.6-23.2c7.1-5.7,17.5-4.6,23.2,2.6
		c28.3,35.3,53.8,52.4,71.9,48.1c24.8-5.9,39.8-50.8,43.1-66.1c1.9-8.9,10.7-14.6,19.6-12.7c8.9,1.9,14.6,10.7,12.7,19.6
		c-1.7,8.1-18.2,79.6-67.7,91.3C387.9,620.9,383.4,621.4,378.9,621.4z"/>
	<path class="st0" d="M434.2,504.6c12.6-5.3,14.8-1.6,23,6.6c8.2,8.2,14.8,14.8,6.6,23c-8.2,8.2-25,11.7-33.1,3.6
		C422.5,529.5,426,512.7,434.2,504.6z"/>
	<path class="st0" d="M475.7,511.4c1.2-1.2,3.2-1.2,4.5,0l0,0c1.2,1.2,1.2,3.2,0,4.5l-17.3,17.3c-1.2,1.2-3.2,1.2-4.5,0l0,0
		c-1.2-1.2-1.2-3.2,0-4.5L475.7,511.4z"/>
	<path class="st0" d="M474.8,498.3c1.2-1.2,3.2-1.2,4.5,0l0,0c1.2,1.2,1.2,3.2,0,4.5L462,520.1c-1.2,1.2-3.2,1.2-4.5,0l0,0
		c-1.2-1.2-1.2-3.2,0-4.5L474.8,498.3z"/>
	<path class="st0" d="M469.9,489.2c1.2-1.2,3.2-1.2,4.5,0l0,0c1.2,1.2,1.2,3.2,0,4.5L457,511c-1.2,1.2-3.2,1.2-4.5,0l0,0
		c-1.2-1.2-1.2-3.2,0-4.5L469.9,489.2z"/>
	<path class="st1" d="M320.2,636.5c-1.8-27.7-6.3-69.3-12.8-85.9c-13.1-33.3-34.6-26.2-60.6-26.2c-26,0-47.5-7-60.6,26.2
		c-6.5,16.6-11,58.2-12.8,85.9c-6.4,96.2,22.4,90,73.4,90C297.8,726.5,326.6,732.7,320.2,636.5z"/>
	<path class="st1" d="M215.9,527.8c-6.1-4.2-32.6,3.3-38.5,8.9c-17.5,16.6-32,31-44.5,39.3c-8.4,5.6-15.9,8.4-22.6,7.2
		c-4-0.7-7.9-2.7-11.4-5.5c-10.7-8.3-18.9-24.2-23.4-37.9l-40,13.2c5.8,17.4,22.4,56.7,57.5,68.9c3.1,1.1,6.4,2,9.9,2.6
		c3.8,0.7,7.6,1,11.5,1c8.1,0,16.3-1.5,24.6-4.5c22.9-8.2,46.8-27.6,71.3-58.1C210.2,563.1,220.6,531,215.9,527.8z"/>
	<path class="st2" d="M35.4,553.1l40-13.2c0.6,2,1.4,4,2.2,6c-13.3,5.1-26.7,9.3-40,13.3C36.8,557,36,554.9,35.4,553.1z"/>
	<path class="st1" d="M418.2,539.9c-4.5,13.6-12.8,29.5-23.4,37.9c-3.6,2.8-7.4,4.7-11.4,5.5c-6.8,1.2-14.2-1.6-22.6-7.2
		c-12.5-8.3-27-22.7-44.5-39.3c-5.9-5.6-32.5-13.1-38.5-8.9c-4.7,3.2,5.7,35.3,5.7,35.3c24.5,30.5,48.4,49.9,71.3,58.1
		c8.3,3,16.5,4.5,24.6,4.5c3.9,0,7.7-0.3,11.5-1c3.4-0.6,6.7-1.5,9.9-2.6c35.1-12.2,51.8-51.5,57.5-68.9L418.2,539.9z"/>
	<path class="st2" d="M458.2,553.1l-40-13.2c-0.6,2-1.4,4-2.2,6c13.3,5.1,26.7,9.3,40,13.3C456.9,557,457.6,554.9,458.2,553.1z"/>
	<path class="st2" d="M280.2,532.1c0-2.7-0.7-5.4-1.9-7.8c-9.4-1.3-20,0-31.5,0c-11.5,0-22.1-1.4-31.5,0c-1.2,2.5-1.9,5.1-1.9,7.8
		c0,13.2,14.9,23.9,33.4,23.9C265.3,556.1,280.2,545.3,280.2,532.1z"/>
	<path class="st0" d="M270.9,529.6c0,9.4-10.8,17.1-24.1,17.1l0,0c-13.3,0-24.1-7.6-24.1-17.1v-25.8c0-9.4,10.8-17.1,24.1-17.1l0,0
		c13.3,0,24.1,7.6,24.1,17.1V529.6z"/>
	<path class="st3" d="M270.9,503.8c0-9.4-10.8-17.1-24.1-17.1c-13.3,0-24.1,7.6-24.1,17.1v13.8c16.2-0.1,32.2-0.4,48.2-0.7V503.8z"
		/>
	<path class="st0" d="M222.7,517.6v12c0,9.4,10.8,17.1,24.1,17.1c13.3,0,24.1-7.6,24.1-17.1v-12.7
		C254.9,517.2,238.9,517.4,222.7,517.6z"/>
	<path class="st4" d="M241.8,674.4c-24.9,0-48.4-3.4-69.1-9.2c1.2,66.2,28.9,61.3,74.2,61.3c46,0,73.9,5,74.2-64.5
		C298,669.8,270.9,674.4,241.8,674.4z"/>
	<path class="st5" d="M312.5,699.7c1.3,0,2.6-0.1,3.9-0.3c3-9.1,4.6-21.2,4.7-37.5c-12.1,4.1-25.3,7.3-39.3,9.4
		C283.1,687.2,296.3,699.7,312.5,699.7z"/>
	<path class="st5" d="M211.7,672.7c-13.8-1.5-26.9-4.1-39.1-7.6c0.3,14.6,1.8,25.8,4.6,34.3c1.3,0.2,2.6,0.3,3.9,0.3
		C196.9,699.7,209.9,687.9,211.7,672.7z"/>
	<path class="st5" d="M241.5,682.6c28.9,0,55.9-4.1,79.3-11.1c0.2-3,0.2-6.1,0.3-9.5c-23,7.9-50.2,12.4-79.3,12.4
		c-24.9,0-48.4-3.4-69.1-9.2c0.1,3.3,0.2,6.4,0.4,9.3C193.8,679.6,217,682.6,241.5,682.6z"/>
	<path class="st0" d="M445.5,336.2c0,92-74.6,166.6-166.6,166.6h-64.2c-92,0-166.6-74.6-166.6-166.6V210.3
		c0-92,74.6-166.6,166.6-166.6h64.2c92,0,166.6,74.6,166.6,166.6V336.2z"/>
	<path class="st6" d="M278.9,474.8h-64.2c-92,0-166.6-74.6-166.6-166.6v28c0,92,74.6,166.6,166.6,166.6h64.2
		c92,0,166.6-74.6,166.6-166.6v-28C445.5,400.3,370.9,474.8,278.9,474.8z"/>
	<g>
		<path class="st6" d="M56.8,349.4c0,15.7-12.7,28.4-28.4,28.4l0,0C12.7,377.8,0,365.1,0,349.4v-34.6c0-15.7,12.7-28.4,28.4-28.4
			l0,0c15.7,0,28.4,12.7,28.4,28.4V349.4z"/>
		<path class="st6" d="M493.7,349.4c0,15.7-12.7,28.4-28.4,28.4l0,0c-15.7,0-28.4-12.7-28.4-28.4v-34.6c0-15.7,12.7-28.4,28.4-28.4
			l0,0c15.7,0,28.4,12.7,28.4,28.4V349.4z"/>
		<path class="st0" d="M10.7,360.9v-34.6c0-15.7,12.2-28.4,27.2-28.4c6.4,0,12.2,2.3,16.9,6.2c-4.2-10.4-14.4-17.7-26.3-17.7
			C12.7,286.5,0,299.2,0,314.8v34.6c0,10.2,5.4,19.1,13.5,24.1C11.7,369.7,10.7,365.5,10.7,360.9z"/>
		<path class="st0" d="M465.3,286.5c-11.9,0-22.1,7.3-26.3,17.7c4.6-3.8,10.5-6.2,16.9-6.2c15,0,27.2,12.7,27.2,28.4v34.6
			c0,4.5-1,8.8-2.9,12.6c8.1-5,13.5-13.9,13.5-24.1v-34.6C493.7,299.2,480.9,286.5,465.3,286.5z"/>
		<path class="st3" d="M268.6,379.4c2.3,5-0.3,9.8-5.7,10.7l-8.8,1.5c-5.4,0.9-9.5-2.9-9-8.3l3.1-37c0.5-5.5,2.7-5.9,5-0.9
			L268.6,379.4z"/>
	</g>
	<g>
		<ellipse class="st6" cx="148.1" cy="358.7" rx="20.1" ry="31.1"/>
		<g>
			<path class="st7" d="M164.1,287.8c0,0-0.3-0.4-1-1c-0.3-0.3-0.7-0.7-1.1-1.1c-0.2-0.2-0.4-0.4-0.7-0.6c-0.2-0.2-0.5-0.5-0.8-0.7
				c-0.5-0.5-1.2-0.9-1.8-1.4c-0.7-0.4-1.4-0.9-2.2-1.2c-0.8-0.4-1.6-0.7-2.4-0.9c-0.8-0.2-1.8-0.3-2.5-0.3c-0.5,0-1,0-1.4,0.1
				c-0.4,0-0.8,0.1-1.2,0.2c-0.8,0.2-1.6,0.5-2.4,0.9c-0.8,0.4-1.5,0.8-2.2,1.2c-0.6,0.5-1.3,0.9-1.8,1.4c-0.3,0.2-0.5,0.5-0.8,0.7
				c-0.2,0.2-0.5,0.4-0.7,0.6c-0.4,0.4-0.8,0.8-1.1,1.1c-0.6,0.6-1,1-1,1s0-0.1,0.1-0.3c0.1-0.2,0.2-0.6,0.4-1
				c0.2-0.4,0.4-0.9,0.7-1.5c0.3-0.6,0.7-1.2,1.1-1.8c0.5-0.6,1-1.3,1.7-1.9c0.7-0.6,1.4-1.3,2.3-1.8c0.9-0.5,1.8-1,2.9-1.3
				c0.5-0.1,1-0.3,1.6-0.4c0.6-0.1,1.1-0.1,1.6-0.1c1.2,0,2.3,0.2,3.4,0.5c1.1,0.3,2,0.8,2.9,1.3c0.9,0.5,1.6,1.2,2.3,1.8
				c0.7,0.6,1.2,1.3,1.7,1.9c0.5,0.6,0.8,1.2,1.1,1.8c0.3,0.5,0.5,1.1,0.7,1.5c0.2,0.4,0.3,0.7,0.4,1
				C164,287.7,164.1,287.8,164.1,287.8z"/>
		</g>
		<g>
			<path class="st7" d="M162.9,380.7c0,0-0.1,0.1-0.2,0.4c-0.1,0.2-0.3,0.6-0.6,1c-0.5,0.9-1.3,2-2.5,3.3c-0.6,0.6-1.3,1.3-2.1,1.9
				c-0.8,0.6-1.7,1.2-2.7,1.7c-1,0.5-2.1,0.9-3.2,1.2c-1.2,0.3-2.3,0.4-3.5,0.4c-1.1,0-2.4-0.2-3.5-0.4c-1.1-0.3-2.2-0.7-3.2-1.1
				c-1-0.5-1.9-1.1-2.7-1.6c-0.8-0.6-1.5-1.2-2.1-1.9c-1.2-1.2-2-2.4-2.5-3.3c-0.3-0.4-0.4-0.8-0.6-1c-0.1-0.2-0.2-0.4-0.2-0.4
				s0.4,0.4,1.1,1.1c0.3,0.4,0.8,0.8,1.3,1.2c0.5,0.5,1.1,0.9,1.7,1.4c0.6,0.5,1.4,1,2.2,1.5c0.8,0.5,1.7,0.9,2.6,1.3
				c0.9,0.4,1.9,0.6,2.9,0.9c1,0.2,2,0.3,3.1,0.3c1,0,2.1-0.1,3.1-0.3c1-0.2,2-0.5,2.9-0.9c0.9-0.4,1.8-0.8,2.6-1.3
				c0.8-0.5,1.5-1,2.2-1.5c0.6-0.5,1.2-1,1.7-1.4c0.5-0.5,0.9-0.9,1.3-1.2C162.5,381.1,162.9,380.7,162.9,380.7z"/>
		</g>
	</g>
	<g>
		<ellipse class="st6" cx="345.6" cy="358.7" rx="20.1" ry="31.1"/>
		<g>
			<g>
				<path class="st7" d="M354.5,287.8c0,0-0.3-0.4-1-1c-0.3-0.3-0.7-0.7-1.1-1.1c-0.2-0.2-0.4-0.4-0.7-0.6c-0.2-0.2-0.5-0.5-0.8-0.7
					c-0.5-0.5-1.2-0.9-1.8-1.4c-0.7-0.4-1.4-0.9-2.2-1.2c-0.8-0.4-1.6-0.7-2.4-0.9c-0.8-0.2-1.8-0.3-2.5-0.3c-0.5,0-1,0-1.4,0.1
					c-0.4,0-0.8,0.1-1.2,0.2c-0.8,0.2-1.6,0.5-2.4,0.9c-0.8,0.4-1.5,0.8-2.2,1.2c-0.6,0.5-1.3,0.9-1.8,1.4c-0.3,0.2-0.5,0.5-0.8,0.7
					c-0.2,0.2-0.5,0.4-0.7,0.6c-0.4,0.4-0.8,0.8-1.1,1.1c-0.6,0.6-1,1-1,1s0-0.1,0.1-0.3c0.1-0.2,0.2-0.6,0.4-1
					c0.2-0.4,0.4-0.9,0.7-1.5c0.3-0.6,0.7-1.2,1.1-1.8c0.5-0.6,1-1.3,1.7-1.9c0.7-0.6,1.4-1.3,2.3-1.8c0.9-0.5,1.8-1,2.9-1.3
					c0.5-0.1,1-0.3,1.6-0.4c0.6-0.1,1.1-0.1,1.6-0.1c1.2,0,2.3,0.2,3.4,0.5c1.1,0.3,2,0.8,2.9,1.3c0.9,0.5,1.6,1.2,2.3,1.8
					c0.7,0.6,1.2,1.3,1.7,1.9c0.5,0.6,0.8,1.2,1.1,1.8c0.3,0.5,0.5,1.1,0.7,1.5c0.2,0.4,0.3,0.7,0.4,1
					C354.5,287.7,354.5,287.8,354.5,287.8z"/>
			</g>
		</g>
	</g>
	<path class="st7" d="M51.4,349.4c0,0,68-72.5,70.9-142.2c42.1,42.1,327.5,112.2,429,4.8c-33.9,2.9-67.7-11.1-71.6-79.3
		C473,14.7,160.9-75.3,87.4,95C12.9,29.2-4.7,312.6,51.4,349.4z"/>
	<ellipse class="st8" cx="266.2" cy="54.7" rx="84.2" ry="23.9"/>
	<path class="st7" d="M444.8,349.4c0,0-59.2-105.4-62.1-175.1c-1.6-31.9,11.9-70.6,26.1-79.3C483.4,29.2,500.9,312.6,444.8,349.4z"
		/>
	<g>
		<path class="st8" d="M122.3,175.3c0,0,1.3,0.8,3.9,2.1c2.6,1.4,6.4,3.3,11.3,5.7c4.9,2.4,10.9,5.1,17.8,8.1
			c6.9,3,14.9,6.1,23.6,9.4c2.2,0.8,4.4,1.6,6.7,2.4c2.3,0.8,4.6,1.6,7,2.4c4.7,1.7,9.7,3.2,14.7,4.8c2.5,0.8,5.1,1.5,7.7,2.3
			c2.6,0.8,5.3,1.6,8,2.3c2.7,0.7,5.4,1.5,8.2,2.2c2.7,0.7,5.5,1.4,8.4,2.1c5.6,1.5,11.4,2.7,17.2,4c2.9,0.7,5.9,1.2,8.8,1.8
			c3,0.6,5.9,1.2,8.9,1.8c12,2.1,24.2,4.1,36.5,5.4c3.1,0.4,6.1,0.7,9.2,1.1c3.1,0.3,6.1,0.5,9.2,0.8c1.5,0.1,3.1,0.3,4.6,0.4
			c1.5,0.1,3.1,0.3,4.6,0.3c3.1,0.2,6.1,0.3,9.1,0.5c6.1,0.4,12.1,0.5,18.1,0.7c6,0.3,11.9,0.1,17.7,0.1c5.8,0.1,11.5-0.3,17.1-0.4
			c2.8-0.1,5.6-0.2,8.3-0.3c2.7-0.2,5.4-0.4,8.1-0.6c5.3-0.4,10.5-0.7,15.4-1.2c5-0.5,9.8-1,14.4-1.4c4.6-0.6,9-1.2,13.2-1.8
			c2.1-0.3,4.1-0.5,6.1-0.8c2-0.3,3.9-0.6,5.8-1c3.7-0.6,7.2-1.2,10.4-1.7c1.6-0.3,3.2-0.5,4.6-0.8c1.5-0.3,2.9-0.6,4.2-0.8
			c5.3-1.1,9.5-1.9,12.4-2.5c2.9-0.6,4.4-0.9,4.4-0.9s-1.5,0.4-4.3,1.2c-2.8,0.8-6.9,1.9-12.2,3.3c-1.3,0.3-2.7,0.7-4.2,1.1
			c-1.5,0.3-3,0.7-4.6,1c-3.2,0.7-6.7,1.5-10.4,2.3c-1.9,0.4-3.8,0.8-5.7,1.2c-2,0.4-4,0.7-6.1,1.1c-4.2,0.7-8.6,1.5-13.2,2.3
			c-9.3,1.3-19.3,2.9-30,3.7c-2.7,0.3-5.4,0.5-8.1,0.8c-2.7,0.2-5.5,0.4-8.3,0.5c-5.6,0.3-11.4,0.7-17.2,0.8
			c-5.9,0.1-11.8,0.4-17.8,0.2c-6-0.1-12.1-0.1-18.3-0.5c-3.1-0.2-6.2-0.3-9.2-0.5c-1.5-0.1-3.1-0.2-4.6-0.3
			c-1.5-0.1-3.1-0.3-4.6-0.4c-3.1-0.3-6.2-0.5-9.3-0.8c-3.1-0.3-6.2-0.7-9.3-1c-12.4-1.4-24.7-3.5-36.8-5.7c-6-1.2-12-2.4-17.9-3.8
			c-5.9-1.4-11.7-2.7-17.3-4.3c-11.3-2.9-22.1-6.4-32.3-9.8c-10.1-3.5-19.6-7.1-28.3-10.7c-2.2-0.9-4.3-1.8-6.3-2.7
			c-2-0.9-4.1-1.7-6-2.6c-3.9-1.8-7.5-3.5-10.9-5.2c-6.8-3.3-12.7-6.4-17.4-9.1c-4.8-2.6-8.4-4.9-10.9-6.4
			C123.6,176.1,122.3,175.3,122.3,175.3z"/>
	</g>
	<g>
		<path class="st9" d="M210.9,350c0,30.9-28.1,65.7-62.8,65.7S85.4,380.9,85.4,350s28.1-51.6,62.8-51.6S210.9,319,210.9,350z"/>
		<path class="st9" d="M408.3,350c0,30.9-28.1,65.7-62.8,65.7c-34.7,0-62.8-34.8-62.8-65.7s28.1-51.6,62.8-51.6
			C380.2,298.4,408.3,319,408.3,350z"/>
		<g>
			<path class="st10" d="M208.4,364.1c0,0,0-0.5-0.1-1.4c0-0.4,0-1-0.1-1.6c0-0.3,0-0.7,0-1c0-0.4,0.1-0.8,0.1-1.2
				c0.1-0.8,0.1-1.8,0.2-2.8c0.2-1,0.4-2.1,0.6-3.3c0.2-1.2,0.7-2.4,1-3.6c0.2-0.7,0.5-1.3,0.7-1.9c0.3-0.6,0.6-1.3,0.8-2
				c0.3-0.7,0.7-1.3,1-2c0.4-0.7,0.7-1.4,1.1-2.1c0.4-0.7,0.9-1.3,1.4-2c0.2-0.3,0.5-0.7,0.7-1c0.3-0.3,0.5-0.6,0.8-1
				c0.5-0.7,1.1-1.3,1.7-2c0.6-0.6,1.3-1.2,1.9-1.9c0.3-0.3,0.6-0.6,1-0.9c0.4-0.3,0.7-0.6,1.1-0.9c0.7-0.6,1.4-1.2,2.2-1.7
				c0.8-0.5,1.6-1,2.4-1.5c0.8-0.5,1.7-0.9,2.5-1.4l1.3-0.7c0.4-0.2,0.9-0.4,1.4-0.6c0.9-0.3,1.8-0.7,2.8-1
				c3.8-1.2,7.8-1.8,11.8-1.9l3,0.2c0.9,0,2,0.2,3,0.3c2.1,0.2,4,0.8,5.9,1.3c0.9,0.3,1.8,0.7,2.8,1c0.5,0.2,0.9,0.3,1.4,0.6
				l1.3,0.7c0.8,0.5,1.7,0.8,2.5,1.4c0.8,0.5,1.6,1,2.4,1.5c0.8,0.5,1.5,1.1,2.2,1.7c0.4,0.3,0.7,0.6,1.1,0.9c0.4,0.3,0.7,0.6,1,0.9
				c0.6,0.6,1.3,1.3,1.9,1.9c0.6,0.7,1.1,1.3,1.7,2c0.3,0.3,0.5,0.7,0.8,1c0.3,0.3,0.5,0.7,0.7,1c0.5,0.7,0.9,1.4,1.4,2
				c0.4,0.7,0.8,1.4,1.1,2.1c0.4,0.7,0.8,1.3,1,2c0.3,0.7,0.6,1.3,0.8,2c0.3,0.7,0.6,1.3,0.7,1.9c0.4,1.3,0.8,2.5,1,3.6
				c0.2,1.2,0.4,2.3,0.6,3.3c0.1,1,0.2,2,0.2,2.8c0,0.4,0.1,0.8,0.1,1.2c0,0.4,0,0.7,0,1.1c0,0.7,0,1.2-0.1,1.7
				c0,0.9-0.1,1.4-0.1,1.4s-0.1-0.5-0.2-1.4c-0.1-0.4-0.1-1-0.2-1.6c0-0.3-0.1-0.7-0.1-1c-0.1-0.4-0.2-0.7-0.3-1.1
				c-0.2-0.8-0.4-1.7-0.6-2.7c-0.3-0.9-0.6-2-1-3c-0.3-1.1-0.9-2.2-1.4-3.3c-0.5-1.2-1.2-2.3-1.8-3.5c-0.3-0.6-0.8-1.2-1.1-1.8
				c-0.4-0.6-0.8-1.2-1.2-1.8c-0.5-0.6-0.9-1.2-1.4-1.8c-0.2-0.3-0.5-0.6-0.7-0.9c-0.3-0.3-0.5-0.6-0.8-0.8
				c-0.5-0.6-1.1-1.2-1.7-1.7c-0.6-0.5-1.2-1.1-1.8-1.6c-0.6-0.6-1.3-1-2-1.5c-0.7-0.5-1.3-1-2.1-1.5c-2.9-1.9-6.1-3.2-9.5-4.3
				c-0.9-0.2-1.7-0.4-2.6-0.6l-0.6-0.2l-0.6-0.1l-1.3-0.2c-0.9-0.1-1.7-0.3-2.7-0.3l-2.7-0.1c-3.6,0.1-7.2,0.6-10.6,1.5
				c-3.4,1.1-6.6,2.5-9.5,4.3c-0.7,0.4-1.4,1-2.1,1.5c-0.7,0.5-1.4,1-2,1.5c-0.6,0.5-1.2,1.1-1.8,1.6c-0.6,0.6-1.1,1.2-1.7,1.7
				c-0.3,0.3-0.5,0.6-0.8,0.8c-0.3,0.3-0.5,0.6-0.7,0.9c-0.5,0.6-0.9,1.2-1.4,1.8c-0.5,0.6-0.8,1.2-1.2,1.8
				c-0.4,0.6-0.8,1.2-1.1,1.8c-0.6,1.2-1.3,2.4-1.8,3.5c-0.5,1.2-1,2.3-1.4,3.3c-0.3,1.1-0.7,2.1-1,3c-0.2,1-0.4,1.8-0.6,2.6
				c-0.1,0.4-0.2,0.8-0.3,1.1c0,0.4-0.1,0.7-0.1,1c-0.1,0.6-0.2,1.2-0.2,1.6C208.5,363.7,208.4,364.1,208.4,364.1z"/>
		</g>
		<line class="st11" x1="86.5" y1="340.2" x2="18.1" y2="282.6"/>
		<line class="st11" x1="407.2" y1="340.2" x2="475.6" y2="282.6"/>
		<path class="st12" d="M148.1,318.9c-14,0-35.2,2.2-45,14.6C114,324.8,131.7,323,144,323c18.8,0,50.4,4,50.4,31
			c0,12.3-5.9,26-15.3,36.4c11.8-10.7,19.4-26.4,19.4-40.5C198.5,323,167,318.9,148.1,318.9z"/>
		<path class="st12" d="M345.6,318.9c-14,0-35.2,2.2-45,14.6c10.8-8.7,28.6-10.5,40.9-10.5c18.8,0,50.4,4,50.4,31
			c0,12.3-5.9,26-15.3,36.4C388.4,379.7,396,364,396,350C396,323,364.4,318.9,345.6,318.9z"/>
	</g>
	<path class="st4" d="M250.5,715.4c0,0-124.7-34.6-151.3-34.6c-26.6,0-37.2,14.1-36.4,28c0.8,13.9,155.5,61.6,187.6,56.3V715.4z"/>
	<path class="st4" d="M249.9,715.4c0,0,124.7-34.6,151.3-34.6c26.6,0,37.2,14.1,36.4,28c-0.8,13.9-155.5,61.6-187.6,56.3V715.4z"/>
	<path class="st13" d="M291.4,757.1c0,0-12.3,10.3-22.6,4.8c-10.3-5.5-17.8-2.7-17.8,13c0,15.7,0.7,31.5,17.1,22.6
		c16.4-8.9,36.2-18.9,36.2-18.9L291.4,757.1z"/>
	<path class="st13" d="M211.1,757.1c0,0,12.3,10.3,22.6,4.8c10.3-5.5,17.8-2.7,17.8,13c0,15.7-0.7,31.5-17.1,22.6
		c-16.4-8.9-36.2-18.9-36.2-18.9L211.1,757.1z"/>
	<path class="st14" d="M277.7,750c0,0,134.8-66.8,155-57.2c0,0,14,6.9,4.9,28.9c-9.1,22-147.9,73.8-147.9,73.8L277.7,750z"/>
	<path class="st14" d="M222.1,750.7c0,0-134.1-67.5-154.3-57.9c0,0-14,6.9-4.9,28.9c9.1,22,150.3,73.8,150.3,73.8L222.1,750.7z"/>
	<line class="st15" x1="210.9" y1="440.8" x2="291.5" y2="440.8"/>
	<g>
		<path class="st7" d="M360.4,381.1c0,0-0.1,0.1-0.2,0.4c-0.1,0.2-0.3,0.6-0.6,1c-0.5,0.9-1.3,2-2.5,3.3c-0.6,0.6-1.3,1.3-2.1,1.9
			c-0.8,0.6-1.7,1.2-2.7,1.7c-1,0.5-2.1,0.9-3.2,1.2c-1.2,0.3-2.3,0.4-3.5,0.4c-1.1,0-2.4-0.2-3.5-0.4c-1.1-0.3-2.2-0.7-3.2-1.1
			c-1-0.5-1.9-1.1-2.7-1.6c-0.8-0.6-1.5-1.2-2.1-1.9c-1.2-1.2-2-2.4-2.5-3.3c-0.3-0.4-0.4-0.8-0.6-1c-0.1-0.2-0.2-0.4-0.2-0.4
			s0.4,0.4,1.1,1.1c0.3,0.4,0.8,0.8,1.3,1.2c0.5,0.5,1.1,0.9,1.7,1.4c0.6,0.5,1.4,1,2.2,1.5c0.8,0.5,1.7,0.9,2.6,1.3
			c0.9,0.4,1.9,0.6,2.9,0.9c1,0.2,2,0.3,3.1,0.3c1,0,2.1-0.1,3.1-0.3c1-0.2,2-0.5,2.9-0.9c0.9-0.4,1.8-0.8,2.6-1.3
			c0.8-0.5,1.5-1,2.2-1.5c0.6-0.5,1.2-1,1.7-1.4c0.5-0.5,0.9-0.9,1.3-1.2C360,381.6,360.4,381.1,360.4,381.1z"/>
	</g>
	<path class="st16" d="M240.1,759.5c0,0,5.1,8.3,4.7,21c-0.4,12.7-5.4,19.1-5.4,19.1s2.3,1.2,5.5,0c3.2-1.2,6.5-5.3,6.5-19.8
		C251.4,765.3,250.1,758.2,240.1,759.5z"/>
	<path class="st16" d="M262.4,759.5c0,0-5.1,8.3-4.7,21c0.4,12.7,5.4,19.1,5.4,19.1s-2.3,1.2-5.5,0c-3.2-1.2-6.5-5.3-6.5-19.8
		S252.4,758.2,262.4,759.5z"/>
	<path class="st17" d="M240.1,759.5c0,0-3.1,4.8-3.1,19.1c0,14.2,2.4,21,2.4,21S251.4,781.2,240.1,759.5z"/>
	<path class="st12" d="M226.7,766.7c0,0,3.4-1.6,11.8-2.5c0,0-2.5,12.8-0.8,26.3c0,0-7.7,0.7-12.9-4
		C224.8,786.5,223.1,773.1,226.7,766.7z"/>
	<path class="st18" d="M228,788.6c0,0,3.1,1.6,5.3,1.6c0,0-2.5-15.6,2.1-25.6l-6.1,1.3C229.3,765.9,225.2,776.8,228,788.6z"/>
	<path class="st17" d="M262.3,759.6c0,0,3.1,4.8,3.1,19.1c0,14.2-2.4,21-2.4,21S251,781.2,262.3,759.6z"/>
	<path class="st12" d="M275.7,766.8c0,0-3.4-1.6-11.8-2.5c0,0,2.5,12.8,0.8,26.3c0,0,7.7,0.7,12.9-4
		C277.6,786.6,279.3,773.1,275.7,766.8z"/>
	<path class="st18" d="M274.4,788.7c0,0-3.1,1.6-5.3,1.6c0,0,2.5-15.6-2.1-25.6l6.1,1.3C273.1,765.9,277.2,776.9,274.4,788.7z"/>
	<path class="st0" d="M55.7,485.3c0,0-1.8-1.3-4.2,0.5c-2.7,2.1-6.7,5.3-7.8,14.5l0.3,12c0,1.7,1.5,3.1,3.2,3.1
		c1.7,0,3.1-1.5,3.1-3.2c0,0-1.4-16.2,4.1-21.5C58.6,486.7,55.7,485.3,55.7,485.3z"/>
	<path class="st0" d="M429.5,496c0.2-4.6,1.2-6.3,4.1-5.6c2.9,0.8,0.5,6.9,2.1,10.8c1.5,3.9,6.3,7,6.3,7c0.4,1.2-0.9,2.7-2.9,3.5
		l0,0c-2,0.8-4,0.4-4.4-0.7C434.7,511,428.8,502.6,429.5,496z"/>
	<path class="st0" d="M439.2,483.3c0,0,1.8-1.3,4.2,0.5c2.7,2.1,6.7,5.3,7.8,14.5l-0.3,12c0,1.7-1.5,3.1-3.2,3.1
		c-1.7,0-3.1-1.5-3.1-3.2c0,0,1.4-16.2-4.1-21.5C436.3,484.7,439.2,483.3,439.2,483.3z"/>
	<path class="st2" d="M252.5,610.8v-20.7c0.5,0,1-0.1,1.5-0.1c5.6,0,9.2,1.1,12.2,2.4l1.7-5.8c-2.4-1.1-7.4-2.5-13.7-2.5
		c-18.5,0-29.8,12-29.8,28.4c0,8.6,2.9,15.9,7.7,20.5c5.4,5.1,12.3,7.3,20.6,7.3c7.4,0,13.7-1.9,16.9-3v-26.5H252.5z M231.8,612.2
		c0-10.6,5.2-17.9,13.6-20.8v41.9C236.9,630.6,231.8,623.1,231.8,612.2z M262.5,633c-1.6,0.8-4.8,1.5-9.5,1.5c-0.2,0-0.4,0-0.6,0
		v-17.9h10V633z"/>
</g>
<g id="DESIGNED_BY_FREEPIK">
</g>
</svg>
