<?xml version="1.0" encoding="utf-8"?>
<!-- Generator: Adobe Illustrator 19.2.1, SVG Export Plug-In . SVG Version: 6.00 Build 0)  -->
<svg version="1.1" xmlns="http://www.w3.org/2000/svg" xmlns:xlink="http://www.w3.org/1999/xlink" x="0px" y="0px"
	 viewBox="0 0 772.4 800" style="enable-background:new 0 0 772.4 800;" xml:space="preserve">
<style type="text/css">
	.st0{fill:#FDE3CB;}
	.st1{fill:#FCF6EA;}
	.st2{fill:#E8E3D8;}
	.st3{fill:#333333;}
	.st4{fill:#B2E3D1;}
	.st5{fill:#BC8C26;}
	.st6{fill:#005C99;}
	.st7{fill:#9E005D;}
	.st8{fill:#FBB03B;}
	.st9{fill:#09BA6B;}
	.st10{fill:#8DDFE3;}
	.st11{fill:#A32E00;}
	.st12{fill:#EF5518;}
	.st13{fill:#8212B0;}
	.st14{fill:#C1272D;}
	.st15{fill:#00A32C;}
</style>
<g id="OBJECTS">
	<path class="st0" d="M872.7,275.4c-0.4-0.4-1.1-0.4-1.5,0l0,0c-0.4,0.4-0.4,1.1,0,1.5l6,6c0.4,0.4,1.1,0.4,1.5,0l0,0
		c0.4-0.4,0.4-1.1,0-1.5L872.7,275.4z"/>
	<path class="st0" d="M873,270.9c-0.4-0.4-1.1-0.4-1.5,0l0,0c-0.4,0.4-0.4,1.1,0,1.5l6,6c0.4,0.4,1.1,0.4,1.5,0l0,0
		c0.4-0.4,0.4-1.1,0-1.5L873,270.9z"/>
	<path class="st0" d="M874.7,267.7c-0.4-0.4-1.1-0.4-1.5,0l0,0c-0.4,0.4-0.4,1.1,0,1.5l6,6c0.4,0.4,1.1,0.4,1.5,0l0,0
		c0.4-0.4,0.4-1.1,0-1.5L874.7,267.7z"/>
	<g>
		<g>
			<path class="st1" d="M754.2,792.1H225.6c-32.7,0-60.2-28.9-60.2-61.6v-8.9c0-32.7,27.5-57.5,60.2-57.5h528.6c0,0-14.8,21-14.8,61
				C739.4,771,754.2,792.1,754.2,792.1z"/>
		</g>
		<g>
			<path class="st2" d="M760.3,795.1h-330v-128h330c0,0-14.8,21-14.8,61C745.5,774,760.3,795.1,760.3,795.1z"/>
		</g>
		<g>
			<path class="st3" d="M236,793.1c-36.4,0-63.7-26.9-63.7-61.1v-8.9c0-16.9,5.7-32.5,18.3-44c12.3-11.2,27.8-17.3,45-17.3
				c2.5,0,4.1,2,4.1,4.5s-2.3,4.5-4.8,4.5c-31.6,0-56.7,23-56.7,52.3v8.9c0,29.3,24.8,52.2,56.2,52.2c2.5,0,5.2,2,5.2,4.5
				C239.8,791.1,238.5,793.1,236,793.1z"/>
		</g>
		<g>
			<path class="st4" d="M766.4,798.1H224.1c-37,0-68.8-30.4-68.8-67.6v-8.9c0-35.9,31.1-64.5,68.8-64.5h542.2v14H224.1
				c-29.3,0-51.8,23-51.8,50.5v8.9c0,28.4,23.5,54.6,51.8,54.6h542.2V798.1z"/>
		</g>
	</g>
	<g>
		<path class="st1" d="M634.8,274.1H289.3c-24.5,0-44-21.6-44-46.1v-6.7c0-24.5,19.4-41.3,44-41.3h345.5c0,0-11.1,14.8-11.1,44.8
			C623.7,259.2,634.8,274.1,634.8,274.1z"/>
	</g>
	<g>
		<path class="st2" d="M639.5,274.1H444.4v-94h195.1c0,0-11.1,14.8-11.1,44.8C628.3,259.2,639.5,274.1,639.5,274.1z"/>
	</g>
	<g>
		<path class="st3" d="M297.1,274.9c-27.3,0-47.8-20.1-47.8-45.9v-6.7c0-12.6,4.3-24.4,13.8-33c9.2-8.4,20.9-13,33.8-13
			c1.8,0,3.1,1.5,3.1,3.3c0,1.8-1,3.3-2.9,3.3c-23.7,0-41.8,17.2-41.8,39.3v6.7c0,22,17.9,39.2,41.4,39.2c1.8,0,3.5,1.5,3.5,3.3
			C300.3,273.4,299,274.9,297.1,274.9z"/>
	</g>
	<g>
		<path class="st5" d="M642.4,278.1H288.2c-27.8,0-48.9-22.2-48.9-50.1v-6.7c0-27,20.6-47.3,48.9-47.3h354.1v10H288.2
			c-21.9,0-38.9,16.6-38.9,37.3v6.7c0,21.3,17.7,40.1,38.9,40.1h354.1V278.1z"/>
	</g>
	<g>
		<g>
			<path class="st1" d="M703,452.1H364.4c-25.4,0-48-21.3-48-46.6v-6.9c0-25.4,22.6-43.5,48-43.5H703c0,0-11.5,15.2-11.5,46.2
				C691.5,436.8,703,452.1,703,452.1z"/>
		</g>
		<g>
			<path class="st3" d="M369.1,457.5c-27.2,0-49.7-22.9-49.7-51v-6.9c0-27.4,23.1-49.6,51.1-49.6c2.5,0,4.6,2,4.6,4.5
				c0,2.5-1.7,4.5-4.2,4.5c-23.1,0-41.6,18.3-41.6,40.7v6.9c0,23.2,18,42,40.3,42c2.5,0,4.2,2,4.2,4.5
				C373.8,455.5,371.5,457.5,369.1,457.5z"/>
		</g>
		<g>
			<path class="st6" d="M712.4,459.1H363.2c-27.7,0-49.9-25.1-49.9-53.6v-6.9c0-27.5,20.7-50.5,49.9-50.5h349.1v10H363.2
				c-23.5,0-39.9,18.7-39.9,40.5v6.9c0,23.1,17.6,43.6,39.9,43.6h349.1V459.1z"/>
		</g>
	</g>
	<g>
		<path class="st1" d="M259.3,651.1H401c22.6,0,43.3-19.4,43.3-42v-6.1c0-22.6-20.7-39.8-43.3-39.8H259.3c0,0,10.2,14.3,10.2,42
			C269.5,636.8,259.3,651.1,259.3,651.1z"/>
	</g>
	<g>
		<path class="st3" d="M401.9,653.2c-1.1,0-2.1-0.5-2.7-1.5c-0.9-1.5-0.5-3.5,1-4.4c0.9-0.5,21.5-13.8,21.5-43.3
			c0-25.6-21.3-39-21.5-39.2c-1.5-0.9-2-2.9-1-4.4c0.9-1.5,2.9-2,4.4-1c1,0.6,24.5,15.5,24.5,44.6c0,33.1-23.5,48.1-24.5,48.7
			C403.1,653,402.5,653.2,401.9,653.2z"/>
	</g>
	<g>
		<g>
			<path class="st7" d="M404.5,651.1h220.7c22.6,0,44.2-20.7,44.2-43.3v-6.1c0-22.6-21.5-38.5-44.2-38.5H404.5c0,0,23,14.3,23,42
				C427.4,636.8,404.5,651.1,404.5,651.1z"/>
		</g>
		<g>
			<path class="st7" d="M624.9,657.1H252.4v-10h372.6c19.1,0,34.4-18.5,34.4-39.3v-6.1c0-19.2-14-31.5-34.4-31.5H252.4v-10h372.6
				c26.3,0,47.4,16.5,47.4,41.5v6.1C672.4,634.1,649.5,657.1,624.9,657.1z"/>
		</g>
	</g>
	<g>
		<g>
			<path class="st8" d="M506.4,609.1c0-27.7-12.8-49-12.8-49h-24.2c0,0,12.8,21.3,12.8,49c0,31.7-12.8,48-12.8,48h24.2
				C493.6,657.1,506.4,640.8,506.4,609.1z"/>
		</g>
	</g>
	<g>
		<g>
			<path class="st8" d="M621,609.1c0-27.7-12.8-49-12.8-49H584c0,0,12.8,21.3,12.8,49c0,31.7-12.8,48-12.8,48h24.2
				C608.2,657.1,621,640.8,621,609.1z"/>
		</g>
	</g>
	<g>
		<path class="st1" d="M616.8,106.1H473c-15.2,0-28.6-14.7-28.6-30V72c0-15.2,13.4-25.9,28.6-25.9h143.8c0,0-6.9,10-6.9,28.6
			C609.9,96,616.8,106.1,616.8,106.1z"/>
	</g>
	<g>
		<path class="st3" d="M472.4,105.8c0.7,0,1.4-0.4,1.8-1c0.6-1,0.3-2.3-0.7-2.9c-0.6-0.4-14.4-9.3-14.4-29.1
			c0-17.2,14.3-26.3,14.4-26.4c1-0.6,1.3-1.9,0.7-2.9c-0.6-1-2.3-1.1-3.3-0.5c-0.7,0.4-16.1,10.2-16.1,29.8
			c0,22.3,15.8,32.3,16.5,32.8C471.6,105.7,472,105.8,472.4,105.8z"/>
	</g>
	<g>
		<g>
			<path class="st9" d="M470.7,103.1H322.2c-15.2,0-29.8-12.6-29.8-27.8v-4.1c0-15.2,14.6-25.1,29.8-25.1h148.5
				c0,0-15.5,8.5-15.5,27.1C455.2,94.5,470.7,103.1,470.7,103.1z"/>
		</g>
		<g>
			<path class="st9" d="M322.4,106.1h300v-6h-300c-12.8,0-23-10.8-23-24.8v-4.1c0-12.9,9.3-22.1,23-22.1h300v-6h-300
				c-17.7,0-30,11.2-30,28.1v4.1C292.4,93,305.8,106.1,322.4,106.1z"/>
		</g>
	</g>
	<g>
		<path class="st1" d="M348,43.1h165.9c10,0,20.4-10.8,20.4-20.8v-2.7c0-10-10.4-17.5-20.4-17.5H348c0,0,4.5,7.3,4.5,19.6
			C352.5,35.7,348,43.1,348,43.1z"/>
	</g>
	<g>
		<path class="st3" d="M514.3,41.8c-0.5,0-0.9-0.2-1.2-0.7c-0.4-0.7-1.4-0.6-0.7-1c0.4-0.2,10.7-7,10.7-20.1
			c0-11.3-9.4-17.3-9.5-17.3c-0.7-0.4-0.9-1.3-0.5-1.9c0.4-0.7,2.5,0.3,3.2,0.7c0.4,0.3,9.6,5.7,9.6,18.6
			c0,14.7-10.4,21.3-10.8,21.6C514.8,41.7,514.6,41.8,514.3,41.8z"/>
	</g>
	<g>
		<g>
			<path class="st10" d="M515.5,39.1h97.7c10,0,22.2-7.4,22.2-17.4v-2.7c0-10-12.1-16.9-22.2-16.9h-97.7c0,0,10.2,5.3,10.2,17.6
				C525.6,33.7,515.5,39.1,515.5,39.1z"/>
		</g>
		<g>
			<path class="st10" d="M613.1,43.1H343.4v-7h269.7c8.4,0,15.3-5.2,15.3-14.4v-2.7c0-8.5-6.2-12.9-15.3-12.9H343.4v-7h269.7
				c11.6,0,22.3,8.8,22.3,19.9v2.7C635.4,33.3,624,43.1,613.1,43.1z"/>
		</g>
	</g>
	<g>
		<rect x="219.4" y="459.1" class="st11" width="510" height="101"/>
		<rect x="249.4" y="459.1" class="st8" width="20" height="101"/>
		<rect x="282.4" y="459.1" class="st8" width="21" height="101"/>
		<rect x="645.4" y="459.1" class="st8" width="40" height="101"/>
	</g>
	<g>
		
			<rect x="-71.6" y="625.5" transform="matrix(0.2985 -0.9544 0.9544 0.2985 -575.3657 523.5774)" class="st12" width="280.3" height="55.3"/>
		
			<rect x="98.2" y="512.9" transform="matrix(0.2985 -0.9544 0.9544 0.2985 -443.1709 478.1978)" class="st8" width="11.1" height="55.3"/>
		
			<rect x="92.7" y="530.5" transform="matrix(0.2985 -0.9544 0.9544 0.2985 -463.8263 485.2884)" class="st8" width="11.1" height="55.3"/>
	</g>
	<g>
		<rect x="235.4" y="106.1" class="st13" width="471" height="68"/>
		<rect x="662.4" y="106.1" class="st8" width="20" height="68"/>
		<circle class="st8" cx="294.6" cy="140.6" r="17.8"/>
	</g>
	<g>
		<g>
			<path class="st1" d="M219.4,345.1h335.9c21.9,0,43.1-8.1,43.1-29.9v-5.9c0-21.9-21.2-28.1-43.1-28.1H219.4V345.1z"/>
		</g>
		<g>
			<path class="st2" d="M198.6,345.1h221.8v-64H198.6c0,0,5.6,13.3,5.6,32.2C204.2,332.3,198.6,345.1,198.6,345.1z"/>
		</g>
		<g>
			<path class="st14" d="M554.1,348.1H192.4v-6h361.8c25,0,37.2-8.1,37.2-26.9v-5.9c0-16.4-11.1-24.1-37.2-24.1H192.4v-7h361.8
				c18.7,0,44.2,4.4,44.2,31.1v5.9C598.4,330.8,590.1,348.1,554.1,348.1z"/>
		</g>
	</g>
	<g>
		
			<rect x="-57.6" y="549.4" transform="matrix(0.2501 -0.9682 0.9682 0.2501 -448.7725 586.4796)" class="st15" width="423.6" height="67.2"/>
		
			<rect x="99.7" y="725.1" transform="matrix(0.2501 -0.9682 0.9682 0.2501 -653.024 674.3409)" class="st8" width="18.2" height="67.2"/>
		
			<ellipse transform="matrix(0.2501 -0.9682 0.9682 0.2501 -270.377 509.1534)" class="st8" cx="193.5" cy="429.1" rx="16.1" ry="17.8"/>
	</g>
</g>
<g id="DESIGNED_BY_FREEPIK">
</g>
</svg>
