<svg id="OBJECTS" xmlns="http://www.w3.org/2000/svg" viewBox="0 0 367 134"><defs><style>.cls-1{fill:#fcf6ea;}.cls-2{fill:#e8e3d8;}.cls-3{fill:#333;}.cls-4{fill:#b2e3d1;}.cls-5{fill:#005c99;}.cls-6{fill:#9e005d;}.cls-7{fill:#a32e00;}.cls-8{fill:#fbb03b;}.cls-9{fill:#ef5518;}.cls-10{fill:#00a32c;}.cls-11{fill:#8ddfe3;}.cls-12{fill:#8212b0;}</style></defs><title>books_reg</title><path class="cls-1" d="M681.38,995.06h42.2c6.74,0,12.78-5.67,12.78-12.41v-1.83c0-6.74-6-11.75-12.78-11.75h-42.2s3.05,4.15,3.05,12.39C684.43,990.9,681.38,995.06,681.38,995.06Z" transform="translate(-466.36 -904.06)"/><path class="cls-1" d="M829.71,1036.06H672.35c-9.74,0-18-8.52-18-18.26v-2.64c0-9.74,8.26-17.1,18-17.1H829.71s-4.41,6.21-4.41,18.12C825.31,1029.83,829.71,1036.06,829.71,1036.06Z" transform="translate(-466.36 -904.06)"/><path class="cls-2" d="M831.55,1037.06H733.36v-38h98.19s-4.41,6.21-4.41,18.12C827.14,1030.83,831.55,1037.06,831.55,1037.06Z" transform="translate(-466.36 -904.06)"/><path class="cls-3" d="M675.38,1036.44c-10.84,0-19-8-19-18.2v-2.64a17.23,17.23,0,0,1,5.52-13.09,19.72,19.72,0,0,1,13.44-5.15,1.26,1.26,0,0,1,1.25,1.33,1.37,1.37,0,0,1-1.38,1.33c-9.41,0-16.83,6.84-16.83,15.58v2.64c0,8.72,7.34,15.55,16.7,15.55a1.48,1.48,0,0,1,1.49,1.33A1.2,1.2,0,0,1,675.38,1036.44Z" transform="translate(-466.36 -904.06)"/><path class="cls-4" d="M833.36,1038.06H671.91c-11,0-20.55-9.19-20.55-20.26v-2.64c0-10.7,9.33-19.1,20.55-19.1H833.36v4H671.91a15.34,15.34,0,0,0-15.55,15.1v2.64c0,8.45,7.14,16.26,15.55,16.26H833.36v4Z" transform="translate(-466.36 -904.06)"/><path class="cls-1" d="M814.48,935.06H713.66c-7.55,0-14.3-6.47-14.3-14V919c0-7.55,6.75-12.93,14.3-12.93H814.48s-3.42,4.58-3.42,13.82C811.06,930.46,814.48,935.06,814.48,935.06Z" transform="translate(-466.36 -904.06)"/><path class="cls-3" d="M715.11,936.55a15,15,0,0,1-14.75-15.17v-2.05a15,15,0,0,1,15.18-14.77,1.35,1.35,0,0,1,1.36,1.33,1.22,1.22,0,0,1-1.2,1.33,12.19,12.19,0,0,0-12.34,12.11v2.05c0,6.9,5.29,12.52,11.93,12.52a1.26,1.26,0,0,1,1.24,1.33A1.4,1.4,0,0,1,715.11,936.55Z" transform="translate(-466.36 -904.06)"/><path class="cls-5" d="M817.36,937.06h-104c-8.26,0-15-7.53-15-16V919a14.71,14.71,0,0,1,15-14.93h104v3h-104a11.76,11.76,0,0,0-12,11.93V921c0,6.88,5.32,13,12,13h104v3Z" transform="translate(-466.36 -904.06)"/><path class="cls-6" d="M725.6,994.06h65.71c6.74,0,13.05-6.05,13.05-12.79v-1.83c0-6.74-6.31-11.38-13.05-11.38H725.6s6.84,4.15,6.84,12.39A16.18,16.18,0,0,1,725.6,994.06Z" transform="translate(-466.36 -904.06)"/><path class="cls-6" d="M791.23,996.06H680.36v-3H791.23c5.68,0,10.13-5.59,10.13-11.79v-1.83c0-5.71-4.06-9.38-10.13-9.38H680.36v-3H791.23c7.83,0,14.13,4.91,14.13,12.38v1.83C805.36,989.11,798.56,996.06,791.23,996.06Z" transform="translate(-466.36 -904.06)"/><rect class="cls-7" x="204" y="33" width="152" height="30"/><rect class="cls-8" x="213" y="33" width="6" height="30"/><rect class="cls-8" x="223" y="33" width="6" height="30"/><rect class="cls-8" x="331" y="33" width="12" height="30"/><rect class="cls-9" x="583.87" y="986.56" width="83.43" height="16.47" transform="translate(-976.97 390.82) rotate(-72.63)"/><rect class="cls-8" x="634.42" y="953.04" width="3.29" height="16.47" transform="translate(-937.61 377.31) rotate(-72.63)"/><rect class="cls-8" x="632.78" y="958.27" width="3.29" height="16.47" transform="translate(-943.76 379.43) rotate(-72.63)"/><rect class="cls-10" x="588.04" y="963.88" width="126.12" height="20" transform="translate(-921.03 456.68) rotate(-75.52)"/><rect class="cls-8" x="634.88" y="1016.21" width="5.4" height="20" transform="translate(-981.83 482.84) rotate(-75.52)"/><ellipse class="cls-8" cx="662.8" cy="928.09" rx="4.78" ry="5.31" transform="translate(-867.92 433.66) rotate(-75.52)"/><path class="cls-1" d="M559.94,1011.11l-49.4-.07c-3,0-6.17,3.11-6.18,6.09v0.81c0,3,3.18,5.09,6.16,5.1l49.4,0.07a11.2,11.2,0,0,1-1.34-5.73A12.26,12.26,0,0,1,559.94,1011.11Z" transform="translate(-466.36 -904.06)"/><path class="cls-3" d="M510.42,1011.32a0.42,0.42,0,0,1,.36.2c0.12,0.2.42,0.19,0.22,0.31a7.43,7.43,0,0,0-3.19,6,6.47,6.47,0,0,0,2.82,5.17,0.42,0.42,0,0,1,.14.58,1.11,1.11,0,0,1-.95-0.21,6.39,6.39,0,0,1-2.85-5.54,7.63,7.63,0,0,1,3.24-6.41A0.42,0.42,0,0,1,510.42,1011.32Z" transform="translate(-466.36 -904.06)"/><path class="cls-11" d="M510.08,1012l-29.1,0c-3,0-6.62,2.27-6.63,5.26v0.81c0,3,3.63,4.93,6.61,4.93l29.1,0a6.09,6.09,0,0,1-3-5.23A6.47,6.47,0,0,1,510.08,1012Z" transform="translate(-466.36 -904.06)"/><path class="cls-11" d="M481,1011l80.35,0.11v2L481,1013c-2.51,0-4.65,1.51-4.66,4.26v0.81c0,2.53,2,3.92,4.65,3.93l80.35,0.11v2L481,1024c-3.47,0-6.65-2.62-6.64-5.93v-0.81C474.37,1013.79,477.78,1011,481,1011Z" transform="translate(-466.36 -904.06)"/><rect class="cls-12" y="120" width="89" height="13"/><rect class="cls-8" x="80" y="120" width="4" height="13"/><circle class="cls-8" cx="11.1" cy="126.42" r="3.36"/></svg>