<svg xmlns="http://www.w3.org/2000/svg" xmlns:xlink="http://www.w3.org/1999/xlink" viewBox="0 0 196.05 196.05"><defs><style>.cls-1{isolation:isolate;}.cls-2{fill:#ca9b2c;}.cls-3{opacity:0.37;mix-blend-mode:multiply;fill:url(#linear-gradient);}.cls-4{fill:#f0efee;}</style><linearGradient id="linear-gradient" x1="-284.25" y1="371.34" x2="-523.63" y2="146.72" gradientUnits="userSpaceOnUse"><stop offset="0" stop-color="#fff"/><stop offset="0.09" stop-color="#f8f8f8"/><stop offset="0.22" stop-color="#e4e4e4"/><stop offset="0.37" stop-color="#c4c4c4"/><stop offset="0.54" stop-color="#979797"/><stop offset="0.73" stop-color="#5d5d5d"/><stop offset="0.94" stop-color="#181818"/><stop offset="1"/></linearGradient></defs><title>icons_team1</title><g class="cls-1"><g id="Layer_1" data-name="Layer 1"><g id="_Group_" data-name="&lt;Group&gt;"><path id="_Path_" data-name="&lt;Path&gt;" class="cls-2" d="M-378.16,163.55a98,98,0,0,0-98,98,98,98,0,0,0,87,97.4c3,0.33,6.09.51,9.18,0.57,0.6,0,1.2.06,1.8,0.06,2.13,0,4.23-.09,6.33-0.23a97.82,97.82,0,0,0,13.2-1.76,98.08,98.08,0,0,0,65.52-47.35,97.48,97.48,0,0,0,9-21.06c0.92-3.18,1.71-6.41,2.32-9.71,0.51-2.72.93-5.48,1.2-8.28,0.31-3.17.47-6.39,0.47-9.64A98,98,0,0,0-378.16,163.55Z" transform="translate(476.18 -163.55)"/><path id="_Path_2" data-name="&lt;Path&gt;" class="cls-3" d="M-293.11,310.27l-53.53-53.53L-359,258.3l-38.91-38.91-6.18,19.45-24.17,26.42,29,29-14.44,8.28,55.06,55.06A98.08,98.08,0,0,0-293.11,310.27Z" transform="translate(476.18 -163.55)"/><path id="_Path_3" data-name="&lt;Path&gt;" class="cls-4" d="M-336.93,280.7c2.71-11.75-5-18.17-5-18.17-9.7-16.6-30.06-10.73-30.06-10.73-19.54,5.74-24.05.41-24.05,0.41-3.07-4.1-4.44-4-6-5.19-4.27-3.31,1.57-8.27,1.57-8.27,2.53-2.26,3.08-10.11,3.08-10.11,1.09-12.44-1.91-9.36-1.91-9.36-0.29.15-.58,0.31-0.86,0.49h0c-1.29-3.61-3.27-2.08-3.27-2.08-7,6.61-6.56,19.68-6.56,19.68,0,0.5-.21,2-0.38,3.16-0.14.82-.2,1.3-0.2,1.3-16,6.56-20.23,19.34-20.23,19.34s-0.17.39-.17,0.39,0.73,3.44,5.1,4.87h0a31.44,31.44,0,0,0,5.86,0,10.44,10.44,0,0,1,4.37,1.71l2.46,3.35,1.16-.41-0.82,1.3,0.89-.13-0.07,1.78,1-.34,0.34,3.55,0.89-1.71,0.48,3.55,0.82-1.84,0.75,4.17,1-2.32,0.41,2.25,1.1-1.4,1.22,1.6,0.62-2.25,0.33,0.6c0.76,2.5,1.35,5.33.9,7.17-1,4,.15.34,0.15,0.34s-1.73,7.24-3.3,9.09l-1.78.82s-6.22-1.71-6.63,5.26c0,0,2.87,1.64,8.75.82,0,0,4.1-.27,5.67-2.87,0,0,5.5-10.19,8.38-15.94A69.36,69.36,0,0,0-370.36,294c0.37,1,.42,1.79-0.13,2.2l-10.66-.51h-0.2s-3.45-1.68-4.66-1.49a8.84,8.84,0,0,0-4.46,3.18,3.56,3.56,0,0,0-.56,2,5.64,5.64,0,0,0,2.51,2.66,12.25,12.25,0,0,0,4.25.25c0.74-.08,2.92-0.51,2.92-0.51s2.06-.27,5-0.6c0,0,13.42,1.31,15.43-1h0l0.06-.07a0.92,0.92,0,0,0,.19-0.61c0.08-.7-0.11-2-1.44-4.26,1,0.05,2.07.07,3.12,0A25.74,25.74,0,0,0-351.7,294c2.56,1.91,10.55,6.94,13.55-2.27C-335.28,282.92-332.12,286.79-336.93,280.7Z" transform="translate(476.18 -163.55)"/></g></g></g></svg>