<svg xmlns="http://www.w3.org/2000/svg" xmlns:xlink="http://www.w3.org/1999/xlink" viewBox="0 0 196.05 196.05"><defs><style>.cls-1{isolation:isolate;}.cls-2{fill:#cca443;}.cls-3{opacity:0.37;mix-blend-mode:multiply;fill:url(#linear-gradient);}.cls-4{fill:#f0efee;}</style><linearGradient id="linear-gradient" x1="-37.6" y1="947.9" x2="-226.17" y2="746.64" gradientUnits="userSpaceOnUse"><stop offset="0" stop-color="#fff"/><stop offset="0.09" stop-color="#f8f8f8"/><stop offset="0.22" stop-color="#e4e4e4"/><stop offset="0.37" stop-color="#c4c4c4"/><stop offset="0.54" stop-color="#979797"/><stop offset="0.73" stop-color="#5d5d5d"/><stop offset="0.94" stop-color="#181818"/><stop offset="1"/></linearGradient></defs><title>icons_team4</title><g class="cls-1"><g id="Layer_1" data-name="Layer 1"><g id="_Group_" data-name="&lt;Group&gt;"><path id="_Path_" data-name="&lt;Path&gt;" class="cls-2" d="M-132.65,743.93a98,98,0,0,0-98,98,98,98,0,0,0,87,97.39,99.52,99.52,0,0,0,11,.62c2.13,0,4.23-.09,6.31-0.22a97.8,97.8,0,0,0,17.4-2.71,98.17,98.17,0,0,0,68.15-60.91,97.29,97.29,0,0,0,4.5-16.26q0.77-4.09,1.19-8.28c0.31-3.17.47-6.39,0.47-9.64A98,98,0,0,0-132.65,743.93Z" transform="translate(230.68 -743.93)"/><path id="_Path_2" data-name="&lt;Path&gt;" class="cls-3" d="M-40.79,876.14l-42.56-42.56-36.12,16.68-48.05-48.06,2.75,7.67-7.3-7.3v3.78l6.33,7.09,2.43,5.23-20.17,6.73,32.2,32.2,2.53,22.3-2.8,8.24-3.07,3.21L-108.94,937A98.17,98.17,0,0,0-40.79,876.14Z" transform="translate(230.68 -743.93)"/><g id="_Group_2" data-name="&lt;Group&gt;"><path id="_Path_3" data-name="&lt;Path&gt;" class="cls-4" d="M-140.19,890.6l-0.28,0A0.39,0.39,0,0,0-140.19,890.6Z" transform="translate(230.68 -743.93)"/><path id="_Path_4" data-name="&lt;Path&gt;" class="cls-4" d="M-172.19,802.66a0.43,0.43,0,0,0-.14.18,3,3,0,0,1,.26-0.27Z" transform="translate(230.68 -743.93)"/><path id="_Path_5" data-name="&lt;Path&gt;" class="cls-4" d="M-183.09,825.81a2.7,2.7,0,0,1-.39-0.4C-183.32,825.63-182.94,826.12-183.09,825.81Z" transform="translate(230.68 -743.93)"/><path id="_Path_6" data-name="&lt;Path&gt;" class="cls-4" d="M-146.67,872.88v0S-146.46,872.65-146.67,872.88Z" transform="translate(230.68 -743.93)"/><path id="_Path_7" data-name="&lt;Path&gt;" class="cls-4" d="M-183.48,825.41l-0.06-.09Z" transform="translate(230.68 -743.93)"/><path id="_Path_8" data-name="&lt;Path&gt;" class="cls-4" d="M-78.81,840.93c-3.51-10.93-11.5-9.6-11.5-9.6h0c-1.7-1.49-4.67-3.27-9.84-4.74,0,0-4.45-2.07-20.18,3l-0.18.06s-8.62.61-12.41-2.58c-1.35-1.13-5-1.94-6.79-1.86,0,0-17.59-14.59-25.48-16.9l-2.35-6.11-0.87,4.58h-1.51s-2.83-3-2.43-3.94c-0.59.69-1.63,2.49,0.37,5,0,0-2.21,3.36-4.21,3.6,0,0-.21,1.79-0.24,2.16s-6.8,6.53-6.8,6.53c0,0.19-1.4,3-.32,4.84a8.67,8.67,0,0,1,.44.8c0.66,0.55,2.06,1.26,4.46.39,0,0,.55-1.6,3-1.44l3.77-.71s4.7,1.39,6.76-1.12c0,0,8.2,10.69,7.36,15.81,0,0,.06,14.51,4.28,16.62a20.56,20.56,0,0,0,1.07,7.7,20,20,0,0,1,1.51,8.68s0.43,2.17.71,3.64c0,0,.47,8.29-0.66,10.18,0,0-2.5,4.5-3.65,5.56s-0.14.25-.14,0.25,2.25,2.23,6.38-.15c0,0-2.14-3.93.3-4.65,0,0,1.64-.9.85-2.34,0,0-.42-9.45.08-10.89a0.51,0.51,0,0,1,.07-0.14l0.27-.31,1.35-12.63s2.78,5.38,2.84,7.37c0,0,.36,4.57,1.94,6.47,0,0,5,10.36,1.33,13,0,0-2.32,2.12-1.42,2.94a1.05,1.05,0,0,1,.44.53c1,0.15,4.7.51,4.83-1.51,0,0-2.33-2,.31-4.71,0,0-3-8.81-2.26-13.11,0,0-1.93-8.69-.82-12.75,4.94-.3,11.32-0.9,15.14-2.12a32.62,32.62,0,0,0,8-2.38c3.2-1.62,8.08-4,11.75,1.65,0,0,3.68,4.47,3.45,7.92a5.27,5.27,0,0,0,.57,2.46,39.35,39.35,0,0,1,.43,6.55c-0.26,2.56-.93,11.32-6.15,14.48,0,0-3.47,2.45-.53,2.3s3.95,1.83,4.71.31-1.51-2.81,1.17-4.81a3.61,3.61,0,0,0,1.34-1.71A56.64,56.64,0,0,1-95.18,873a6.46,6.46,0,0,1,.59,2.28c0.18,3.92.87,8.92,0,10.38,0,0-4.15,4.78-4,6.55,0,0,4.26,1,5.81.39a1.74,1.74,0,0,0,.11-0.19c1.38-2.75-2.47-1.67.32-4.9l0.78-1.34s1.88-11.32,1.1-12,0.75-1.84.75-1.84-4.36-11.45-1.92-14c0,0,10.67-9.61,5.59-20.63,2.88,2.19,2.72,9.79,1.54,13.37-1.53,4.63.86,12.93,0.86,12.93,0.42,3.62,1.3-.72,1.3-0.72C-78.83,858.92-75.3,851.86-78.81,840.93Z" transform="translate(230.68 -743.93)"/></g></g></g></g></svg>