<svg xmlns="http://www.w3.org/2000/svg" xmlns:xlink="http://www.w3.org/1999/xlink" viewBox="0 0 196.07 196.03"><defs><style>.cls-1{isolation:isolate;}.cls-2{fill:#30606b;}.cls-3{opacity:0.37;mix-blend-mode:multiply;fill:url(#linear-gradient);}.cls-4{fill:#fff;}</style><linearGradient id="linear-gradient" x1="-319.08" y1="753.83" x2="-504.33" y2="573.59" gradientUnits="userSpaceOnUse"><stop offset="0" stop-color="#fff"/><stop offset="0.09" stop-color="#f8f8f8"/><stop offset="0.22" stop-color="#e4e4e4"/><stop offset="0.37" stop-color="#c4c4c4"/><stop offset="0.54" stop-color="#979797"/><stop offset="0.73" stop-color="#5d5d5d"/><stop offset="0.94" stop-color="#181818"/><stop offset="1"/></linearGradient></defs><title>icons_team3</title><g class="cls-1"><g id="Layer_1" data-name="Layer 1"><g id="_Group_" data-name="&lt;Group&gt;"><path id="_Path_" data-name="&lt;Path&gt;" class="cls-2" d="M-429.17,544.18a98,98,0,0,0-98,98,98,98,0,0,0,87,97.39c1.8,0.22,3.6.35,5.44,0.47s3.68,0.15,5.55.15c0.83,0,1.63-.06,2.45-0.07,1.3,0,2.59-.06,3.87-0.14,1.48-.1,2.92-0.3,4.37-0.46l2.26-.24c0.4,0,.81-0.07,1.21-0.13h0.12a97.81,97.81,0,0,0,72-51.06c0.27-.49.6-1,0.85-1.44a99,99,0,0,0,5.73-13.5c0.41-1.2.85-2.38,1.2-3.62,0.63-2.17,1.17-4.38,1.66-6.62,0.08-.38.18-0.75,0.25-1.13,0.11-.56.27-1.1,0.38-1.66,0.5-2.73.89-5.48,1.18-8.28,0.31-3.17.48-6.38,0.48-9.65A98,98,0,0,0-429.17,544.18Z" transform="translate(527.2 -544.18)"/><path id="_Path_2" data-name="&lt;Path&gt;" class="cls-3" d="M-414.78,738.57a97.81,97.81,0,0,0,72-51.06c0.27-.49.6-1,0.85-1.44a99,99,0,0,0,5.73-13.5c0.41-1.2.85-2.38,1.2-3.62,0.63-2.17,1.17-4.38,1.66-6.62l-59.1-59.1-11.27-4.84-6.59,29.38-47.43,25.48-8.55,3.29-24,8.17,74.14,74c0.4,0,.81-0.07,1.21-0.13h0.12Z" transform="translate(527.2 -544.18)"/><path id="_Compound_Path_" data-name="&lt;Compound Path&gt;" class="cls-4" d="M-400.83,610c1.53-8,9.63-3,9.63-3,0-3.54-5.32-6.6-5.32-6.6-3.43-6.78-6.51-5.69-9.19-5.54-11.52.63-11,17.59-11,17.59,0.14,17.65-13.81,21-13.81,21-18,12.58-27.63,13.24-27.63,13.24-29.33,1.26-27.74,5.15-27.74,5.15,0.11,1.53,13.24,4.6,13.24,4.6l-18.06,8.26c0.82,3.34,14.12-1.21,14.12-1.21,16.63-7.06,30-.49,30-0.49,2.79,1,6.58,2.11,9.67,3s5.38,1.53,5.38,1.53c-2,4.27,2,9.36,2,9.36,1.81,0.66,3.78,5.09,3.78,5.09,0.82,2.63-4.54,1.1-4.54,1.1-3.23-1-3,1.48-3,1.48,0.6-.87,2.13-0.66,2.13-0.66v0.82c0.44,1.53,5.58-.38,5.58-0.38,1,2,3.66,1.25,3.66,1.25A10.78,10.78,0,0,0-416,687c0.22-.88,1.81.27,1.81,0.27a1.14,1.14,0,0,0-1.12-1.37h5.93c0.28-1.18,1.45-.82,2-0.55a2.85,2.85,0,0,1,.33.17,1.35,1.35,0,0,0-.33-1c-0.78-.8-2.68.06-2.68,0.06l-7.44-.5a1.73,1.73,0,0,0,1.31-1.48,24.92,24.92,0,0,1-4.65.66c-1.2-.27-2.41-4.27-2.41-4.27a6.1,6.1,0,0,1-.71-0.66,14.42,14.42,0,0,0,2.56-.68c0.77,1.5,2.71.93,2.71,0.93a8,8,0,0,0,4.33,1.05c0.16-.65,1.34.2,1.34,0.2a0.84,0.84,0,0,0-.83-1h4.39c0.21-.87,1.07-0.61,1.5-0.41v-0.61c-0.58-.6-2,0-2,0l-5.51-.36a1.29,1.29,0,0,0,1-1.1,18.49,18.49,0,0,1-3.44.49c-0.89-.2-1.78-3.16-1.78-3.16-3.07-2.47-1.26-6.82-.13-8.89,21.28-5.09,25-16.82,25-16.82,3.94-6.45-1.75-24.84-1.75-24.84C-401.92,611.42-400.83,610-400.83,610Zm-24.1,66.78-0.1,0a8.59,8.59,0,0,1-.08-5.69,9.75,9.75,0,0,0,.75,1.14c1.34,0.49,2.8,3.77,2.8,3.77C-421,677.92-424.93,676.78-424.93,676.78Z" transform="translate(527.2 -544.18)"/></g></g></g></svg>