<?xml version="1.0" encoding="utf-8"?>
<!-- Generator: Adobe Illustrator 19.2.1, SVG Export Plug-In . SVG Version: 6.00 Build 0)  -->
<svg version="1.1" xmlns="http://www.w3.org/2000/svg" xmlns:xlink="http://www.w3.org/1999/xlink" x="0px" y="0px"
	 viewBox="0 0 527.9 577.2" style="enable-background:new 0 0 527.9 577.2;" xml:space="preserve">
<style type="text/css">
	.st0{fill:#D9D7D7;}
</style>
<g id="Layer_1">
</g>
<g id="Layer_5">
	<g>
		<path class="st0" d="M443.8,197.3h49.3c13.5,0,25.1,4.8,34.8,14.5c9.7,9.7,14.5,21.3,14.5,34.8v295.9c0,13.5-4.8,25.1-14.5,34.8
			c-9.7,9.7-21.3,14.5-34.8,14.5H49.3c-13.5,0-25.1-4.8-34.8-14.5C4.8,567.5,0,555.9,0,542.4V246.6c0-13.5,4.8-25.1,14.5-34.8
			c9.7-9.7,21.3-14.5,34.8-14.5h49.3V98.6c0-27,9.7-50.1,29.1-69.5S170.3,0,197.3,0h147.9c27,0,50.1,9.7,69.5,29.1
			c19.4,19.4,29.1,42.6,29.1,69.5V197.3z M197.3,197.3h147.9v-74c0-6.9-2.4-12.7-7.2-17.5c-4.8-4.8-10.6-7.1-17.5-7.1h-98.6
			c-6.9,0-12.7,2.4-17.5,7.1c-4.8,4.8-7.2,10.6-7.2,17.5V197.3z"/>
	</g>
</g>
<g id="Layer_4">
</g>
<g id="Layer_2">
</g>
<g id="Layer_3">
</g>
<g id="Layer_6">
</g>
</svg>
