<?xml version="1.0" encoding="utf-8"?>
<!-- Generator: Adobe Illustrator 19.2.1, SVG Export Plug-In . SVG Version: 6.00 Build 0)  -->
<svg version="1.1" xmlns="http://www.w3.org/2000/svg" xmlns:xlink="http://www.w3.org/1999/xlink" x="0px" y="0px"
	 viewBox="0 0 591.8 591.8" style="enable-background:new 0 0 591.8 591.8;" xml:space="preserve">
<style type="text/css">
	.st0{fill:#D9D7D7;}
</style>
<g id="Layer_1">
</g>
<g id="Layer_5">
	<g>
		<path class="st0" d="M591.8,521.2v70.5H0v-70.5l197.3-126.7v-49.3c-12.2,0-23.4-12.2-33.8-36.7c-10.4-24.5-15.5-45.1-15.5-61.9
			v-98.6c0-40.8,14.5-75.6,43.4-104.5C220.3,14.5,255.1,0,295.9,0c40.8,0,75.6,14.5,104.5,43.4c28.9,28.9,43.4,63.8,43.4,104.5v98.6
			c0,16.8-5.2,37.4-15.5,61.9c-10.4,24.5-21.6,36.7-33.8,36.7v49.3L591.8,521.2z"/>
	</g>
</g>
<g id="Layer_4">
</g>
<g id="Layer_2">
</g>
<g id="Layer_3">
</g>
<g id="Layer_6">
</g>
</svg>
