<svg xmlns="http://www.w3.org/2000/svg" xmlns:xlink="http://www.w3.org/1999/xlink" viewBox="0 0 196.05 196.06"><defs><style>.cls-1{isolation:isolate;}.cls-2{fill:#409185;}.cls-3{opacity:0.37;mix-blend-mode:multiply;fill:url(#linear-gradient);}.cls-4{fill:#f0efee;}</style><linearGradient id="linear-gradient" x1="-328.67" y1="1282.45" x2="-496.66" y2="1123" gradientUnits="userSpaceOnUse"><stop offset="0" stop-color="#fff"/><stop offset="0.09" stop-color="#f8f8f8"/><stop offset="0.22" stop-color="#e4e4e4"/><stop offset="0.37" stop-color="#c4c4c4"/><stop offset="0.54" stop-color="#979797"/><stop offset="0.73" stop-color="#5d5d5d"/><stop offset="0.94" stop-color="#181818"/><stop offset="1"/></linearGradient></defs><title>icons_team5</title><g class="cls-1"><g id="Layer_1" data-name="Layer 1"><g id="_Group_" data-name="&lt;Group&gt;"><path id="_Path_" data-name="&lt;Path&gt;" class="cls-2" d="M-448.58,1063a98,98,0,0,0-98,98,98,98,0,0,0,87,97.4c3,0.34,6.07.51,9.17,0.58,0.62,0,1.21.05,1.82,0.05,1.84,0,3.65-.1,5.46-0.2l0.85,0a98,98,0,0,0,13.81-1.89,98.11,98.11,0,0,0,73.11-65.77c0.27-.84.54-1.67,0.79-2.52,0.09-.28.14-0.57,0.22-0.84,0.83-2.91,1.55-5.86,2.12-8.86q0.75-4.08,1.18-8.28c0.31-3.17.48-6.39,0.48-9.65A98,98,0,0,0-448.58,1063Z" transform="translate(546.6 -1063.01)"/><path id="_Path_2" data-name="&lt;Path&gt;" class="cls-3" d="M-355.34,1191.18l-64.32-64.32-25.19,10.7,8.79,29.79L-468.16,1180l-30.18-2-7.45,1.68,77.33,77.32A98.11,98.11,0,0,0-355.34,1191.18Z" transform="translate(546.6 -1063.01)"/><path id="_Path_3" data-name="&lt;Path&gt;" class="cls-4" d="M-409.64,1145.39c-8.13-7.88-8.7-13.55-8.7-13.55,0.9-7.06-7.14-7.71-7.14-7.71-13.74-2.81-18.75,5.86-20.43,10.5h0c-1,2.41-.86,3.35-0.86,3.35l0,0.15h0c-0.83,9.57,3.89,19.33,3.89,19.33-7.22-1.32-18,3-18,3l2.21-.16c-0.33.82-12,5.66-12,5.66-1.48,1.48-8.46,3.61-8.46,3.61l1.24,0.17-5.17,2.62c2.46-.82,1.23.91,1.23,0.91-3.45.74-12.64,2.63-12.64,2.63h2.79a20.29,20.29,0,0,1-8.78.74l-3-1.48,0.49,2.39-1.56-1.65,0.74,2.38-2.05-.49,1.47,1.06-1.47.74,1.56,0.16c2.55-1.07,13.05,8.46,13.05,8.46,9.28,9.11,9.36,9.6,9.36,9.6,3.86,3.45,5,.91,16.09,4.77,4.73,1.65,7.81,1.72,9.79,1.27,0.18,0.32.36,0.67,0.55,1-0.14,2,1.52,4.67,2.16,5.64a1.18,1.18,0,0,0-.16.58,1.68,1.68,0,0,0,1.84,1.44h0.13a16.34,16.34,0,0,0,9.12,2.77h0a17.47,17.47,0,0,0,4.86,0s-1.92-2.18,5-2.39c0,0,1.44-.58-0.27-0.75,0,0-6.81-.59-3.56-2.23,0,0-.43-1-11.76-0.42a0.93,0.93,0,0,1-1-1s0.16-1.7-2-3.72a11.39,11.39,0,0,1-1.35-3.24l1.52-.5a14.1,14.1,0,0,0,1.54,3,1,1,0,0,0-.13.5,1.42,1.42,0,0,0,1.56,1.22h0.11a13.91,13.91,0,0,0,7.75,2.36h0a14.94,14.94,0,0,0,4.13,0s-1.62-1.85,4.25-2c0,0,1.22-.49-0.23-0.63,0,0-5.79-.49-3-1.89,0,0-.36-0.81-10-0.37a0.79,0.79,0,0,1-.86-0.81,4,4,0,0,0-1.21-2.68c14.84-5.28,20.68-9.15,20.68-9.15,13.71-8.13,11.16-20.61,11.16-20.61-1.72-13-11.74-20-11.74-20a15.85,15.85,0,0,1-4.6-5.91c-1.32-6.57,6.4-3.2,6.4-3.2,0.82-.33,6.65,3.94,6.65,3.94a17.51,17.51,0,0,0,8.7,3.86C-407.51,1147-409.64,1145.39-409.64,1145.39Z" transform="translate(546.6 -1063.01)"/></g></g></g></svg>