<svg xmlns="http://www.w3.org/2000/svg" xmlns:xlink="http://www.w3.org/1999/xlink" viewBox="0 0 196.05 196.05"><defs><style>.cls-1{isolation:isolate;}.cls-2{fill:#059b8d;}.cls-3{opacity:0.37;mix-blend-mode:multiply;fill:url(#linear-gradient);}.cls-4{fill:#f0efee;}</style><linearGradient id="linear-gradient" x1="-475.78" y1="548.07" x2="-630.8" y2="388.04" gradientUnits="userSpaceOnUse"><stop offset="0" stop-color="#fff"/><stop offset="0.09" stop-color="#f8f8f8"/><stop offset="0.22" stop-color="#e4e4e4"/><stop offset="0.37" stop-color="#c4c4c4"/><stop offset="0.54" stop-color="#979797"/><stop offset="0.73" stop-color="#5d5d5d"/><stop offset="0.94" stop-color="#181818"/><stop offset="1"/></linearGradient></defs><title>icons_team2</title><g class="cls-1"><g id="Layer_1" data-name="Layer 1"><g id="_Group_" data-name="&lt;Group&gt;"><path id="_Path_" data-name="&lt;Path&gt;" class="cls-2" d="M-564.67,348.13a98,98,0,0,0-98,98,98,98,0,0,0,87,97.4c3,0.33,6.09.51,9.17,0.57,0.61,0,1.21,0,1.81,0,2.12,0,4.23-.09,6.32-0.23,1.24-.08,2.45-0.25,3.68-0.38a97.57,97.57,0,0,0,11.83-2,98,98,0,0,0,68.17-56.77,97,97,0,0,0,4-11c0.46-1.57.76-3.2,1.16-4.81s0.85-3.23,1.17-4.9c0.5-2.72.92-5.48,1.19-8.28,0.31-3.17.47-6.39,0.47-9.65A98,98,0,0,0-564.67,348.13Z" transform="translate(662.69 -348.13)"/><path id="_Path_2" data-name="&lt;Path&gt;" class="cls-3" d="M-474.67,484.8l-48.21-48.21-6.73,3.62-9,5.29h-11.35l-44.34-44.34h-13.38l-8.7,12.43,7.38,16.08,19.25,16.61-1.05,17.4-4.52,8.7v16.74l52.45,52.45A98,98,0,0,0-474.67,484.8Z" transform="translate(662.69 -348.13)"/><path id="_Path_3" data-name="&lt;Path&gt;" class="cls-4" d="M-522.28,437.71c0.55-1.31-3.47-2.19-3.47-2.19-2.45-2.47-7.15-2.65-7.15-2.65l-2.28-3.82-0.66,5.42-3.74-4.78s-1.15,7.72-1.3,12.22-10.55,2.64-10.55,2.64c-16.46-10-40.65-6.76-40.65-6.76-6.69-3.48-10.74-6.83-13.22-10.07h0c-0.38-.54-0.74-1.06-1.09-1.57-9.51-14.21-3.85-19.93-1.27-21.63a2.88,2.88,0,0,1,1.07-.59h0c2.76-.83,6.82,2.08,8.71,2.48,7.79,1.63,4.9-4.35,3.6-5.26-8.33-5.84-12.66-4.31-15.88-1.95-16.94,12.44-4.09,29,2.16,35.26,1.85,1.84,8,6.68,8,6.68-4.33,11.26,1.36,24.15,1.36,24.15-1.28,11.49.15,18.4,2.65,21.76,0.42,1.23.66,2.06,0.66,2.06a1.62,1.62,0,0,0,1.54,1.14,1,1,0,0,0,.58.08,10.47,10.47,0,0,0,1.4,0h0c1.43,0.28,2.8,1.44,3.05.15a2.42,2.42,0,0,0,0-.47l0.45-.08c0.61-2.86-3-3.08-3-3.08-1.54-.85-2.58-11-2.58-11a21.87,21.87,0,0,0,10.67-11.67c0.77,0.1,10,.44,10,0.44,12.38,4.86-.45,13.31,3.89,18,2.27,2.43,4.08,2.45,5.29,1.91,1.1,0.32,2,.78,2.17-0.26a2.47,2.47,0,0,0-1.9-2.61c-2.16-3.64,1.91-10.32,1.91-10.32,2.07-4.07,5.56-2.07,5.56-2.07,4.14,8.59,11.82,16.87,15.61,20.67h0s-0.85,3.81,7.46,2.8c0.95-1.61.78-2.3,0.21-2.53h0c-0.92-1.74-4.37-4.92-5.34-4.3-0.88-1.6-2.15-4-3.32-6.17a14.37,14.37,0,0,1-.15-9.16h0a16.51,16.51,0,0,0,1.85-6.19c8-18.87,14.43-19.85,14.43-19.85C-519.24,443.39-522.83,439-522.28,437.71Z" transform="translate(662.69 -348.13)"/></g></g></g></svg>