<svg xmlns="http://www.w3.org/2000/svg" xmlns:xlink="http://www.w3.org/1999/xlink" viewBox="0 0 280.52 273.07"><defs><style>.cls-1,.cls-15,.cls-17,.cls-33{fill:none;}.cls-2{isolation:isolate;}.cls-28,.cls-3{fill:#ffc610;}.cls-4{fill:#2e0927;}.cls-5{fill:#fde3cb;}.cls-6{fill:#f8bba6;}.cls-7{fill:#1b75bb;}.cls-8{fill:#145588;}.cls-9{fill:#fddac0;}.cls-10{fill:#fff;}.cls-11{fill:#8a674b;}.cls-12{fill:#231f20;}.cls-13{fill:#2e2d62;}.cls-14{fill:#3a478f;}.cls-15,.cls-17{stroke:#911b1d;stroke-width:4.25px;}.cls-15,.cls-17,.cls-33{stroke-miterlimit:10;}.cls-16{fill:#911b1d;}.cls-17{stroke-linecap:round;}.cls-18{fill:#424142;}.cls-19{fill:#2187cc;}.cls-20{fill:#4e4e4f;}.cls-21{fill:#646566;}.cls-22{fill:#e6e7e7;}.cls-23{clip-path:url(#clip-path);}.cls-24{fill:#e4e0d0;}.cls-25{clip-path:url(#clip-path-2);}.cls-26{fill:#876b73;}.cls-27{fill:#a30005;}.cls-28{font-size:3.81px;font-family:Open Sans;font-weight:700;}.cls-29{fill:#a1b0ae;}.cls-30,.cls-32{fill:#df0031;}.cls-31{fill:#542c37;}.cls-32{opacity:0.7;mix-blend-mode:multiply;}.cls-33{stroke:#f9af9b;stroke-width:2px;}.cls-34{fill:#a32e00;}.cls-35{fill:#fbb03b;}.cls-36{fill:#6b0c22;}</style><clipPath id="clip-path" transform="translate(-20.51 -764.95)"><path id="SVGID" class="cls-1" d="M195.38,989.52s-0.88-.74.34-2.23S212.89,977,212.89,977A3,3,0,0,0,214,978.1a3.59,3.59,0,0,0,1.28.27Z"/></clipPath><clipPath id="clip-path-2" transform="translate(-20.51 -764.95)"><path id="SVGID-2" data-name="SVGID" class="cls-1" d="M194.74,989.52s0.88-.74-0.34-2.23S177.24,977,177.24,977a3,3,0,0,1-1.08,1.08,3.59,3.59,0,0,1-1.28.27Z"/></clipPath></defs><title>ignat_reg</title><g class="cls-2"><g id="OBJECTS"><path class="cls-3" d="M222.11,984c-0.63-9.53-2.16-23.87-4.41-29.6-4.5-11.46-11.91-9-20.87-9s-16.37-2.41-20.87,9c-2.25,5.72-3.78,20.07-4.41,29.6-2.19,33.15,7.71,31,25.28,31S224.3,1017.17,222.11,984Z" transform="translate(-20.51 -764.95)"/><path class="cls-4" d="M207.61,948.05a6.18,6.18,0,0,0-.64-2.69c-3.24-.46-6.9,0-10.86,0s-7.62-.47-10.86,0a6.17,6.17,0,0,0-.64,2.69c0,4.56,5.15,8.25,11.5,8.25S207.61,952.61,207.61,948.05Z" transform="translate(-20.51 -764.95)"/><path class="cls-5" d="M187.81,943v4.14c0,3.25,3.72,5.88,8.3,5.88s8.3-2.63,8.3-5.88v-4.39C198.91,942.91,193.38,943,187.81,943Z" transform="translate(-20.51 -764.95)"/><path class="cls-5" d="M204.41,947.19c0,3.25-3.72,5.88-8.3,5.88h0c-4.59,0-8.3-2.63-8.3-5.88v-8.89c0-3.25,3.72-5.88,8.3-5.88h0c4.58,0,8.3,2.63,8.3,5.88v8.89Z" transform="translate(-20.51 -764.95)"/><path class="cls-6" d="M204.41,938.29c0-3.25-3.72-5.88-8.3-5.88s-8.3,2.63-8.3,5.88V943c5.57,0,11.1-.14,16.6-0.25v-4.5Z" transform="translate(-20.51 -764.95)"/><path class="cls-7" d="M194.37,997.08a87.57,87.57,0,0,1-23.82-3.19c0.42,22.82,10,21.14,25.57,21.14,15.84,0,25.45,1.73,25.58-22.22A85.44,85.44,0,0,1,194.37,997.08Z" transform="translate(-20.51 -764.95)"/><path class="cls-8" d="M218.73,1005.81a10.65,10.65,0,0,0,1.35-.09,43.34,43.34,0,0,0,1.6-12.91A78.57,78.57,0,0,1,208.15,996,10.62,10.62,0,0,0,218.73,1005.81Z" transform="translate(-20.51 -764.95)"/><path class="cls-8" d="M184,996.49a83.13,83.13,0,0,1-13.48-2.61,41.45,41.45,0,0,0,1.58,11.82A10.54,10.54,0,0,0,184,996.49Z" transform="translate(-20.51 -764.95)"/><path class="cls-8" d="M194.28,999.91a95.16,95.16,0,0,0,27.32-3.84c0.05-1,.09-2.11.09-3.27a85.44,85.44,0,0,1-27.32,4.27,87.57,87.57,0,0,1-23.82-3.19c0,1.13.07,2.19,0.13,3.21A97.5,97.5,0,0,0,194.28,999.91Z" transform="translate(-20.51 -764.95)"/><rect class="cls-5" x="107.13" y="14.82" width="136.93" height="158.19" rx="57.41" ry="57.41"/><path class="cls-9" d="M207.17,928.32H185.05a57.41,57.41,0,0,1-57.41-57.41v9.64A57.41,57.41,0,0,0,185.05,938h22.11a57.41,57.41,0,0,0,57.41-57.41v-9.64A57.41,57.41,0,0,1,207.17,928.32Z" transform="translate(-20.51 -764.95)"/><path class="cls-9" d="M130.62,885.1a9.78,9.78,0,0,1-9.78,9.78h0a9.78,9.78,0,0,1-9.78-9.78V873.19a9.78,9.78,0,0,1,9.78-9.78h0a9.78,9.78,0,0,1,9.78,9.78V885.1Z" transform="translate(-20.51 -764.95)"/><path class="cls-9" d="M281.16,885.1a9.78,9.78,0,0,1-9.78,9.78h0a9.78,9.78,0,0,1-9.78-9.78V873.19a9.78,9.78,0,0,1,9.78-9.78h0a9.78,9.78,0,0,1,9.78,9.78V885.1Z" transform="translate(-20.51 -764.95)"/><path class="cls-5" d="M114.73,889.07V877.16a9.58,9.58,0,0,1,9.36-9.78,9.06,9.06,0,0,1,5.81,2.12,9.78,9.78,0,0,0-18.84,3.69V885.1a9.76,9.76,0,0,0,4.65,8.32A10.09,10.09,0,0,1,114.73,889.07Z" transform="translate(-20.51 -764.95)"/><path class="cls-5" d="M271.38,863.41a9.78,9.78,0,0,0-9.06,6.09,9.06,9.06,0,0,1,5.81-2.12,9.58,9.58,0,0,1,9.36,9.78v11.91a10.08,10.08,0,0,1-1,4.34,9.77,9.77,0,0,0,4.65-8.32V873.19A9.78,9.78,0,0,0,271.38,863.41Z" transform="translate(-20.51 -764.95)"/><path class="cls-6" d="M203.62,895.43a2.5,2.5,0,0,1-2,3.69l-3,.5a2.56,2.56,0,0,1-3.11-2.87L196.55,884c0.16-1.89.93-2,1.71-.3Z" transform="translate(-20.51 -764.95)"/><ellipse class="cls-10" cx="141.58" cy="123.35" rx="6.94" ry="10.73"/><ellipse class="cls-11" cx="142.79" cy="123.35" rx="5.73" ry="8.87"/><ellipse class="cls-12" cx="142.79" cy="123.35" rx="3.98" ry="6.16"/><path class="cls-13" d="M167.59,863.87s-0.19-.09-0.48-0.25-0.68-.37-1.12-0.58a8.55,8.55,0,0,0-1.37-.55,5.29,5.29,0,0,0-.67-0.15,5.55,5.55,0,0,0-.58,0l-0.4,0-0.3,0a5.39,5.39,0,0,0-.67.15,8.65,8.65,0,0,0-1.37.55c-0.44.21-.83,0.43-1.13,0.58s-0.48.25-.48,0.25a3.84,3.84,0,0,1,.4-1.94,4.33,4.33,0,0,1,1.36-1.64,4.1,4.1,0,0,1,1.16-.6,3.6,3.6,0,0,1,.7-0.17,6,6,0,0,1,.62-0.06,4.38,4.38,0,0,1,1.44.23,4.11,4.11,0,0,1,1.15.6,4.33,4.33,0,0,1,1.75,3A3.16,3.16,0,0,1,167.59,863.87Z" transform="translate(-20.51 -764.95)"/><path class="cls-9" d="M169,888.3a14.39,14.39,0,0,1-6.86,1.87,15.47,15.47,0,0,1-7-1.87c0-5.93,3.11-10.73,6.94-10.73S169.41,882.38,169,888.3Z" transform="translate(-20.51 -764.95)"/><path class="cls-13" d="M167.59,863.87s-0.19-.09-0.48-0.25-0.68-.37-1.12-0.58a8.55,8.55,0,0,0-1.37-.55,5.29,5.29,0,0,0-.67-0.15,5.55,5.55,0,0,0-.58,0l-0.4,0-0.3,0a5.39,5.39,0,0,0-.67.15,8.65,8.65,0,0,0-1.37.55c-0.44.21-.83,0.43-1.13,0.58s-0.48.25-.48,0.25a3.84,3.84,0,0,1,.4-1.94,4.33,4.33,0,0,1,1.36-1.64,4.1,4.1,0,0,1,1.16-.6,3.6,3.6,0,0,1,.7-0.17,6,6,0,0,1,.62-0.06,4.38,4.38,0,0,1,1.44.23,4.11,4.11,0,0,1,1.15.6,4.33,4.33,0,0,1,1.75,3A3.16,3.16,0,0,1,167.59,863.87Z" transform="translate(-20.51 -764.95)"/><ellipse class="cls-10" cx="209.63" cy="123.35" rx="6.94" ry="10.73"/><ellipse class="cls-11" cx="208.42" cy="123.35" rx="5.74" ry="8.87"/><ellipse class="cls-12" cx="208.41" cy="123.35" rx="3.98" ry="6.16"/><ellipse class="cls-10" cx="210.88" cy="120.03" rx="1.12" ry="1.74"/><path class="cls-13" d="M233.21,863.87s-0.19-.09-0.48-0.25-0.68-.37-1.12-0.58a8.57,8.57,0,0,0-1.37-.55,5.27,5.27,0,0,0-.67-0.15,5.53,5.53,0,0,0-.58,0l-0.4,0-0.3,0a5.39,5.39,0,0,0-.67.15,8.65,8.65,0,0,0-1.37.55c-0.44.21-.83,0.43-1.13,0.58s-0.48.25-.48,0.25a3.84,3.84,0,0,1,.4-1.94,4.33,4.33,0,0,1,1.36-1.64,4.1,4.1,0,0,1,1.16-.6,3.6,3.6,0,0,1,.7-0.17,6,6,0,0,1,.62-0.06,4.38,4.38,0,0,1,1.44.23,4.11,4.11,0,0,1,1.15.6,4.33,4.33,0,0,1,1.75,3A3.16,3.16,0,0,1,233.21,863.87Z" transform="translate(-20.51 -764.95)"/><path class="cls-9" d="M237.09,888.3a10.28,10.28,0,0,1-6.42,2.36,15.82,15.82,0,0,1-7.47-2.36c0.11-5.93,3.11-10.73,6.94-10.73S236.71,882.38,237.09,888.3Z" transform="translate(-20.51 -764.95)"/><path class="cls-13" d="M233.21,863.87s-0.19-.09-0.48-0.25-0.68-.37-1.12-0.58a8.57,8.57,0,0,0-1.37-.55,5.27,5.27,0,0,0-.67-0.15,5.53,5.53,0,0,0-.58,0l-0.4,0-0.3,0a5.39,5.39,0,0,0-.67.15,8.65,8.65,0,0,0-1.37.55c-0.44.21-.83,0.43-1.13,0.58s-0.48.25-.48,0.25a3.84,3.84,0,0,1,.4-1.94,4.33,4.33,0,0,1,1.36-1.64,4.1,4.1,0,0,1,1.16-.6,3.6,3.6,0,0,1,.7-0.17,6,6,0,0,1,.62-0.06,4.38,4.38,0,0,1,1.44.23,4.11,4.11,0,0,1,1.15.6,4.33,4.33,0,0,1,1.75,3A3.16,3.16,0,0,1,233.21,863.87Z" transform="translate(-20.51 -764.95)"/><path class="cls-13" d="M128.78,885.09s23.42-25,24.42-49C167.7,850.6,266,874.76,301,837.76c-11.67,1-23.32-3.83-24.67-27.33-2.33-40.67-109.87-71.67-135.2-13C115.5,774.76,109.44,872.42,128.78,885.09Z" transform="translate(-20.51 -764.95)"/><ellipse class="cls-14" cx="182.26" cy="18.6" rx="29" ry="8.25"/><path class="cls-13" d="M264.34,885.09S244,848.76,243,824.76c-0.56-11,4.1-24.33,9-27.33C277.62,774.76,283.67,872.42,264.34,885.09Z" transform="translate(-20.51 -764.95)"/><path class="cls-14" d="M153.2,825.1s1.95,0.92,5.41,2.35,8.44,3.33,14.5,5.3c3,1,6.33,2,9.82,3s7.21,1.94,11.08,2.8c1.93,0.46,3.9.85,5.89,1.27s4,0.75,6.06,1.14c4.1,0.67,8.26,1.34,12.45,1.78l3.14,0.37,3.14,0.28c2.09,0.2,4.17.34,6.25,0.47,4.14,0.25,8.23.4,12.18,0.42,2,0.07,3.92,0,5.83,0l2.83,0,2.76-.12c3.64-.09,7.07-0.4,10.26-0.58l4.56-.42c1.45-.11,2.83-0.24,4.12-0.41s2.5-.31,3.62-0.42,2.15-.23,3.08-0.38c1.85-.28,3.32-0.44,4.32-0.58l1.54-.18-1.46.52c-1,.32-2.35.83-4.15,1.4s-4,1.19-6.54,1.89-5.45,1.3-8.62,2c-3.19.55-6.66,1.22-10.36,1.63l-2.81.34-2.89.25c-2,.17-3.95.33-6,0.4s-4.1.19-6.2,0.16-4.22,0-6.36-.09-4.3-.15-6.45-0.36L221,849l-3.24-.36a155.77,155.77,0,0,1-25-5c-3.92-1.09-7.65-2.38-11.15-3.65s-6.75-2.66-9.69-4-5.6-2.71-7.91-4-4.28-2.45-5.88-3.46-2.81-1.88-3.63-2.46S153.2,825.1,153.2,825.1Z" transform="translate(-20.51 -764.95)"/><path class="cls-15" d="M183.72,885.29c0,10.66-9.68,22.64-21.62,22.64s-21.62-12-21.62-22.64,9.68-17.78,21.62-17.78S183.72,874.64,183.72,885.29Z" transform="translate(-20.51 -764.95)"/><path class="cls-15" d="M251.75,885.29c0,10.66-9.68,22.64-21.62,22.64s-21.62-12-21.62-22.64,9.68-17.78,21.62-17.78S251.75,874.64,251.75,885.29Z" transform="translate(-20.51 -764.95)"/><path class="cls-16" d="M182.86,890.17l-0.1-.48a7.89,7.89,0,0,1-.19-1.36l0-1c0-.37.06-0.76,0.1-1.19a13.14,13.14,0,0,1,.68-2.83c0.19-.5.44-1,0.7-1.55a13.92,13.92,0,0,1,1-1.55,13.48,13.48,0,0,1,2.8-2.86,14.25,14.25,0,0,1,3.85-2,15.2,15.2,0,0,1,4.47-.74l1.09,0.06a9.13,9.13,0,0,1,1.12.14,13.52,13.52,0,0,1,2.26.54,14.23,14.23,0,0,1,3.85,2,13.52,13.52,0,0,1,2.8,2.86,14.2,14.2,0,0,1,1,1.55c0.26,0.53.5,1,.7,1.55a13.1,13.1,0,0,1,.68,2.83c0,0.43.08,0.82,0.1,1.19l0,1a8.13,8.13,0,0,1-.19,1.38l-0.1.48-0.15-.47c-0.1-.3-0.19-0.74-0.4-1.28l-0.33-.87c-0.16-.3-0.29-0.64-0.45-1a17.66,17.66,0,0,0-1.31-2.15,14.27,14.27,0,0,0-1.91-2.14,13.51,13.51,0,0,0-2.49-1.83,14.32,14.32,0,0,0-3-1.23,14.59,14.59,0,0,0-1.55-.3,4.75,4.75,0,0,0-.83-0.09l-0.87,0a14.07,14.07,0,0,0-3.25.43,14.28,14.28,0,0,0-3,1.23,13.55,13.55,0,0,0-2.49,1.83,14.3,14.3,0,0,0-1.91,2.14,17.57,17.57,0,0,0-1.31,2.15c-0.16.35-.3,0.68-0.45,1l-0.32.86c-0.21.52-.31,1-0.41,1.29Z" transform="translate(-20.51 -764.95)"/><line class="cls-17" x1="120.35" y1="116.97" x2="96.76" y2="97.14"/><line class="cls-17" x1="230.85" y1="116.97" x2="254.43" y2="97.14"/><path class="cls-10" d="M162.1,874.6c-4.84,0-12.11.77-15.51,5,3.73-3,9.85-3.6,14.09-3.6,6.49,0,17.37,1.39,17.37,10.69a19.5,19.5,0,0,1-5.27,12.53c4.07-3.69,6.69-9.11,6.69-13.94C179.47,876,168.59,874.6,162.1,874.6Z" transform="translate(-20.51 -764.95)"/><path class="cls-10" d="M230.13,874.6c-4.84,0-12.11.77-15.51,5,3.73-3,9.85-3.6,14.09-3.6,6.49,0,17.37,1.39,17.37,10.69a19.49,19.49,0,0,1-5.27,12.53c4.07-3.69,6.69-9.11,6.69-13.94C247.5,876,236.62,874.6,230.13,874.6Z" transform="translate(-20.51 -764.95)"/><path class="cls-7" d="M195,1006.42s-47.25-1.3-56.75.92-12.2,7.83-10.81,12.41,60.35,7.81,71.43,3.36Z" transform="translate(-20.51 -764.95)"/><path class="cls-7" d="M196.82,1006.42s46.92-2.1,56.38-.05,12.22,7.61,10.92,12.22-59.84,8.84-70.91,4.58Z" transform="translate(-20.51 -764.95)"/><path class="cls-13" d="M169.08,887.58l-0.08.16a3.67,3.67,0,0,1-.26.45,6.39,6.39,0,0,1-1.23,1.42,7.64,7.64,0,0,1-2.31,1.39,8.51,8.51,0,0,1-1.49.43,9.28,9.28,0,0,1-1.62.15,9.55,9.55,0,0,1-1.57-.15A8.32,8.32,0,0,1,159,891a7.6,7.6,0,0,1-2.32-1.39,6.31,6.31,0,0,1-1.23-1.42,4.69,4.69,0,0,1-.34-0.62l0.61,0.33a16.67,16.67,0,0,0,1.57.73,14.25,14.25,0,0,0,2.22.68,12.42,12.42,0,0,0,1.26.19c0.45,0,.81.07,1.33,0.07s0.86,0,1.28-.07a11.79,11.79,0,0,0,1.26-.19c0.4-.1.8-0.18,1.17-0.3s0.72-.25,1-0.37a16.87,16.87,0,0,0,1.57-.73Z" transform="translate(-20.51 -764.95)"/><path class="cls-18" d="M211.37,1024.28s-4.89,2.56-7.95,0-5.79-2.21-6.93,3.09-2.05,10.65,4.12,8.84,13.58-3.73,13.58-3.73Z" transform="translate(-20.51 -764.95)"/><path class="cls-18" d="M181,1024.45s4.93,2.49,7.95-.15,5.76-2.3,7,3,2.22,10.61-4,8.91-13.64-3.52-13.64-3.52Z" transform="translate(-20.51 -764.95)"/><path class="cls-19" d="M207.28,1020.89s50.24-12.73,56.36-8c0,0,4.23,3.34-.44,10.09S208,1037.07,208,1037.07Z" transform="translate(-20.51 -764.95)"/><path class="cls-19" d="M184.16,1021.45s-50.27-12.23-56.31-7.42c0,0-4.18,3.4.6,10.08s56.2,13.06,56.2,13.06Z" transform="translate(-20.51 -764.95)"/><path class="cls-13" d="M237.17,887.68l-0.08.16a3.69,3.69,0,0,1-.26.45,6.41,6.41,0,0,1-1.24,1.42,7.67,7.67,0,0,1-2.32,1.39,8.55,8.55,0,0,1-1.49.43,9.32,9.32,0,0,1-1.62.15,9.6,9.6,0,0,1-1.57-.15,8.36,8.36,0,0,1-1.49-.43,7.63,7.63,0,0,1-2.32-1.39,6.33,6.33,0,0,1-1.24-1.42,4.69,4.69,0,0,1-.34-0.62l0.61,0.33a16.68,16.68,0,0,0,1.57.73,14.3,14.3,0,0,0,2.23.68,12.46,12.46,0,0,0,1.26.19c0.45,0,.81.07,1.34,0.07s0.86,0,1.28-.07a11.84,11.84,0,0,0,1.26-.19c0.4-.1.8-0.18,1.18-0.3s0.72-.25,1.05-0.37a16.88,16.88,0,0,0,1.57-.73Z" transform="translate(-20.51 -764.95)"/><path class="cls-20" d="M190.9,1023a14,14,0,0,1,3.22,6.67,11.8,11.8,0,0,1-.32,6.84,2.49,2.49,0,0,0,1.83-.42c1-.64,1.77-2.27.64-7.15S194.13,1021.76,190.9,1023Z" transform="translate(-20.51 -764.95)"/><path class="cls-20" d="M201.41,1023a14,14,0,0,0-3.12,6.72,11.8,11.8,0,0,0,.43,6.83,2.49,2.49,0,0,1-1.84-.4c-1-.62-1.81-2.24-0.75-7.14S198.16,1021.79,201.41,1023Z" transform="translate(-20.51 -764.95)"/><path class="cls-21" d="M190.9,1023s-0.65,1.85.45,6.63a23.85,23.85,0,0,0,2.45,6.87A14.32,14.32,0,0,0,190.9,1023Z" transform="translate(-20.51 -764.95)"/><path class="cls-10" d="M187,1026.45a14.68,14.68,0,0,1,3.75-1.76,32.22,32.22,0,0,0,1.78,8.87,6.47,6.47,0,0,1-4.66-.33S186.23,1028.87,187,1026.45Z" transform="translate(-20.51 -764.95)"/><path class="cls-22" d="M189.08,1033.71a5.08,5.08,0,0,0,1.91.13s-2-5-1.29-8.77l-2,.9A15,15,0,0,0,189.08,1033.71Z" transform="translate(-20.51 -764.95)"/><path class="cls-21" d="M201.38,1023s0.68,1.84-.35,6.64a23.85,23.85,0,0,1-2.34,6.91A14.32,14.32,0,0,1,201.38,1023Z" transform="translate(-20.51 -764.95)"/><path class="cls-10" d="M205.37,1026.38a14.68,14.68,0,0,0-3.78-1.7,32.22,32.22,0,0,1-1.64,8.9,6.47,6.47,0,0,0,4.65-.4S206.13,1028.79,205.37,1026.38Z" transform="translate(-20.51 -764.95)"/><path class="cls-22" d="M203.37,1033.68a5.08,5.08,0,0,1-1.91.16s2-5.07,1.15-8.79l2,0.87A15,15,0,0,1,203.37,1033.68Z" transform="translate(-20.51 -764.95)"/><path class="cls-4" d="M198,975.17V968l0.5,0a9.84,9.84,0,0,1,4.2.82l0.59-2a11.73,11.73,0,0,0-4.73-.87c-6.37,0-10.25,4.14-10.28,9.8a8.92,8.92,0,0,0,9.75,9.58,17.68,17.68,0,0,0,5.83-1v-9.13H198Zm-7.13.48c0-3.65,1.77-6.18,4.68-7.17v14.43C192.7,982,190.92,979.42,190.92,975.65Zm10.59,7.15a8,8,0,0,1-3.27.51H198v-6.16h3.46v5.66Z" transform="translate(-20.51 -764.95)"/><path class="cls-10" d="M195.38,989.52s-0.88-.74.34-2.23S212.89,977,212.89,977A3,3,0,0,0,214,978.1a3.59,3.59,0,0,0,1.28.27Z" transform="translate(-20.51 -764.95)"/><g class="cls-23"><path class="cls-24" d="M213.79,976.78l-20.07,11.59,0.14,0.08,20-11.56Z" transform="translate(-20.51 -764.95)"/><path class="cls-24" d="M214.11,977.09l-20,11.53,0.14,0.08,20-11.52Z" transform="translate(-20.51 -764.95)"/><path class="cls-24" d="M214.54,977.35l-20,11.52,0.14,0.08,20-11.54Z" transform="translate(-20.51 -764.95)"/><path class="cls-24" d="M215.06,977.55l-20,11.57,0.14,0.08,20.08-11.6Z" transform="translate(-20.51 -764.95)"/><path class="cls-24" d="M215.63,977.72l-20.18,11.65,0.14,0.08,20.23-11.68Z" transform="translate(-20.51 -764.95)"/><path class="cls-24" d="M216.18,977.9l-20.3,11.72L196,989.7,216.33,978Z" transform="translate(-20.51 -764.95)"/><path class="cls-24" d="M216.56,978.17l-20.25,11.69,0.14,0.08,20.19-11.66Z" transform="translate(-20.51 -764.95)"/></g><path class="cls-10" d="M194.74,989.52s0.88-.74-0.34-2.23S177.24,977,177.24,977a3,3,0,0,1-1.08,1.08,3.59,3.59,0,0,1-1.28.27Z" transform="translate(-20.51 -764.95)"/><g class="cls-25"><path class="cls-24" d="M176.34,976.78l20.07,11.59-0.14.08-20-11.56Z" transform="translate(-20.51 -764.95)"/><path class="cls-24" d="M176,977.09l20,11.53-0.14.08-20-11.52Z" transform="translate(-20.51 -764.95)"/><path class="cls-24" d="M175.58,977.35l20,11.52-0.14.08-20-11.54Z" transform="translate(-20.51 -764.95)"/><path class="cls-24" d="M175.07,977.55l20,11.57-0.14.08-20.08-11.6Z" transform="translate(-20.51 -764.95)"/><path class="cls-24" d="M174.5,977.72l20.18,11.65-0.14.08L174.3,977.77Z" transform="translate(-20.51 -764.95)"/><path class="cls-24" d="M173.95,977.9l20.3,11.72-0.14.08L173.8,978Z" transform="translate(-20.51 -764.95)"/><path class="cls-24" d="M173.56,978.17l20.25,11.69-0.14.08-20.19-11.66Z" transform="translate(-20.51 -764.95)"/></g><polygon class="cls-26" points="194.98 212.95 194.43 212.95 177.1 223.01 177.88 223.12 194.98 212.95"/><polygon class="cls-27" points="195.11 241.39 177.2 251.84 177.07 223.4 194.98 212.95 195.11 241.39"/><text class="cls-28" transform="translate(181.16 232.49) rotate(-27.72) scale(0.91 1)">SCRUM</text><polygon class="cls-26" points="153.8 212.9 154.35 212.9 171.69 222.97 171.08 223.18 153.8 212.9"/><polygon class="cls-27" points="153.68 241.34 171.59 251.79 171.71 223.35 153.8 212.9 153.68 241.34"/><path class="cls-29" d="M191.75,988l0.36-.16a5.17,5.17,0,0,0,3,1,4.14,4.14,0,0,0,2.53-.84L198.1,988a5.15,5.15,0,0,1-2.28,1.44,9.52,9.52,0,0,1-3.56-.56A1.5,1.5,0,0,1,191.75,988Z" transform="translate(-20.51 -764.95)"/><path class="cls-30" d="M198.1,1016.56a5.4,5.4,0,0,1-6.35,0V988a5.4,5.4,0,0,0,6.35,0v28.54Z" transform="translate(-20.51 -764.95)"/><path class="cls-31" d="M198.1,1011.32a5.4,5.4,0,0,1-6.35,0V1010a5.4,5.4,0,0,0,6.35,0v1.35Z" transform="translate(-20.51 -764.95)"/><path class="cls-31" d="M198.1,992.8a5.4,5.4,0,0,1-6.35,0v-1.35a5.4,5.4,0,0,0,6.35,0v1.35Z" transform="translate(-20.51 -764.95)"/><path class="cls-31" d="M198.1,1009.22a5.4,5.4,0,0,1-6.35,0v-0.68a5.4,5.4,0,0,0,6.35,0v0.68Z" transform="translate(-20.51 -764.95)"/><path class="cls-31" d="M197,996.58a2,2,0,1,1-4,0c0-1.09.88-1.56,2-1.57S197,995.49,197,996.58Z" transform="translate(-20.51 -764.95)"/><path class="cls-32" d="M194.93,989v28.54a5.4,5.4,0,0,0,3.17-1V988A5.4,5.4,0,0,1,194.93,989Z" transform="translate(-20.51 -764.95)"/><path class="cls-5" d="M151.54,964.44a20,20,0,0,0-1.76,4.33c-4.67,16.9,15.92,33.87,18.59,34.9,4.94,1.9,4.8.62,6.86-1.76s0.71-4.08-1.67-6.14h0c-4.07-3.53-15.14-15.51-12.79-24,1.71-6.16,9.4-10.72,24.76-13.4,3.1-.54-5.69-3.2-6.23-6.3s5.75-5.15,2.65-4.61C164.25,950.58,156.26,955.86,151.54,964.44Z" transform="translate(-20.51 -764.95)"/><path class="cls-5" d="M175.57,993.41c3.54,3.11,2.77,2.42,1.45,6.18s-2.39,6.8-6.14,5.48-7.37-6-6.06-9.75S171.81,992.09,175.57,993.41Z" transform="translate(-20.51 -764.95)"/><path class="cls-5" d="M175.84,1005.23a1.09,1.09,0,0,1,.37,1.5h0a1.09,1.09,0,0,1-1.5.37l-7.22-4.37a1.09,1.09,0,0,1-.37-1.5h0a1.09,1.09,0,0,1,1.5-.37Z" transform="translate(-20.51 -764.95)"/><path class="cls-5" d="M179,1003.72a1.09,1.09,0,0,1,.37,1.5h0a1.1,1.1,0,0,1-1.5.37l-7.22-4.37a1.09,1.09,0,0,1-.37-1.5h0a1.09,1.09,0,0,1,1.5-.37Z" transform="translate(-20.51 -764.95)"/><path class="cls-5" d="M181.7,1002a1.09,1.09,0,0,1,.37,1.5h0a1.09,1.09,0,0,1-1.5.37l-7.22-4.37A1.09,1.09,0,0,1,173,998h0a1.09,1.09,0,0,1,1.5-.37Z" transform="translate(-20.51 -764.95)"/><path class="cls-5" d="M181.81,998.55a1.09,1.09,0,0,1,.37,1.5h0a1.09,1.09,0,0,1-1.5.37l-7.22-4.37a1.09,1.09,0,0,1-.37-1.5h0a1.09,1.09,0,0,1,1.5-.37Z" transform="translate(-20.51 -764.95)"/><path class="cls-3" d="M180.92,952.22c0.26,2.53,9.25,6.54,6.58,7.39-7.92,2.52-14.68,4.52-19.24,6.9-3.08,1.61-5.18,3.39-5.93,5.63a9.06,9.06,0,0,0-.25,4.36c0.75,4.6,4.17,9.74,7.54,13.36L159,999.74c-4.3-4.64-13.41-16.18-11.25-28.81a22.18,22.18,0,0,1,2.45-7.05,25.13,25.13,0,0,1,5.44-6.67c6.28-5.57,16.1-9.55,29.39-11.88C185,945.32,180.71,950.27,180.92,952.22Z" transform="translate(-20.51 -764.95)"/><path class="cls-4" d="M159,999.74l10.63-9.87c-0.48-.52-1-1.07-1.44-1.65-3.75,3.18-7.22,6.51-10.67,9.86C158,998.7,158.53,999.25,159,999.74Z" transform="translate(-20.51 -764.95)"/><path class="cls-5" d="M240.76,964.68a20,20,0,0,1,1.76,4.33c4.67,16.9-15.92,33.87-18.59,34.9-4.94,1.9-4.8.62-6.86-1.76s-0.71-4.08,1.67-6.14h0c4.07-3.53,15.14-15.51,12.79-24-1.71-6.16-9.4-10.72-24.76-13.4-3.1-.54,5.69-3.2,6.23-6.3s-5.75-5.15-2.65-4.61C228,950.82,236,956.09,240.76,964.68Z" transform="translate(-20.51 -764.95)"/><path class="cls-5" d="M216,994c-3.54,3.11-2.07,2-.76,5.79s2.39,6.8,6.14,5.48,7.37-6,6.06-9.75S219.79,992.71,216,994Z" transform="translate(-20.51 -764.95)"/><path class="cls-5" d="M214.88,1004.82a1.09,1.09,0,0,0-.67,1.39h0a1.09,1.09,0,0,0,1.39.67l8-2.79a1.09,1.09,0,0,0,.67-1.39h0a1.09,1.09,0,0,0-1.39-.67Z" transform="translate(-20.51 -764.95)"/><path class="cls-5" d="M212.09,1002.7a1.09,1.09,0,0,0-.67,1.39h0a1.1,1.1,0,0,0,1.39.67l8-2.79a1.09,1.09,0,0,0,.67-1.39h0a1.09,1.09,0,0,0-1.39-.67Z" transform="translate(-20.51 -764.95)"/><path class="cls-5" d="M209.8,1000.48a1.09,1.09,0,0,0-.67,1.39h0a1.09,1.09,0,0,0,1.39.67l8-2.79a1.09,1.09,0,0,0,.67-1.39h0a1.09,1.09,0,0,0-1.39-.67Z" transform="translate(-20.51 -764.95)"/><path class="cls-5" d="M210.4,997.06a1.09,1.09,0,0,0-.67,1.39h0a1.09,1.09,0,0,0,1.39.67l8-2.79a1.09,1.09,0,0,0,.67-1.39h0a1.09,1.09,0,0,0-1.39-.67Z" transform="translate(-20.51 -764.95)"/><path class="cls-3" d="M211.39,952.46c-0.26,2.53-9.25,6.54-6.58,7.39,7.92,2.52,14.68,4.52,19.24,6.9,3.08,1.61,5.18,3.39,5.93,5.63a9.06,9.06,0,0,1,.25,4.36c-0.75,4.6-4.17,9.74-7.54,13.36l10.63,9.87c4.3-4.64,13.41-16.18,11.25-28.81a22.18,22.18,0,0,0-2.45-7.05,25.13,25.13,0,0,0-5.44-6.67c-6.28-5.57-16.1-9.55-29.39-11.88C207.31,945.56,211.59,950.51,211.39,952.46Z" transform="translate(-20.51 -764.95)"/><path class="cls-4" d="M233.33,1000L222.7,990.1c0.48-.52,1-1.07,1.44-1.65,3.75,3.18,7.22,6.51,10.67,9.86C234.28,998.94,233.77,999.49,233.33,1000Z" transform="translate(-20.51 -764.95)"/><path class="cls-33" d="M183.72,918.22s4.23,2.67,13.79,2.67,14-3.92,14-3.92" transform="translate(-20.51 -764.95)"/><rect class="cls-34" x="20.52" y="1025" width="86.29" height="12.96" transform="translate(-22.07 -764.85) rotate(-0.09)"/><rect class="cls-35" x="25.63" y="1025.05" width="3.41" height="12.96" transform="translate(-22.07 -764.91) rotate(-0.09)"/><rect class="cls-35" x="31.31" y="1025.04" width="3.41" height="12.96" transform="translate(-22.07 -764.9) rotate(-0.09)"/><rect class="cls-35" x="92.62" y="1024.95" width="6.81" height="12.96" transform="translate(-22.07 -764.8) rotate(-0.09)"/><rect class="cls-36" x="18.85" y="248.7" width="65.86" height="11.08"/><rect class="cls-35" x="78.59" y="249.11" width="2.82" height="11"/><rect class="cls-35" x="30.92" y="249.11" width="2.82" height="11"/></g></g></svg>