<svg id="icons" xmlns="http://www.w3.org/2000/svg" viewBox="0 0 37.78 34.23"><defs><style>.cls-1{fill:#a2a2a2;}</style></defs><title>icon</title><path class="cls-1" d="M415.77,1237.84l7.59-7.68,7.56-7.47a9,9,0,0,0,2.94-5.76,7.41,7.41,0,0,0-1.53-5.26,7.23,7.23,0,0,0-4.62-2.84,8.38,8.38,0,0,0-1.44-.12,7.21,7.21,0,0,0-3.22.8,11.24,11.24,0,0,0-2.52,1.62q-0.92.83-2.48,2.38L407.61,1224q-0.6.6-1.32,1.23-1.14,1.08-1.68,1.62a14.35,14.35,0,0,0-1.26,1.5,5.23,5.23,0,0,0-.95,1.89,5.17,5.17,0,0,0-.07,2,4.12,4.12,0,0,0,1.62,2.88,5,5,0,0,0,3,1,5.11,5.11,0,0,0,3.75-1.56l16.41-16.41a2,2,0,0,0,.6-2.25,1.6,1.6,0,0,0-1.59-1.08,2.1,2.1,0,0,0-1.5.69,12.54,12.54,0,0,0-1.17,1.14l-11.31,11.19-2.07-2,0.21-.21,11.64-11.88a8.09,8.09,0,0,1,2-1.53,5.21,5.21,0,0,1,2.39-.51c0.18,0,.47,0,0.87.06a4.26,4.26,0,0,1,3.51,3.12,5.2,5.2,0,0,1,.09,2.88,5.26,5.26,0,0,1-1.41,2.52L417.57,1232q-0.51.51-1.71,1.83t-1.79,1.92a14.69,14.69,0,0,1-1.57,1.36,11.43,11.43,0,0,1-2,1.22,7.89,7.89,0,0,1-3.57.84,8,8,0,0,1-3.87-1,7.39,7.39,0,0,1-2.82-2.67,7.65,7.65,0,0,1-1-5.19,8.35,8.35,0,0,1,2.43-4.89L417,1210.12a19.83,19.83,0,0,1,3.33-2.85,11.13,11.13,0,0,1,5.91-1.65,10.44,10.44,0,0,1,4.56,1,10.05,10.05,0,0,1,3.9,3.09,10.69,10.69,0,0,1,2,4.62,11.48,11.48,0,0,1-3.18,10.2l-15.51,15.33-2.07-1.8Z" transform="translate(-399.16 -1205.62)"/></svg>