<?xml version="1.0" encoding="utf-8"?>
<!-- Generator: Adobe Illustrator 21.0.0, SVG Export Plug-In . SVG Version: 6.00 Build 0)  -->
<svg version="1.1" id="Capa_1" xmlns="http://www.w3.org/2000/svg" xmlns:xlink="http://www.w3.org/1999/xlink" x="0px" y="0px"
	 viewBox="0 0 512 512" style="enable-background:new 0 0 512 512;" xml:space="preserve">
<g>
	<g>
		<path d="M374.6,91.3v-0.9c-0.9-0.9-0.9-1.7-1.7-2.6L287.6,2.6c-0.9-0.9-1.7-0.9-2.6-1.7h-0.9c-0.9,0-1.7-0.9-2.6-0.9l0,0H8.5
			C3.4,0,0,3.4,0,8.5v494.9c0,5.1,3.4,8.5,8.5,8.5h358.4c5.1,0,8.5-3.4,8.5-8.5V93.9l0,0C375.5,93,375.5,92.2,374.6,91.3z
			 M346.5,85.3h-56.3V29L346.5,85.3z M196.3,494.9v-34.1h17.1c5.1,0,8.5-3.4,8.5-8.5v-34.1h8.5c5.1,0,8.5-3.4,8.5-8.5v-63.1
			c41.8-19.6,68.3-61.4,68.3-107.5c0-65.7-53.8-119.5-119.5-119.5S68.3,173.2,68.3,238.9c0,46.1,26.5,87.9,68.3,107.5v63.1
			c0,5.1,3.4,8.5,8.5,8.5h8.5v34.1c0,5.1,3.4,8.5,8.5,8.5h17.1v34.1H17.1V17.1h256v76.8c0,5.1,3.4,8.5,8.5,8.5h76.8v392.5H196.3z
			 M153.6,366.9c0-12.8,0-25.6,0-25.6c0-3.4-1.7-6-5.1-7.7c-38.4-16.2-63.1-53.8-63.1-94.7c0-56.3,46.1-102.4,102.4-102.4
			s102.4,46.1,102.4,102.4c0,41-24.7,78.5-63.1,94.7c-3.4,0.9-5.1,4.3-5.1,7.7v59.7h-8.5h-51.2h-8.5c0,0,0-10.2,0-17.1h42.7v-17.1
			H153.6z M170.7,418.1h34.1v25.6h-34.1V418.1z"/>
		<path d="M196.3,225.3l23-23l-11.9-11.9l-19.6,19.6l-19.6-19.6l-11.9,11.9l23,23v90.5h17.1C196.3,315.7,196.3,232.1,196.3,225.3z"
			/>
		<path d="M503.5,0h-51.2c-5.1,0-8.5,3.4-8.5,8.5v34.1h-25.6c-5.1,0-8.5,3.4-8.5,8.5v256h17.1V59.7h17.1v42.7v324.3
			c0,1.7,0.9,4.3,1.7,5.1l24.7,74.2c0.9,3.4,4.3,6,7.7,6c3.4,0,6.8-2.6,7.7-6l24.7-74.2c0.9-1.7,1.7-3.4,1.7-5.1V102.4V8.5
			C512,3.4,508.6,0,503.5,0z M460.8,110.9h34.1v307.2h-34.1V110.9z M460.8,17.1h34.1v76.8h-34.1V17.1z M477.9,476.2l-13.7-41h27.3
			L477.9,476.2z"/>
		<rect x="51.2" y="42.7" width="42.7" height="17.1"/>
		<rect x="51.2" y="76.8" width="110.9" height="17.1"/>
	</g>
</g>
</svg>
