<?xml version="1.0" encoding="utf-8"?>
<!-- Generator: Adobe Illustrator 21.0.0, SVG Export Plug-In . SVG Version: 6.00 Build 0)  -->
<svg version="1.1" id="Capa_1" xmlns="http://www.w3.org/2000/svg" xmlns:xlink="http://www.w3.org/1999/xlink" x="0px" y="0px"
	 viewBox="0 0 512 512" style="enable-background:new 0 0 512 512;" xml:space="preserve">
<g>
	<path d="M332.1,0H55.5v512h401.1V124.5L332.1,0z M337.1,29.1l90.3,90.3h-90.3V29.1z M72.5,494.9V17.1H320v119.5h119.5v358.4H72.5z"
		/>
	<path d="M362.7,179.2H226.1c-4.7,0-8.5,3.8-8.5,8.5c0,4.7,3.8,8.5,8.5,8.5h136.5c4.7,0,8.5-3.8,8.5-8.5
		C371.2,183,367.4,179.2,362.7,179.2z"/>
	<path d="M195.2,155.5l-36.7,29.4l-11.7-11.7c-3.3-3.3-8.7-3.3-12.1,0c-3.3,3.3-3.3,8.7,0,12.1l17.1,17.1c1.7,1.7,3.8,2.5,6,2.5
		c1.9,0,3.8-0.6,5.3-1.9l42.7-34.1c3.7-3,4.3-8.3,1.3-12C204.3,153.1,198.9,152.5,195.2,155.5z"/>
	<path d="M362.7,273.1H226.1c-4.7,0-8.5,3.8-8.5,8.5c0,4.7,3.8,8.5,8.5,8.5h136.5c4.7,0,8.5-3.8,8.5-8.5
		C371.2,276.9,367.4,273.1,362.7,273.1z"/>
	<path d="M195.2,249.3l-36.7,29.4L146.8,267c-3.3-3.3-8.7-3.3-12.1,0c-3.3,3.3-3.3,8.7,0,12.1l17.1,17.1c1.7,1.7,3.8,2.5,6,2.5
		c1.9,0,3.8-0.6,5.3-1.9l42.7-34.1c3.7-3,4.3-8.3,1.3-12C204.3,247,198.9,246.4,195.2,249.3z"/>
	<path d="M362.7,366.9H226.1c-4.7,0-8.5,3.8-8.5,8.5c0,4.7,3.8,8.5,8.5,8.5h136.5c4.7,0,8.5-3.8,8.5-8.5
		C371.2,370.7,367.4,366.9,362.7,366.9z"/>
	<path d="M195.2,343.2l-36.7,29.4l-11.7-11.7c-3.3-3.3-8.7-3.3-12.1,0c-3.3,3.3-3.3,8.7,0,12.1l17.1,17.1c1.7,1.7,3.8,2.5,6,2.5
		c1.9,0,3.8-0.6,5.3-1.9l42.7-34.1c3.7-3,4.3-8.3,1.3-12C204.3,340.8,198.9,340.3,195.2,343.2z"/>
</g>
</svg>
