<?xml version="1.0" encoding="utf-8"?>
<!-- Generator: Adobe Illustrator 21.0.0, SVG Export Plug-In . SVG Version: 6.00 Build 0)  -->
<svg version="1.1" id="Capa_1" xmlns="http://www.w3.org/2000/svg" xmlns:xlink="http://www.w3.org/1999/xlink" x="0px" y="0px"
	 viewBox="0 0 512 512" style="enable-background:new 0 0 512 512;" xml:space="preserve">
<g>
	<path d="M256,0C114.8,0,0,114.8,0,256s114.8,256,256,256s256-114.8,256-256S397.2,0,256,0z M256,492.3
		c-130.3,0-236.3-106-236.3-236.3S125.7,19.7,256,19.7s236.3,106,236.3,236.3S386.3,492.3,256,492.3z"/>
	<path d="M379.1,246.2H265.8V137.8c0-5.4-4.4-9.8-9.8-9.8c-5.4,0-9.8,4.4-9.8,9.8v108.3H132.9c-5.4,0-9.8,4.4-9.8,9.8
		s4.4,9.8,9.8,9.8h113.2V384c0,5.4,4.4,9.8,9.8,9.8c5.4,0,9.8-4.4,9.8-9.8V265.8h113.2c5.4,0,9.8-4.4,9.8-9.8
		S384.5,246.2,379.1,246.2z"/>
</g>
</svg>
