<?xml version="1.0" encoding="utf-8"?>
<!-- Generator: Adobe Illustrator 21.0.0, SVG Export Plug-In . SVG Version: 6.00 Build 0)  -->
<svg version="1.1" id="Capa_1" xmlns="http://www.w3.org/2000/svg" xmlns:xlink="http://www.w3.org/1999/xlink" x="0px" y="0px"
	 viewBox="0 0 512 512" style="enable-background:new 0 0 512 512;" xml:space="preserve">
<path d="M499.8,495.6L356.2,346.3c36.6-36.7,59.3-87.4,59.3-143.3c0-111.9-91.1-203-203-203S9.5,91.1,9.5,203s91.1,203,203,203
	c49.1,0,94.2-17.6,129.4-46.7l144,149.7c1.9,2,4.4,3,7,3c2.4,0,4.8-0.9,6.7-2.7C503.4,505.6,503.5,499.5,499.8,495.6z M212.5,386.7
	c-101.3,0-183.7-82.4-183.7-183.7S111.2,19.3,212.5,19.3S396.2,101.7,396.2,203S313.8,386.7,212.5,386.7z"/>
</svg>
