<?xml version="1.0" encoding="utf-8"?>
<!-- Generator: Adobe Illustrator 21.0.0, SVG Export Plug-In . SVG Version: 6.00 Build 0)  -->
<svg version="1.1" id="Capa_1" xmlns="http://www.w3.org/2000/svg" xmlns:xlink="http://www.w3.org/1999/xlink" x="0px" y="0px"
	 viewBox="0 0 512 512" style="enable-background:new 0 0 512 512;" xml:space="preserve">
<g>
	<g>
		<path d="M443.5,91.5C399.3,47.3,340.5,23,278.1,23C214.5,23,155,48.1,110.6,93.6c-4.8,4.9-4.7,12.9,0.2,17.8
			c4.9,4.8,12.9,4.7,17.8-0.2c39.7-40.6,92.7-63,149.4-63c115.1-0.1,208.7,93.5,208.7,208.6s-93.6,208.7-208.7,208.7
			S69.4,372,69.4,256.9v-2.6l20.8,20.8c2.4,2.4,5.7,3.7,8.9,3.7c3.3,0,6.4-1.3,8.9-3.7c4.9-4.9,4.9-12.9,0-17.8l-42.2-42.3
			c-4.9-4.9-12.9-4.9-17.8,0L5.7,257.2c-4.9,4.9-4.9,12.9,0,17.8c2.4,2.4,5.7,3.7,8.9,3.7s6.4-1.3,8.9-3.7l20.8-20.8v2.6
			c0,62.4,24.3,121.2,68.5,165.4s102.9,68.5,165.4,68.5s121.2-24.3,165.4-68.5S512,319.3,512,256.9S487.7,135.7,443.5,91.5z"/>
		<path d="M278.1,120.9c-40.9,0-74.2,33.3-74.2,74.2v35.8h-23.1c-6.9,0-12.6,5.7-12.6,12.6v125.6c0,6.9,5.7,12.6,12.6,12.6h194.7
			c6.9,0,12.6-5.7,12.6-12.6V243.6c0-6.9-5.7-12.6-12.6-12.6h-23.1v-35.8C352.4,154.3,319,120.9,278.1,120.9z M229.1,195.2
			c0-27.1,22-49,49-49s49,22,49,49V231h-98L229.1,195.2L229.1,195.2z M362.9,356.5H193.4V256.1h169.5V356.5z"/>
	</g>
</g>
</svg>
